  0
SECTION
  2
HEADER
  9
$ACADVER
  1
AC1009
  9
$EXTMIN
 10
0.0
 20
0.0
 30
0.0
  9
$EXTMAX
 10
1000.0
 20
1000.0
 30
0.0
  9
$FILLMODE
 70
 0
  9
$SPLFRAME
 70
 1
  0
ENDSEC
  0
SECTION
  2
TABLES
  0
TABLE
  2
LAYER
 70
1
  0
LAYER
  2
0
 70
     0
 62
     7
  6
CONTINUOUS
  0
ENDTAB
  0
ENDSEC
  0
SECTION
  2
ENTITIES
  0
LINE
  8
0
 62
     0
 10
0.0950846
 20
124.083
 30
0.0
 11
362.045
 21
124.083
 31
0.0
  0
LINE
  8
0
 62
     0
 10
362.045
 20
124.083
 30
0.0
 11
362.045
 21
0.257693
 31
0.0
  0
LINE
  8
0
 62
     0
 10
362.045
 20
0.257693
 30
0.0
 11
0.0950846
 21
0.257693
 31
0.0
  0
LINE
  8
0
 62
     0
 10
0.0950846
 20
0.257693
 30
0.0
 11
0.0950846
 21
124.083
 31
0.0
  0
LINE
  8
0
 62
     0
 10
331.232
 20
16.7831
 30
0.0
 11
331.232
 21
15.7827
 31
0.0
  0
LINE
  8
0
 62
     0
 10
331.232
 20
15.7827
 30
0.0
 11
330.431
 21
15.7827
 31
0.0
  0
LINE
  8
0
 62
     0
 10
330.431
 20
15.7827
 30
0.0
 11
330.431
 21
12.6835
 31
0.0
  0
LINE
  8
0
 62
     0
 10
330.431
 20
12.6835
 30
0.0
 11
331.232
 21
12.6835
 31
0.0
  0
LINE
  8
0
 62
     0
 10
331.232
 20
12.6835
 30
0.0
 11
331.232
 21
6.88329
 31
0.0
  0
LINE
  8
0
 62
     0
 10
331.232
 20
6.88329
 30
0.0
 11
330.431
 21
6.88329
 31
0.0
  0
LINE
  8
0
 62
     0
 10
330.431
 20
6.88329
 30
0.0
 11
330.431
 21
3.78273
 31
0.0
  0
LINE
  8
0
 62
     0
 10
330.431
 20
3.78273
 30
0.0
 11
331.232
 21
3.78273
 31
0.0
  0
LINE
  8
0
 62
     0
 10
331.232
 20
3.78273
 30
0.0
 11
331.232
 21
2.78364
 31
0.0
  0
LINE
  8
0
 62
     0
 10
331.232
 20
2.78364
 30
0.0
 11
345.232
 21
2.78364
 31
0.0
  0
LINE
  8
0
 62
     0
 10
345.232
 20
2.78364
 30
0.0
 11
345.232
 21
3.78273
 31
0.0
  0
LINE
  8
0
 62
     0
 10
345.232
 20
3.78273
 30
0.0
 11
346.031
 21
3.78273
 31
0.0
  0
LINE
  8
0
 62
     0
 10
346.031
 20
3.78273
 30
0.0
 11
346.031
 21
6.88329
 31
0.0
  0
LINE
  8
0
 62
     0
 10
346.031
 20
6.88329
 30
0.0
 11
345.232
 21
6.88329
 31
0.0
  0
LINE
  8
0
 62
     0
 10
345.232
 20
6.88329
 30
0.0
 11
345.232
 21
12.6835
 31
0.0
  0
LINE
  8
0
 62
     0
 10
345.232
 20
12.6835
 30
0.0
 11
346.031
 21
12.6835
 31
0.0
  0
LINE
  8
0
 62
     0
 10
346.031
 20
12.6835
 30
0.0
 11
346.031
 21
15.7827
 31
0.0
  0
LINE
  8
0
 62
     0
 10
346.031
 20
15.7827
 30
0.0
 11
345.232
 21
15.7827
 31
0.0
  0
LINE
  8
0
 62
     0
 10
345.232
 20
15.7827
 30
0.0
 11
345.232
 21
16.7831
 31
0.0
  0
LINE
  8
0
 62
     0
 10
345.232
 20
16.7831
 30
0.0
 11
331.232
 21
16.7831
 31
0.0
  0
LINE
  8
0
 62
     0
 10
312.182
 20
16.7831
 30
0.0
 11
312.182
 21
15.7827
 31
0.0
  0
LINE
  8
0
 62
     0
 10
312.182
 20
15.7827
 30
0.0
 11
311.381
 21
15.7827
 31
0.0
  0
LINE
  8
0
 62
     0
 10
311.381
 20
15.7827
 30
0.0
 11
311.381
 21
12.6835
 31
0.0
  0
LINE
  8
0
 62
     0
 10
311.381
 20
12.6835
 30
0.0
 11
312.182
 21
12.6835
 31
0.0
  0
LINE
  8
0
 62
     0
 10
312.182
 20
12.6835
 30
0.0
 11
312.182
 21
6.88329
 31
0.0
  0
LINE
  8
0
 62
     0
 10
312.182
 20
6.88329
 30
0.0
 11
311.381
 21
6.88329
 31
0.0
  0
LINE
  8
0
 62
     0
 10
311.381
 20
6.88329
 30
0.0
 11
311.381
 21
3.78273
 31
0.0
  0
LINE
  8
0
 62
     0
 10
311.381
 20
3.78273
 30
0.0
 11
312.182
 21
3.78273
 31
0.0
  0
LINE
  8
0
 62
     0
 10
312.182
 20
3.78273
 30
0.0
 11
312.182
 21
2.78364
 31
0.0
  0
LINE
  8
0
 62
     0
 10
312.182
 20
2.78364
 30
0.0
 11
326.182
 21
2.78364
 31
0.0
  0
LINE
  8
0
 62
     0
 10
326.182
 20
2.78364
 30
0.0
 11
326.182
 21
3.78273
 31
0.0
  0
LINE
  8
0
 62
     0
 10
326.182
 20
3.78273
 30
0.0
 11
326.981
 21
3.78273
 31
0.0
  0
LINE
  8
0
 62
     0
 10
326.981
 20
3.78273
 30
0.0
 11
326.981
 21
6.88329
 31
0.0
  0
LINE
  8
0
 62
     0
 10
326.981
 20
6.88329
 30
0.0
 11
326.182
 21
6.88329
 31
0.0
  0
LINE
  8
0
 62
     0
 10
326.182
 20
6.88329
 30
0.0
 11
326.182
 21
12.6835
 31
0.0
  0
LINE
  8
0
 62
     0
 10
326.182
 20
12.6835
 30
0.0
 11
326.981
 21
12.6835
 31
0.0
  0
LINE
  8
0
 62
     0
 10
326.981
 20
12.6835
 30
0.0
 11
326.981
 21
15.7827
 31
0.0
  0
LINE
  8
0
 62
     0
 10
326.981
 20
15.7827
 30
0.0
 11
326.182
 21
15.7827
 31
0.0
  0
LINE
  8
0
 62
     0
 10
326.182
 20
15.7827
 30
0.0
 11
326.182
 21
16.7831
 31
0.0
  0
LINE
  8
0
 62
     0
 10
326.182
 20
16.7831
 30
0.0
 11
312.182
 21
16.7831
 31
0.0
  0
LINE
  8
0
 62
     0
 10
293.132
 20
16.7831
 30
0.0
 11
293.132
 21
15.7827
 31
0.0
  0
LINE
  8
0
 62
     0
 10
293.132
 20
15.7827
 30
0.0
 11
292.331
 21
15.7827
 31
0.0
  0
LINE
  8
0
 62
     0
 10
292.331
 20
15.7827
 30
0.0
 11
292.331
 21
12.6835
 31
0.0
  0
LINE
  8
0
 62
     0
 10
292.331
 20
12.6835
 30
0.0
 11
293.132
 21
12.6835
 31
0.0
  0
LINE
  8
0
 62
     0
 10
293.132
 20
12.6835
 30
0.0
 11
293.132
 21
6.88329
 31
0.0
  0
LINE
  8
0
 62
     0
 10
293.132
 20
6.88329
 30
0.0
 11
292.331
 21
6.88329
 31
0.0
  0
LINE
  8
0
 62
     0
 10
292.331
 20
6.88329
 30
0.0
 11
292.331
 21
3.78273
 31
0.0
  0
LINE
  8
0
 62
     0
 10
292.331
 20
3.78273
 30
0.0
 11
293.132
 21
3.78273
 31
0.0
  0
LINE
  8
0
 62
     0
 10
293.132
 20
3.78273
 30
0.0
 11
293.132
 21
2.78364
 31
0.0
  0
LINE
  8
0
 62
     0
 10
293.132
 20
2.78364
 30
0.0
 11
307.132
 21
2.78364
 31
0.0
  0
LINE
  8
0
 62
     0
 10
307.132
 20
2.78364
 30
0.0
 11
307.132
 21
3.78273
 31
0.0
  0
LINE
  8
0
 62
     0
 10
307.132
 20
3.78273
 30
0.0
 11
307.931
 21
3.78273
 31
0.0
  0
LINE
  8
0
 62
     0
 10
307.931
 20
3.78273
 30
0.0
 11
307.931
 21
6.88329
 31
0.0
  0
LINE
  8
0
 62
     0
 10
307.931
 20
6.88329
 30
0.0
 11
307.132
 21
6.88329
 31
0.0
  0
LINE
  8
0
 62
     0
 10
307.132
 20
6.88329
 30
0.0
 11
307.132
 21
12.6835
 31
0.0
  0
LINE
  8
0
 62
     0
 10
307.132
 20
12.6835
 30
0.0
 11
307.931
 21
12.6835
 31
0.0
  0
LINE
  8
0
 62
     0
 10
307.931
 20
12.6835
 30
0.0
 11
307.931
 21
15.7827
 31
0.0
  0
LINE
  8
0
 62
     0
 10
307.931
 20
15.7827
 30
0.0
 11
307.132
 21
15.7827
 31
0.0
  0
LINE
  8
0
 62
     0
 10
307.132
 20
15.7827
 30
0.0
 11
307.132
 21
16.7831
 31
0.0
  0
LINE
  8
0
 62
     0
 10
307.132
 20
16.7831
 30
0.0
 11
293.132
 21
16.7831
 31
0.0
  0
LINE
  8
0
 62
     0
 10
124.062
 20
21.5456
 30
0.0
 11
124.062
 21
20.5466
 31
0.0
  0
LINE
  8
0
 62
     0
 10
124.062
 20
20.5466
 30
0.0
 11
123.263
 21
20.5466
 31
0.0
  0
LINE
  8
0
 62
     0
 10
123.263
 20
20.5466
 30
0.0
 11
123.263
 21
17.446
 31
0.0
  0
LINE
  8
0
 62
     0
 10
123.263
 20
17.446
 30
0.0
 11
124.062
 21
17.446
 31
0.0
  0
LINE
  8
0
 62
     0
 10
124.062
 20
17.446
 30
0.0
 11
124.062
 21
16.8465
 31
0.0
  0
LINE
  8
0
 62
     0
 10
124.062
 20
16.8465
 30
0.0
 11
122.538
 21
16.8465
 31
0.0
  0
LINE
  8
0
 62
     0
 10
122.538
 20
16.8465
 30
0.0
 11
122.538
 21
20.0767
 31
0.0
  0
LINE
  8
0
 62
     0
 10
122.538
 20
20.0767
 30
0.0
 11
120.813
 21
20.0767
 31
0.0
  0
LINE
  8
0
 62
     0
 10
120.813
 20
20.0767
 30
0.0
 11
120.813
 21
20.9958
 31
0.0
  0
LINE
  8
0
 62
     0
 10
120.813
 20
20.9958
 30
0.0
 11
115.131
 21
20.9958
 31
0.0
  0
LINE
  8
0
 62
     0
 10
115.131
 20
20.9958
 30
0.0
 11
115.131
 21
20.0767
 31
0.0
  0
LINE
  8
0
 62
     0
 10
115.131
 20
20.0767
 30
0.0
 11
113.407
 21
20.0767
 31
0.0
  0
LINE
  8
0
 62
     0
 10
113.407
 20
20.0767
 30
0.0
 11
113.407
 21
16.8465
 31
0.0
  0
LINE
  8
0
 62
     0
 10
113.407
 20
16.8465
 30
0.0
 11
112.582
 21
16.8465
 31
0.0
  0
LINE
  8
0
 62
     0
 10
112.582
 20
16.8465
 30
0.0
 11
112.582
 21
14.0463
 31
0.0
  0
LINE
  8
0
 62
     0
 10
112.582
 20
14.0463
 30
0.0
 11
113.407
 21
14.0463
 31
0.0
  0
LINE
  8
0
 62
     0
 10
113.407
 20
14.0463
 30
0.0
 11
113.407
 21
7.77628
 31
0.0
  0
LINE
  8
0
 62
     0
 10
113.407
 20
7.77628
 30
0.0
 11
115.131
 21
7.77628
 31
0.0
  0
LINE
  8
0
 62
     0
 10
115.131
 20
7.77628
 30
0.0
 11
115.131
 21
6.79648
 31
0.0
  0
LINE
  8
0
 62
     0
 10
115.131
 20
6.79648
 30
0.0
 11
120.813
 21
6.79648
 31
0.0
  0
LINE
  8
0
 62
     0
 10
120.813
 20
6.79648
 30
0.0
 11
120.813
 21
7.77628
 31
0.0
  0
LINE
  8
0
 62
     0
 10
120.813
 20
7.77628
 30
0.0
 11
122.538
 21
7.77628
 31
0.0
  0
LINE
  8
0
 62
     0
 10
122.538
 20
7.77628
 30
0.0
 11
122.538
 21
12.2466
 31
0.0
  0
LINE
  8
0
 62
     0
 10
122.538
 20
12.2466
 30
0.0
 11
124.062
 21
12.2466
 31
0.0
  0
LINE
  8
0
 62
     0
 10
124.062
 20
12.2466
 30
0.0
 11
124.062
 21
11.6458
 31
0.0
  0
LINE
  8
0
 62
     0
 10
124.062
 20
11.6458
 30
0.0
 11
123.263
 21
11.6458
 31
0.0
  0
LINE
  8
0
 62
     0
 10
123.263
 20
11.6458
 30
0.0
 11
123.263
 21
8.54661
 31
0.0
  0
LINE
  8
0
 62
     0
 10
123.263
 20
8.54661
 30
0.0
 11
124.062
 21
8.54661
 31
0.0
  0
LINE
  8
0
 62
     0
 10
124.062
 20
8.54661
 30
0.0
 11
124.062
 21
7.54613
 31
0.0
  0
LINE
  8
0
 62
     0
 10
124.062
 20
7.54613
 30
0.0
 11
138.063
 21
7.54613
 31
0.0
  0
LINE
  8
0
 62
     0
 10
138.063
 20
7.54613
 30
0.0
 11
138.063
 21
8.54661
 31
0.0
  0
LINE
  8
0
 62
     0
 10
138.063
 20
8.54661
 30
0.0
 11
138.862
 21
8.54661
 31
0.0
  0
LINE
  8
0
 62
     0
 10
138.862
 20
8.54661
 30
0.0
 11
138.862
 21
11.6458
 31
0.0
  0
LINE
  8
0
 62
     0
 10
138.862
 20
11.6458
 30
0.0
 11
138.063
 21
11.6458
 31
0.0
  0
LINE
  8
0
 62
     0
 10
138.063
 20
11.6458
 30
0.0
 11
138.063
 21
12.2466
 31
0.0
  0
LINE
  8
0
 62
     0
 10
138.063
 20
12.2466
 30
0.0
 11
139.587
 21
12.2466
 31
0.0
  0
LINE
  8
0
 62
     0
 10
139.587
 20
12.2466
 30
0.0
 11
139.587
 21
7.77628
 31
0.0
  0
LINE
  8
0
 62
     0
 10
139.587
 20
7.77628
 30
0.0
 11
141.312
 21
7.77628
 31
0.0
  0
LINE
  8
0
 62
     0
 10
141.312
 20
7.77628
 30
0.0
 11
141.312
 21
6.79648
 31
0.0
  0
LINE
  8
0
 62
     0
 10
141.312
 20
6.79648
 30
0.0
 11
144.613
 21
6.79648
 31
0.0
  0
LINE
  8
0
 62
     0
 10
144.613
 20
6.79648
 30
0.0
 11
144.613
 21
7.77628
 31
0.0
  0
LINE
  8
0
 62
     0
 10
144.613
 20
7.77628
 30
0.0
 11
146.338
 21
7.77628
 31
0.0
  0
LINE
  8
0
 62
     0
 10
146.338
 20
7.77628
 30
0.0
 11
146.338
 21
12.2466
 31
0.0
  0
LINE
  8
0
 62
     0
 10
146.338
 20
12.2466
 30
0.0
 11
159.782
 21
12.2466
 31
0.0
  0
LINE
  8
0
 62
     0
 10
159.782
 20
12.2466
 30
0.0
 11
159.782
 21
11.6458
 31
0.0
  0
LINE
  8
0
 62
     0
 10
159.782
 20
11.6458
 30
0.0
 11
158.981
 21
11.6458
 31
0.0
  0
LINE
  8
0
 62
     0
 10
158.981
 20
11.6458
 30
0.0
 11
158.981
 21
8.54661
 31
0.0
  0
LINE
  8
0
 62
     0
 10
158.981
 20
8.54661
 30
0.0
 11
159.782
 21
8.54661
 31
0.0
  0
LINE
  8
0
 62
     0
 10
159.782
 20
8.54661
 30
0.0
 11
159.782
 21
7.54613
 31
0.0
  0
LINE
  8
0
 62
     0
 10
159.782
 20
7.54613
 30
0.0
 11
173.782
 21
7.54613
 31
0.0
  0
LINE
  8
0
 62
     0
 10
173.782
 20
7.54613
 30
0.0
 11
173.782
 21
8.54661
 31
0.0
  0
LINE
  8
0
 62
     0
 10
173.782
 20
8.54661
 30
0.0
 11
174.581
 21
8.54661
 31
0.0
  0
LINE
  8
0
 62
     0
 10
174.581
 20
8.54661
 30
0.0
 11
174.581
 21
11.6458
 31
0.0
  0
LINE
  8
0
 62
     0
 10
174.581
 20
11.6458
 30
0.0
 11
173.782
 21
11.6458
 31
0.0
  0
LINE
  8
0
 62
     0
 10
173.782
 20
11.6458
 30
0.0
 11
173.782
 21
12.2466
 31
0.0
  0
LINE
  8
0
 62
     0
 10
173.782
 20
12.2466
 30
0.0
 11
187.226
 21
12.2466
 31
0.0
  0
LINE
  8
0
 62
     0
 10
187.226
 20
12.2466
 30
0.0
 11
187.226
 21
7.77628
 31
0.0
  0
LINE
  8
0
 62
     0
 10
187.226
 20
7.77628
 30
0.0
 11
188.951
 21
7.77628
 31
0.0
  0
LINE
  8
0
 62
     0
 10
188.951
 20
7.77628
 30
0.0
 11
188.951
 21
6.79648
 31
0.0
  0
LINE
  8
0
 62
     0
 10
188.951
 20
6.79648
 30
0.0
 11
192.25
 21
6.79648
 31
0.0
  0
LINE
  8
0
 62
     0
 10
192.25
 20
6.79648
 30
0.0
 11
192.25
 21
7.77628
 31
0.0
  0
LINE
  8
0
 62
     0
 10
192.25
 20
7.77628
 30
0.0
 11
193.976
 21
7.77628
 31
0.0
  0
LINE
  8
0
 62
     0
 10
193.976
 20
7.77628
 30
0.0
 11
193.976
 21
12.2466
 31
0.0
  0
LINE
  8
0
 62
     0
 10
193.976
 20
12.2466
 30
0.0
 11
195.501
 21
12.2466
 31
0.0
  0
LINE
  8
0
 62
     0
 10
195.501
 20
12.2466
 30
0.0
 11
195.501
 21
11.6458
 31
0.0
  0
LINE
  8
0
 62
     0
 10
195.501
 20
11.6458
 30
0.0
 11
194.7
 21
11.6458
 31
0.0
  0
LINE
  8
0
 62
     0
 10
194.7
 20
11.6458
 30
0.0
 11
194.7
 21
8.54661
 31
0.0
  0
LINE
  8
0
 62
     0
 10
194.7
 20
8.54661
 30
0.0
 11
195.501
 21
8.54661
 31
0.0
  0
LINE
  8
0
 62
     0
 10
195.501
 20
8.54661
 30
0.0
 11
195.501
 21
7.54613
 31
0.0
  0
LINE
  8
0
 62
     0
 10
195.501
 20
7.54613
 30
0.0
 11
209.5
 21
7.54613
 31
0.0
  0
LINE
  8
0
 62
     0
 10
209.5
 20
7.54613
 30
0.0
 11
209.5
 21
8.54661
 31
0.0
  0
LINE
  8
0
 62
     0
 10
209.5
 20
8.54661
 30
0.0
 11
210.301
 21
8.54661
 31
0.0
  0
LINE
  8
0
 62
     0
 10
210.301
 20
8.54661
 30
0.0
 11
210.301
 21
11.6458
 31
0.0
  0
LINE
  8
0
 62
     0
 10
210.301
 20
11.6458
 30
0.0
 11
209.5
 21
11.6458
 31
0.0
  0
LINE
  8
0
 62
     0
 10
209.5
 20
11.6458
 30
0.0
 11
209.5
 21
12.2466
 31
0.0
  0
LINE
  8
0
 62
     0
 10
209.5
 20
12.2466
 30
0.0
 11
211.026
 21
12.2466
 31
0.0
  0
LINE
  8
0
 62
     0
 10
211.026
 20
12.2466
 30
0.0
 11
211.026
 21
7.77628
 31
0.0
  0
LINE
  8
0
 62
     0
 10
211.026
 20
7.77628
 30
0.0
 11
212.75
 21
7.77628
 31
0.0
  0
LINE
  8
0
 62
     0
 10
212.75
 20
7.77628
 30
0.0
 11
212.75
 21
6.79648
 31
0.0
  0
LINE
  8
0
 62
     0
 10
212.75
 20
6.79648
 30
0.0
 11
218.432
 21
6.79648
 31
0.0
  0
LINE
  8
0
 62
     0
 10
218.432
 20
6.79648
 30
0.0
 11
218.432
 21
7.77628
 31
0.0
  0
LINE
  8
0
 62
     0
 10
218.432
 20
7.77628
 30
0.0
 11
220.157
 21
7.77628
 31
0.0
  0
LINE
  8
0
 62
     0
 10
220.157
 20
7.77628
 30
0.0
 11
220.157
 21
14.0463
 31
0.0
  0
LINE
  8
0
 62
     0
 10
220.157
 20
14.0463
 30
0.0
 11
220.981
 21
14.0463
 31
0.0
  0
LINE
  8
0
 62
     0
 10
220.981
 20
14.0463
 30
0.0
 11
220.981
 21
16.8465
 31
0.0
  0
LINE
  8
0
 62
     0
 10
220.981
 20
16.8465
 30
0.0
 11
220.157
 21
16.8465
 31
0.0
  0
LINE
  8
0
 62
     0
 10
220.157
 20
16.8465
 30
0.0
 11
220.157
 21
20.0767
 31
0.0
  0
LINE
  8
0
 62
     0
 10
220.157
 20
20.0767
 30
0.0
 11
218.432
 21
20.0767
 31
0.0
  0
LINE
  8
0
 62
     0
 10
218.432
 20
20.0767
 30
0.0
 11
218.432
 21
20.9958
 31
0.0
  0
LINE
  8
0
 62
     0
 10
218.432
 20
20.9958
 30
0.0
 11
212.75
 21
20.9958
 31
0.0
  0
LINE
  8
0
 62
     0
 10
212.75
 20
20.9958
 30
0.0
 11
212.75
 21
20.0767
 31
0.0
  0
LINE
  8
0
 62
     0
 10
212.75
 20
20.0767
 30
0.0
 11
211.026
 21
20.0767
 31
0.0
  0
LINE
  8
0
 62
     0
 10
211.026
 20
20.0767
 30
0.0
 11
211.026
 21
16.8465
 31
0.0
  0
LINE
  8
0
 62
     0
 10
211.026
 20
16.8465
 30
0.0
 11
209.5
 21
16.8465
 31
0.0
  0
LINE
  8
0
 62
     0
 10
209.5
 20
16.8465
 30
0.0
 11
209.5
 21
17.446
 31
0.0
  0
LINE
  8
0
 62
     0
 10
209.5
 20
17.446
 30
0.0
 11
210.301
 21
17.446
 31
0.0
  0
LINE
  8
0
 62
     0
 10
210.301
 20
17.446
 30
0.0
 11
210.301
 21
20.5466
 31
0.0
  0
LINE
  8
0
 62
     0
 10
210.301
 20
20.5466
 30
0.0
 11
209.5
 21
20.5466
 31
0.0
  0
LINE
  8
0
 62
     0
 10
209.5
 20
20.5466
 30
0.0
 11
209.5
 21
21.5456
 31
0.0
  0
LINE
  8
0
 62
     0
 10
209.5
 20
21.5456
 30
0.0
 11
195.501
 21
21.5456
 31
0.0
  0
LINE
  8
0
 62
     0
 10
195.501
 20
21.5456
 30
0.0
 11
195.501
 21
20.5466
 31
0.0
  0
LINE
  8
0
 62
     0
 10
195.501
 20
20.5466
 30
0.0
 11
194.7
 21
20.5466
 31
0.0
  0
LINE
  8
0
 62
     0
 10
194.7
 20
20.5466
 30
0.0
 11
194.7
 21
17.446
 31
0.0
  0
LINE
  8
0
 62
     0
 10
194.7
 20
17.446
 30
0.0
 11
195.501
 21
17.446
 31
0.0
  0
LINE
  8
0
 62
     0
 10
195.501
 20
17.446
 30
0.0
 11
195.501
 21
16.8465
 31
0.0
  0
LINE
  8
0
 62
     0
 10
195.501
 20
16.8465
 30
0.0
 11
193.976
 21
16.8465
 31
0.0
  0
LINE
  8
0
 62
     0
 10
193.976
 20
16.8465
 30
0.0
 11
193.976
 21
20.0767
 31
0.0
  0
LINE
  8
0
 62
     0
 10
193.976
 20
20.0767
 30
0.0
 11
192.25
 21
20.0767
 31
0.0
  0
LINE
  8
0
 62
     0
 10
192.25
 20
20.0767
 30
0.0
 11
192.25
 21
20.9958
 31
0.0
  0
LINE
  8
0
 62
     0
 10
192.25
 20
20.9958
 30
0.0
 11
188.951
 21
20.9958
 31
0.0
  0
LINE
  8
0
 62
     0
 10
188.951
 20
20.9958
 30
0.0
 11
188.951
 21
20.0767
 31
0.0
  0
LINE
  8
0
 62
     0
 10
188.951
 20
20.0767
 30
0.0
 11
187.226
 21
20.0767
 31
0.0
  0
LINE
  8
0
 62
     0
 10
187.226
 20
20.0767
 30
0.0
 11
187.226
 21
16.8465
 31
0.0
  0
LINE
  8
0
 62
     0
 10
187.226
 20
16.8465
 30
0.0
 11
173.782
 21
16.8465
 31
0.0
  0
LINE
  8
0
 62
     0
 10
173.782
 20
16.8465
 30
0.0
 11
173.782
 21
17.446
 31
0.0
  0
LINE
  8
0
 62
     0
 10
173.782
 20
17.446
 30
0.0
 11
174.581
 21
17.446
 31
0.0
  0
LINE
  8
0
 62
     0
 10
174.581
 20
17.446
 30
0.0
 11
174.581
 21
20.5466
 31
0.0
  0
LINE
  8
0
 62
     0
 10
174.581
 20
20.5466
 30
0.0
 11
173.782
 21
20.5466
 31
0.0
  0
LINE
  8
0
 62
     0
 10
173.782
 20
20.5466
 30
0.0
 11
173.782
 21
21.5456
 31
0.0
  0
LINE
  8
0
 62
     0
 10
173.782
 20
21.5456
 30
0.0
 11
159.782
 21
21.5456
 31
0.0
  0
LINE
  8
0
 62
     0
 10
159.782
 20
21.5456
 30
0.0
 11
159.782
 21
20.5466
 31
0.0
  0
LINE
  8
0
 62
     0
 10
159.782
 20
20.5466
 30
0.0
 11
158.981
 21
20.5466
 31
0.0
  0
LINE
  8
0
 62
     0
 10
158.981
 20
20.5466
 30
0.0
 11
158.981
 21
17.446
 31
0.0
  0
LINE
  8
0
 62
     0
 10
158.981
 20
17.446
 30
0.0
 11
159.782
 21
17.446
 31
0.0
  0
LINE
  8
0
 62
     0
 10
159.782
 20
17.446
 30
0.0
 11
159.782
 21
16.8465
 31
0.0
  0
LINE
  8
0
 62
     0
 10
159.782
 20
16.8465
 30
0.0
 11
146.338
 21
16.8465
 31
0.0
  0
LINE
  8
0
 62
     0
 10
146.338
 20
16.8465
 30
0.0
 11
146.338
 21
20.0767
 31
0.0
  0
LINE
  8
0
 62
     0
 10
146.338
 20
20.0767
 30
0.0
 11
144.613
 21
20.0767
 31
0.0
  0
LINE
  8
0
 62
     0
 10
144.613
 20
20.0767
 30
0.0
 11
144.613
 21
20.9958
 31
0.0
  0
LINE
  8
0
 62
     0
 10
144.613
 20
20.9958
 30
0.0
 11
141.312
 21
20.9958
 31
0.0
  0
LINE
  8
0
 62
     0
 10
141.312
 20
20.9958
 30
0.0
 11
141.312
 21
20.0767
 31
0.0
  0
LINE
  8
0
 62
     0
 10
141.312
 20
20.0767
 30
0.0
 11
139.587
 21
20.0767
 31
0.0
  0
LINE
  8
0
 62
     0
 10
139.587
 20
20.0767
 30
0.0
 11
139.587
 21
16.8465
 31
0.0
  0
LINE
  8
0
 62
     0
 10
139.587
 20
16.8465
 30
0.0
 11
138.063
 21
16.8465
 31
0.0
  0
LINE
  8
0
 62
     0
 10
138.063
 20
16.8465
 30
0.0
 11
138.063
 21
17.446
 31
0.0
  0
LINE
  8
0
 62
     0
 10
138.063
 20
17.446
 30
0.0
 11
138.862
 21
17.446
 31
0.0
  0
LINE
  8
0
 62
     0
 10
138.862
 20
17.446
 30
0.0
 11
138.862
 21
20.5466
 31
0.0
  0
LINE
  8
0
 62
     0
 10
138.862
 20
20.5466
 30
0.0
 11
138.063
 21
20.5466
 31
0.0
  0
LINE
  8
0
 62
     0
 10
138.063
 20
20.5466
 30
0.0
 11
138.063
 21
21.5456
 31
0.0
  0
LINE
  8
0
 62
     0
 10
138.063
 20
21.5456
 30
0.0
 11
124.062
 21
21.5456
 31
0.0
  0
LINE
  8
0
 62
     0
 10
269.32
 20
21.5456
 30
0.0
 11
269.32
 21
20.5466
 31
0.0
  0
LINE
  8
0
 62
     0
 10
269.32
 20
20.5466
 30
0.0
 11
268.519
 21
20.5466
 31
0.0
  0
LINE
  8
0
 62
     0
 10
268.519
 20
20.5466
 30
0.0
 11
268.519
 21
17.446
 31
0.0
  0
LINE
  8
0
 62
     0
 10
268.519
 20
17.446
 30
0.0
 11
269.32
 21
17.446
 31
0.0
  0
LINE
  8
0
 62
     0
 10
269.32
 20
17.446
 30
0.0
 11
269.32
 21
11.6458
 31
0.0
  0
LINE
  8
0
 62
     0
 10
269.32
 20
11.6458
 30
0.0
 11
268.519
 21
11.6458
 31
0.0
  0
LINE
  8
0
 62
     0
 10
268.519
 20
11.6458
 30
0.0
 11
268.519
 21
8.54661
 31
0.0
  0
LINE
  8
0
 62
     0
 10
268.519
 20
8.54661
 30
0.0
 11
269.32
 21
8.54661
 31
0.0
  0
LINE
  8
0
 62
     0
 10
269.32
 20
8.54661
 30
0.0
 11
269.32
 21
7.54613
 31
0.0
  0
LINE
  8
0
 62
     0
 10
269.32
 20
7.54613
 30
0.0
 11
283.319
 21
7.54613
 31
0.0
  0
LINE
  8
0
 62
     0
 10
283.319
 20
7.54613
 30
0.0
 11
283.319
 21
8.54661
 31
0.0
  0
LINE
  8
0
 62
     0
 10
283.319
 20
8.54661
 30
0.0
 11
284.12
 21
8.54661
 31
0.0
  0
LINE
  8
0
 62
     0
 10
284.12
 20
8.54661
 30
0.0
 11
284.12
 21
11.6458
 31
0.0
  0
LINE
  8
0
 62
     0
 10
284.12
 20
11.6458
 30
0.0
 11
283.319
 21
11.6458
 31
0.0
  0
LINE
  8
0
 62
     0
 10
283.319
 20
11.6458
 30
0.0
 11
283.319
 21
17.446
 31
0.0
  0
LINE
  8
0
 62
     0
 10
283.319
 20
17.446
 30
0.0
 11
284.12
 21
17.446
 31
0.0
  0
LINE
  8
0
 62
     0
 10
284.12
 20
17.446
 30
0.0
 11
284.12
 21
20.5466
 31
0.0
  0
LINE
  8
0
 62
     0
 10
284.12
 20
20.5466
 30
0.0
 11
283.319
 21
20.5466
 31
0.0
  0
LINE
  8
0
 62
     0
 10
283.319
 20
20.5466
 30
0.0
 11
283.319
 21
21.5456
 31
0.0
  0
LINE
  8
0
 62
     0
 10
283.319
 20
21.5456
 30
0.0
 11
269.32
 21
21.5456
 31
0.0
  0
LINE
  8
0
 62
     0
 10
250.27
 20
21.5456
 30
0.0
 11
250.27
 21
20.5466
 31
0.0
  0
LINE
  8
0
 62
     0
 10
250.27
 20
20.5466
 30
0.0
 11
249.469
 21
20.5466
 31
0.0
  0
LINE
  8
0
 62
     0
 10
249.469
 20
20.5466
 30
0.0
 11
249.469
 21
17.446
 31
0.0
  0
LINE
  8
0
 62
     0
 10
249.469
 20
17.446
 30
0.0
 11
250.27
 21
17.446
 31
0.0
  0
LINE
  8
0
 62
     0
 10
250.27
 20
17.446
 30
0.0
 11
250.27
 21
11.6458
 31
0.0
  0
LINE
  8
0
 62
     0
 10
250.27
 20
11.6458
 30
0.0
 11
249.469
 21
11.6458
 31
0.0
  0
LINE
  8
0
 62
     0
 10
249.469
 20
11.6458
 30
0.0
 11
249.469
 21
8.54661
 31
0.0
  0
LINE
  8
0
 62
     0
 10
249.469
 20
8.54661
 30
0.0
 11
250.27
 21
8.54661
 31
0.0
  0
LINE
  8
0
 62
     0
 10
250.27
 20
8.54661
 30
0.0
 11
250.27
 21
7.54613
 31
0.0
  0
LINE
  8
0
 62
     0
 10
250.27
 20
7.54613
 30
0.0
 11
264.269
 21
7.54613
 31
0.0
  0
LINE
  8
0
 62
     0
 10
264.269
 20
7.54613
 30
0.0
 11
264.269
 21
8.54661
 31
0.0
  0
LINE
  8
0
 62
     0
 10
264.269
 20
8.54661
 30
0.0
 11
265.07
 21
8.54661
 31
0.0
  0
LINE
  8
0
 62
     0
 10
265.07
 20
8.54661
 30
0.0
 11
265.07
 21
11.6458
 31
0.0
  0
LINE
  8
0
 62
     0
 10
265.07
 20
11.6458
 30
0.0
 11
264.269
 21
11.6458
 31
0.0
  0
LINE
  8
0
 62
     0
 10
264.269
 20
11.6458
 30
0.0
 11
264.269
 21
17.446
 31
0.0
  0
LINE
  8
0
 62
     0
 10
264.269
 20
17.446
 30
0.0
 11
265.07
 21
17.446
 31
0.0
  0
LINE
  8
0
 62
     0
 10
265.07
 20
17.446
 30
0.0
 11
265.07
 21
20.5466
 31
0.0
  0
LINE
  8
0
 62
     0
 10
265.07
 20
20.5466
 30
0.0
 11
264.269
 21
20.5466
 31
0.0
  0
LINE
  8
0
 62
     0
 10
264.269
 20
20.5466
 30
0.0
 11
264.269
 21
21.5456
 31
0.0
  0
LINE
  8
0
 62
     0
 10
264.269
 20
21.5456
 30
0.0
 11
250.27
 21
21.5456
 31
0.0
  0
LINE
  8
0
 62
     0
 10
231.22
 20
21.5456
 30
0.0
 11
231.22
 21
20.5466
 31
0.0
  0
LINE
  8
0
 62
     0
 10
231.22
 20
20.5466
 30
0.0
 11
230.419
 21
20.5466
 31
0.0
  0
LINE
  8
0
 62
     0
 10
230.419
 20
20.5466
 30
0.0
 11
230.419
 21
17.446
 31
0.0
  0
LINE
  8
0
 62
     0
 10
230.419
 20
17.446
 30
0.0
 11
231.22
 21
17.446
 31
0.0
  0
LINE
  8
0
 62
     0
 10
231.22
 20
17.446
 30
0.0
 11
231.22
 21
11.6458
 31
0.0
  0
LINE
  8
0
 62
     0
 10
231.22
 20
11.6458
 30
0.0
 11
230.419
 21
11.6458
 31
0.0
  0
LINE
  8
0
 62
     0
 10
230.419
 20
11.6458
 30
0.0
 11
230.419
 21
8.54661
 31
0.0
  0
LINE
  8
0
 62
     0
 10
230.419
 20
8.54661
 30
0.0
 11
231.22
 21
8.54661
 31
0.0
  0
LINE
  8
0
 62
     0
 10
231.22
 20
8.54661
 30
0.0
 11
231.22
 21
7.54613
 31
0.0
  0
LINE
  8
0
 62
     0
 10
231.22
 20
7.54613
 30
0.0
 11
245.219
 21
7.54613
 31
0.0
  0
LINE
  8
0
 62
     0
 10
245.219
 20
7.54613
 30
0.0
 11
245.219
 21
8.54661
 31
0.0
  0
LINE
  8
0
 62
     0
 10
245.219
 20
8.54661
 30
0.0
 11
246.02
 21
8.54661
 31
0.0
  0
LINE
  8
0
 62
     0
 10
246.02
 20
8.54661
 30
0.0
 11
246.02
 21
11.6458
 31
0.0
  0
LINE
  8
0
 62
     0
 10
246.02
 20
11.6458
 30
0.0
 11
245.219
 21
11.6458
 31
0.0
  0
LINE
  8
0
 62
     0
 10
245.219
 20
11.6458
 30
0.0
 11
245.219
 21
17.446
 31
0.0
  0
LINE
  8
0
 62
     0
 10
245.219
 20
17.446
 30
0.0
 11
246.02
 21
17.446
 31
0.0
  0
LINE
  8
0
 62
     0
 10
246.02
 20
17.446
 30
0.0
 11
246.02
 21
20.5466
 31
0.0
  0
LINE
  8
0
 62
     0
 10
246.02
 20
20.5466
 30
0.0
 11
245.219
 21
20.5466
 31
0.0
  0
LINE
  8
0
 62
     0
 10
245.219
 20
20.5466
 30
0.0
 11
245.219
 21
21.5456
 31
0.0
  0
LINE
  8
0
 62
     0
 10
245.219
 20
21.5456
 30
0.0
 11
231.22
 21
21.5456
 31
0.0
  0
LINE
  8
0
 62
     0
 10
85.9621
 20
21.5456
 30
0.0
 11
85.9621
 21
20.5466
 31
0.0
  0
LINE
  8
0
 62
     0
 10
85.9621
 20
20.5466
 30
0.0
 11
85.1627
 21
20.5466
 31
0.0
  0
LINE
  8
0
 62
     0
 10
85.1627
 20
20.5466
 30
0.0
 11
85.1627
 21
17.446
 31
0.0
  0
LINE
  8
0
 62
     0
 10
85.1627
 20
17.446
 30
0.0
 11
85.9621
 21
17.446
 31
0.0
  0
LINE
  8
0
 62
     0
 10
85.9621
 20
17.446
 30
0.0
 11
85.9621
 21
11.6458
 31
0.0
  0
LINE
  8
0
 62
     0
 10
85.9621
 20
11.6458
 30
0.0
 11
85.1627
 21
11.6458
 31
0.0
  0
LINE
  8
0
 62
     0
 10
85.1627
 20
11.6458
 30
0.0
 11
85.1627
 21
8.54661
 31
0.0
  0
LINE
  8
0
 62
     0
 10
85.1627
 20
8.54661
 30
0.0
 11
85.9621
 21
8.54661
 31
0.0
  0
LINE
  8
0
 62
     0
 10
85.9621
 20
8.54661
 30
0.0
 11
85.9621
 21
7.54613
 31
0.0
  0
LINE
  8
0
 62
     0
 10
85.9621
 20
7.54613
 30
0.0
 11
99.9628
 21
7.54613
 31
0.0
  0
LINE
  8
0
 62
     0
 10
99.9628
 20
7.54613
 30
0.0
 11
99.9628
 21
8.54661
 31
0.0
  0
LINE
  8
0
 62
     0
 10
99.9628
 20
8.54661
 30
0.0
 11
100.762
 21
8.54661
 31
0.0
  0
LINE
  8
0
 62
     0
 10
100.762
 20
8.54661
 30
0.0
 11
100.762
 21
11.6458
 31
0.0
  0
LINE
  8
0
 62
     0
 10
100.762
 20
11.6458
 30
0.0
 11
99.9628
 21
11.6458
 31
0.0
  0
LINE
  8
0
 62
     0
 10
99.9628
 20
11.6458
 30
0.0
 11
99.9628
 21
17.446
 31
0.0
  0
LINE
  8
0
 62
     0
 10
99.9628
 20
17.446
 30
0.0
 11
100.762
 21
17.446
 31
0.0
  0
LINE
  8
0
 62
     0
 10
100.762
 20
17.446
 30
0.0
 11
100.762
 21
20.5466
 31
0.0
  0
LINE
  8
0
 62
     0
 10
100.762
 20
20.5466
 30
0.0
 11
99.9628
 21
20.5466
 31
0.0
  0
LINE
  8
0
 62
     0
 10
99.9628
 20
20.5466
 30
0.0
 11
99.9628
 21
21.5456
 31
0.0
  0
LINE
  8
0
 62
     0
 10
99.9628
 20
21.5456
 30
0.0
 11
85.9621
 21
21.5456
 31
0.0
  0
LINE
  8
0
 62
     0
 10
62.151
 20
21.5456
 30
0.0
 11
62.151
 21
20.5466
 31
0.0
  0
LINE
  8
0
 62
     0
 10
62.151
 20
20.5466
 30
0.0
 11
61.3502
 21
20.5466
 31
0.0
  0
LINE
  8
0
 62
     0
 10
61.3502
 20
20.5466
 30
0.0
 11
61.3502
 21
17.446
 31
0.0
  0
LINE
  8
0
 62
     0
 10
61.3502
 20
17.446
 30
0.0
 11
62.151
 21
17.446
 31
0.0
  0
LINE
  8
0
 62
     0
 10
62.151
 20
17.446
 30
0.0
 11
62.151
 21
11.6458
 31
0.0
  0
LINE
  8
0
 62
     0
 10
62.151
 20
11.6458
 30
0.0
 11
61.3502
 21
11.6458
 31
0.0
  0
LINE
  8
0
 62
     0
 10
61.3502
 20
11.6458
 30
0.0
 11
61.3502
 21
8.54661
 31
0.0
  0
LINE
  8
0
 62
     0
 10
61.3502
 20
8.54661
 30
0.0
 11
62.151
 21
8.54661
 31
0.0
  0
LINE
  8
0
 62
     0
 10
62.151
 20
8.54661
 30
0.0
 11
62.151
 21
7.54613
 31
0.0
  0
LINE
  8
0
 62
     0
 10
62.151
 20
7.54613
 30
0.0
 11
76.1503
 21
7.54613
 31
0.0
  0
LINE
  8
0
 62
     0
 10
76.1503
 20
7.54613
 30
0.0
 11
76.1503
 21
8.54661
 31
0.0
  0
LINE
  8
0
 62
     0
 10
76.1503
 20
8.54661
 30
0.0
 11
76.9511
 21
8.54661
 31
0.0
  0
LINE
  8
0
 62
     0
 10
76.9511
 20
8.54661
 30
0.0
 11
76.9511
 21
11.6458
 31
0.0
  0
LINE
  8
0
 62
     0
 10
76.9511
 20
11.6458
 30
0.0
 11
76.1503
 21
11.6458
 31
0.0
  0
LINE
  8
0
 62
     0
 10
76.1503
 20
11.6458
 30
0.0
 11
76.1503
 21
17.446
 31
0.0
  0
LINE
  8
0
 62
     0
 10
76.1503
 20
17.446
 30
0.0
 11
76.9511
 21
17.446
 31
0.0
  0
LINE
  8
0
 62
     0
 10
76.9511
 20
17.446
 30
0.0
 11
76.9511
 21
20.5466
 31
0.0
  0
LINE
  8
0
 62
     0
 10
76.9511
 20
20.5466
 30
0.0
 11
76.1503
 21
20.5466
 31
0.0
  0
LINE
  8
0
 62
     0
 10
76.1503
 20
20.5466
 30
0.0
 11
76.1503
 21
21.5456
 31
0.0
  0
LINE
  8
0
 62
     0
 10
76.1503
 20
21.5456
 30
0.0
 11
62.151
 21
21.5456
 31
0.0
  0
LINE
  8
0
 62
     0
 10
38.3371
 20
21.5456
 30
0.0
 11
38.3371
 21
20.5466
 31
0.0
  0
LINE
  8
0
 62
     0
 10
38.3371
 20
20.5466
 30
0.0
 11
37.5377
 21
20.5466
 31
0.0
  0
LINE
  8
0
 62
     0
 10
37.5377
 20
20.5466
 30
0.0
 11
37.5377
 21
17.446
 31
0.0
  0
LINE
  8
0
 62
     0
 10
37.5377
 20
17.446
 30
0.0
 11
38.3371
 21
17.446
 31
0.0
  0
LINE
  8
0
 62
     0
 10
38.3371
 20
17.446
 30
0.0
 11
38.3371
 21
11.6458
 31
0.0
  0
LINE
  8
0
 62
     0
 10
38.3371
 20
11.6458
 30
0.0
 11
37.5377
 21
11.6458
 31
0.0
  0
LINE
  8
0
 62
     0
 10
37.5377
 20
11.6458
 30
0.0
 11
37.5377
 21
8.54661
 31
0.0
  0
LINE
  8
0
 62
     0
 10
37.5377
 20
8.54661
 30
0.0
 11
38.3371
 21
8.54661
 31
0.0
  0
LINE
  8
0
 62
     0
 10
38.3371
 20
8.54661
 30
0.0
 11
38.3371
 21
7.54613
 31
0.0
  0
LINE
  8
0
 62
     0
 10
38.3371
 20
7.54613
 30
0.0
 11
52.3378
 21
7.54613
 31
0.0
  0
LINE
  8
0
 62
     0
 10
52.3378
 20
7.54613
 30
0.0
 11
52.3378
 21
8.54661
 31
0.0
  0
LINE
  8
0
 62
     0
 10
52.3378
 20
8.54661
 30
0.0
 11
53.1372
 21
8.54661
 31
0.0
  0
LINE
  8
0
 62
     0
 10
53.1372
 20
8.54661
 30
0.0
 11
53.1372
 21
11.6458
 31
0.0
  0
LINE
  8
0
 62
     0
 10
53.1372
 20
11.6458
 30
0.0
 11
52.3378
 21
11.6458
 31
0.0
  0
LINE
  8
0
 62
     0
 10
52.3378
 20
11.6458
 30
0.0
 11
52.3378
 21
17.446
 31
0.0
  0
LINE
  8
0
 62
     0
 10
52.3378
 20
17.446
 30
0.0
 11
53.1372
 21
17.446
 31
0.0
  0
LINE
  8
0
 62
     0
 10
53.1372
 20
17.446
 30
0.0
 11
53.1372
 21
20.5466
 31
0.0
  0
LINE
  8
0
 62
     0
 10
53.1372
 20
20.5466
 30
0.0
 11
52.3378
 21
20.5466
 31
0.0
  0
LINE
  8
0
 62
     0
 10
52.3378
 20
20.5466
 30
0.0
 11
52.3378
 21
21.5456
 31
0.0
  0
LINE
  8
0
 62
     0
 10
52.3378
 20
21.5456
 30
0.0
 11
38.3371
 21
21.5456
 31
0.0
  0
LINE
  8
0
 62
     0
 10
312.182
 20
35.833
 30
0.0
 11
312.182
 21
34.8327
 31
0.0
  0
LINE
  8
0
 62
     0
 10
312.182
 20
34.8327
 30
0.0
 11
311.381
 21
34.8327
 31
0.0
  0
LINE
  8
0
 62
     0
 10
311.381
 20
34.8327
 30
0.0
 11
311.381
 21
31.7335
 31
0.0
  0
LINE
  8
0
 62
     0
 10
311.381
 20
31.7335
 30
0.0
 11
312.182
 21
31.7335
 31
0.0
  0
LINE
  8
0
 62
     0
 10
312.182
 20
31.7335
 30
0.0
 11
312.182
 21
25.9333
 31
0.0
  0
LINE
  8
0
 62
     0
 10
312.182
 20
25.9333
 30
0.0
 11
311.381
 21
25.9333
 31
0.0
  0
LINE
  8
0
 62
     0
 10
311.381
 20
25.9333
 30
0.0
 11
311.381
 21
22.8327
 31
0.0
  0
LINE
  8
0
 62
     0
 10
311.381
 20
22.8327
 30
0.0
 11
312.182
 21
22.8327
 31
0.0
  0
LINE
  8
0
 62
     0
 10
312.182
 20
22.8327
 30
0.0
 11
312.182
 21
21.8336
 31
0.0
  0
LINE
  8
0
 62
     0
 10
312.182
 20
21.8336
 30
0.0
 11
326.182
 21
21.8336
 31
0.0
  0
LINE
  8
0
 62
     0
 10
326.182
 20
21.8336
 30
0.0
 11
326.182
 21
22.8327
 31
0.0
  0
LINE
  8
0
 62
     0
 10
326.182
 20
22.8327
 30
0.0
 11
326.981
 21
22.8327
 31
0.0
  0
LINE
  8
0
 62
     0
 10
326.981
 20
22.8327
 30
0.0
 11
326.981
 21
25.9333
 31
0.0
  0
LINE
  8
0
 62
     0
 10
326.981
 20
25.9333
 30
0.0
 11
326.182
 21
25.9333
 31
0.0
  0
LINE
  8
0
 62
     0
 10
326.182
 20
25.9333
 30
0.0
 11
326.182
 21
31.7335
 31
0.0
  0
LINE
  8
0
 62
     0
 10
326.182
 20
31.7335
 30
0.0
 11
326.981
 21
31.7335
 31
0.0
  0
LINE
  8
0
 62
     0
 10
326.981
 20
31.7335
 30
0.0
 11
326.981
 21
34.8327
 31
0.0
  0
LINE
  8
0
 62
     0
 10
326.981
 20
34.8327
 30
0.0
 11
326.182
 21
34.8327
 31
0.0
  0
LINE
  8
0
 62
     0
 10
326.182
 20
34.8327
 30
0.0
 11
326.182
 21
35.833
 31
0.0
  0
LINE
  8
0
 62
     0
 10
326.182
 20
35.833
 30
0.0
 11
312.182
 21
35.833
 31
0.0
  0
LINE
  8
0
 62
     0
 10
278.845
 20
40.5955
 30
0.0
 11
278.845
 21
39.5965
 31
0.0
  0
LINE
  8
0
 62
     0
 10
278.845
 20
39.5965
 30
0.0
 11
278.044
 21
39.5965
 31
0.0
  0
LINE
  8
0
 62
     0
 10
278.044
 20
39.5965
 30
0.0
 11
278.044
 21
36.4959
 31
0.0
  0
LINE
  8
0
 62
     0
 10
278.044
 20
36.4959
 30
0.0
 11
278.845
 21
36.4959
 31
0.0
  0
LINE
  8
0
 62
     0
 10
278.845
 20
36.4959
 30
0.0
 11
278.845
 21
35.8965
 31
0.0
  0
LINE
  8
0
 62
     0
 10
278.845
 20
35.8965
 30
0.0
 11
277.319
 21
35.8965
 31
0.0
  0
LINE
  8
0
 62
     0
 10
277.319
 20
35.8965
 30
0.0
 11
277.319
 21
39.1266
 31
0.0
  0
LINE
  8
0
 62
     0
 10
277.319
 20
39.1266
 30
0.0
 11
275.594
 21
39.1266
 31
0.0
  0
LINE
  8
0
 62
     0
 10
275.594
 20
39.1266
 30
0.0
 11
275.594
 21
40.0459
 31
0.0
  0
LINE
  8
0
 62
     0
 10
275.594
 20
40.0459
 30
0.0
 11
272.295
 21
40.0459
 31
0.0
  0
LINE
  8
0
 62
     0
 10
272.295
 20
40.0459
 30
0.0
 11
272.295
 21
39.1266
 31
0.0
  0
LINE
  8
0
 62
     0
 10
272.295
 20
39.1266
 30
0.0
 11
270.57
 21
39.1266
 31
0.0
  0
LINE
  8
0
 62
     0
 10
270.57
 20
39.1266
 30
0.0
 11
270.57
 21
35.8965
 31
0.0
  0
LINE
  8
0
 62
     0
 10
270.57
 20
35.8965
 30
0.0
 11
269.744
 21
35.8965
 31
0.0
  0
LINE
  8
0
 62
     0
 10
269.744
 20
35.8965
 30
0.0
 11
269.744
 21
33.0963
 31
0.0
  0
LINE
  8
0
 62
     0
 10
269.744
 20
33.0963
 30
0.0
 11
270.57
 21
33.0963
 31
0.0
  0
LINE
  8
0
 62
     0
 10
270.57
 20
33.0963
 30
0.0
 11
270.57
 21
26.8263
 31
0.0
  0
LINE
  8
0
 62
     0
 10
270.57
 20
26.8263
 30
0.0
 11
272.295
 21
26.8263
 31
0.0
  0
LINE
  8
0
 62
     0
 10
272.295
 20
26.8263
 30
0.0
 11
272.295
 21
25.8465
 31
0.0
  0
LINE
  8
0
 62
     0
 10
272.295
 20
25.8465
 30
0.0
 11
275.594
 21
25.8465
 31
0.0
  0
LINE
  8
0
 62
     0
 10
275.594
 20
25.8465
 30
0.0
 11
275.594
 21
26.8263
 31
0.0
  0
LINE
  8
0
 62
     0
 10
275.594
 20
26.8263
 30
0.0
 11
277.319
 21
26.8263
 31
0.0
  0
LINE
  8
0
 62
     0
 10
277.319
 20
26.8263
 30
0.0
 11
277.319
 21
31.2966
 31
0.0
  0
LINE
  8
0
 62
     0
 10
277.319
 20
31.2966
 30
0.0
 11
278.845
 21
31.2966
 31
0.0
  0
LINE
  8
0
 62
     0
 10
278.845
 20
31.2966
 30
0.0
 11
278.845
 21
30.6958
 31
0.0
  0
LINE
  8
0
 62
     0
 10
278.845
 20
30.6958
 30
0.0
 11
278.044
 21
30.6958
 31
0.0
  0
LINE
  8
0
 62
     0
 10
278.044
 20
30.6958
 30
0.0
 11
278.044
 21
27.5966
 31
0.0
  0
LINE
  8
0
 62
     0
 10
278.044
 20
27.5966
 30
0.0
 11
278.845
 21
27.5966
 31
0.0
  0
LINE
  8
0
 62
     0
 10
278.845
 20
27.5966
 30
0.0
 11
278.845
 21
26.5961
 31
0.0
  0
LINE
  8
0
 62
     0
 10
278.845
 20
26.5961
 30
0.0
 11
292.844
 21
26.5961
 31
0.0
  0
LINE
  8
0
 62
     0
 10
292.844
 20
26.5961
 30
0.0
 11
292.844
 21
27.5966
 31
0.0
  0
LINE
  8
0
 62
     0
 10
292.844
 20
27.5966
 30
0.0
 11
293.645
 21
27.5966
 31
0.0
  0
LINE
  8
0
 62
     0
 10
293.645
 20
27.5966
 30
0.0
 11
293.645
 21
30.6958
 31
0.0
  0
LINE
  8
0
 62
     0
 10
293.645
 20
30.6958
 30
0.0
 11
292.844
 21
30.6958
 31
0.0
  0
LINE
  8
0
 62
     0
 10
292.844
 20
30.6958
 30
0.0
 11
292.844
 21
31.2966
 31
0.0
  0
LINE
  8
0
 62
     0
 10
292.844
 20
31.2966
 30
0.0
 11
294.37
 21
31.2966
 31
0.0
  0
LINE
  8
0
 62
     0
 10
294.37
 20
31.2966
 30
0.0
 11
294.37
 21
26.8263
 31
0.0
  0
LINE
  8
0
 62
     0
 10
294.37
 20
26.8263
 30
0.0
 11
296.095
 21
26.8263
 31
0.0
  0
LINE
  8
0
 62
     0
 10
296.095
 20
26.8263
 30
0.0
 11
296.095
 21
25.8465
 31
0.0
  0
LINE
  8
0
 62
     0
 10
296.095
 20
25.8465
 30
0.0
 11
299.394
 21
25.8465
 31
0.0
  0
LINE
  8
0
 62
     0
 10
299.394
 20
25.8465
 30
0.0
 11
299.394
 21
26.8263
 31
0.0
  0
LINE
  8
0
 62
     0
 10
299.394
 20
26.8263
 30
0.0
 11
301.119
 21
26.8263
 31
0.0
  0
LINE
  8
0
 62
     0
 10
301.119
 20
26.8263
 30
0.0
 11
301.119
 21
33.0963
 31
0.0
  0
LINE
  8
0
 62
     0
 10
301.119
 20
33.0963
 30
0.0
 11
301.945
 21
33.0963
 31
0.0
  0
LINE
  8
0
 62
     0
 10
301.945
 20
33.0963
 30
0.0
 11
301.945
 21
35.8965
 31
0.0
  0
LINE
  8
0
 62
     0
 10
301.945
 20
35.8965
 30
0.0
 11
301.119
 21
35.8965
 31
0.0
  0
LINE
  8
0
 62
     0
 10
301.119
 20
35.8965
 30
0.0
 11
301.119
 21
39.1266
 31
0.0
  0
LINE
  8
0
 62
     0
 10
301.119
 20
39.1266
 30
0.0
 11
299.394
 21
39.1266
 31
0.0
  0
LINE
  8
0
 62
     0
 10
299.394
 20
39.1266
 30
0.0
 11
299.394
 21
40.0459
 31
0.0
  0
LINE
  8
0
 62
     0
 10
299.394
 20
40.0459
 30
0.0
 11
296.095
 21
40.0459
 31
0.0
  0
LINE
  8
0
 62
     0
 10
296.095
 20
40.0459
 30
0.0
 11
296.095
 21
39.1266
 31
0.0
  0
LINE
  8
0
 62
     0
 10
296.095
 20
39.1266
 30
0.0
 11
294.37
 21
39.1266
 31
0.0
  0
LINE
  8
0
 62
     0
 10
294.37
 20
39.1266
 30
0.0
 11
294.37
 21
35.8965
 31
0.0
  0
LINE
  8
0
 62
     0
 10
294.37
 20
35.8965
 30
0.0
 11
292.844
 21
35.8965
 31
0.0
  0
LINE
  8
0
 62
     0
 10
292.844
 20
35.8965
 30
0.0
 11
292.844
 21
36.4959
 31
0.0
  0
LINE
  8
0
 62
     0
 10
292.844
 20
36.4959
 30
0.0
 11
293.645
 21
36.4959
 31
0.0
  0
LINE
  8
0
 62
     0
 10
293.645
 20
36.4959
 30
0.0
 11
293.645
 21
39.5965
 31
0.0
  0
LINE
  8
0
 62
     0
 10
293.645
 20
39.5965
 30
0.0
 11
292.844
 21
39.5965
 31
0.0
  0
LINE
  8
0
 62
     0
 10
292.844
 20
39.5965
 30
0.0
 11
292.844
 21
40.5955
 31
0.0
  0
LINE
  8
0
 62
     0
 10
292.844
 20
40.5955
 30
0.0
 11
278.845
 21
40.5955
 31
0.0
  0
LINE
  8
0
 62
     0
 10
47.8621
 20
40.5955
 30
0.0
 11
47.8621
 21
39.5965
 31
0.0
  0
LINE
  8
0
 62
     0
 10
47.8621
 20
39.5965
 30
0.0
 11
47.0627
 21
39.5965
 31
0.0
  0
LINE
  8
0
 62
     0
 10
47.0627
 20
39.5965
 30
0.0
 11
47.0627
 21
36.4959
 31
0.0
  0
LINE
  8
0
 62
     0
 10
47.0627
 20
36.4959
 30
0.0
 11
47.8621
 21
36.4959
 31
0.0
  0
LINE
  8
0
 62
     0
 10
47.8621
 20
36.4959
 30
0.0
 11
47.8621
 21
35.8965
 31
0.0
  0
LINE
  8
0
 62
     0
 10
47.8621
 20
35.8965
 30
0.0
 11
46.3381
 21
35.8965
 31
0.0
  0
LINE
  8
0
 62
     0
 10
46.3381
 20
35.8965
 30
0.0
 11
46.3381
 21
39.1266
 31
0.0
  0
LINE
  8
0
 62
     0
 10
46.3381
 20
39.1266
 30
0.0
 11
44.6126
 21
39.1266
 31
0.0
  0
LINE
  8
0
 62
     0
 10
44.6126
 20
39.1266
 30
0.0
 11
44.6126
 21
40.0459
 31
0.0
  0
LINE
  8
0
 62
     0
 10
44.6126
 20
40.0459
 30
0.0
 11
41.312
 21
40.0459
 31
0.0
  0
LINE
  8
0
 62
     0
 10
41.312
 20
40.0459
 30
0.0
 11
41.312
 21
39.1266
 31
0.0
  0
LINE
  8
0
 62
     0
 10
41.312
 20
39.1266
 30
0.0
 11
39.587
 21
39.1266
 31
0.0
  0
LINE
  8
0
 62
     0
 10
39.587
 20
39.1266
 30
0.0
 11
39.587
 21
35.8965
 31
0.0
  0
LINE
  8
0
 62
     0
 10
39.587
 20
35.8965
 30
0.0
 11
38.7629
 21
35.8965
 31
0.0
  0
LINE
  8
0
 62
     0
 10
38.7629
 20
35.8965
 30
0.0
 11
38.7629
 21
33.0963
 31
0.0
  0
LINE
  8
0
 62
     0
 10
38.7629
 20
33.0963
 30
0.0
 11
39.587
 21
33.0963
 31
0.0
  0
LINE
  8
0
 62
     0
 10
39.587
 20
33.0963
 30
0.0
 11
39.587
 21
26.8263
 31
0.0
  0
LINE
  8
0
 62
     0
 10
39.587
 20
26.8263
 30
0.0
 11
41.312
 21
26.8263
 31
0.0
  0
LINE
  8
0
 62
     0
 10
41.312
 20
26.8263
 30
0.0
 11
41.312
 21
25.8465
 31
0.0
  0
LINE
  8
0
 62
     0
 10
41.312
 20
25.8465
 30
0.0
 11
44.6126
 21
25.8465
 31
0.0
  0
LINE
  8
0
 62
     0
 10
44.6126
 20
25.8465
 30
0.0
 11
44.6126
 21
26.8263
 31
0.0
  0
LINE
  8
0
 62
     0
 10
44.6126
 20
26.8263
 30
0.0
 11
46.3381
 21
26.8263
 31
0.0
  0
LINE
  8
0
 62
     0
 10
46.3381
 20
26.8263
 30
0.0
 11
46.3381
 21
31.2966
 31
0.0
  0
LINE
  8
0
 62
     0
 10
46.3381
 20
31.2966
 30
0.0
 11
47.8621
 21
31.2966
 31
0.0
  0
LINE
  8
0
 62
     0
 10
47.8621
 20
31.2966
 30
0.0
 11
47.8621
 21
30.6958
 31
0.0
  0
LINE
  8
0
 62
     0
 10
47.8621
 20
30.6958
 30
0.0
 11
47.0627
 21
30.6958
 31
0.0
  0
LINE
  8
0
 62
     0
 10
47.0627
 20
30.6958
 30
0.0
 11
47.0627
 21
27.5966
 31
0.0
  0
LINE
  8
0
 62
     0
 10
47.0627
 20
27.5966
 30
0.0
 11
47.8621
 21
27.5966
 31
0.0
  0
LINE
  8
0
 62
     0
 10
47.8621
 20
27.5966
 30
0.0
 11
47.8621
 21
26.5961
 31
0.0
  0
LINE
  8
0
 62
     0
 10
47.8621
 20
26.5961
 30
0.0
 11
61.8628
 21
26.5961
 31
0.0
  0
LINE
  8
0
 62
     0
 10
61.8628
 20
26.5961
 30
0.0
 11
61.8628
 21
27.5966
 31
0.0
  0
LINE
  8
0
 62
     0
 10
61.8628
 20
27.5966
 30
0.0
 11
62.6622
 21
27.5966
 31
0.0
  0
LINE
  8
0
 62
     0
 10
62.6622
 20
27.5966
 30
0.0
 11
62.6622
 21
30.6958
 31
0.0
  0
LINE
  8
0
 62
     0
 10
62.6622
 20
30.6958
 30
0.0
 11
61.8628
 21
30.6958
 31
0.0
  0
LINE
  8
0
 62
     0
 10
61.8628
 20
30.6958
 30
0.0
 11
61.8628
 21
31.2966
 31
0.0
  0
LINE
  8
0
 62
     0
 10
61.8628
 20
31.2966
 30
0.0
 11
63.3871
 21
31.2966
 31
0.0
  0
LINE
  8
0
 62
     0
 10
63.3871
 20
31.2966
 30
0.0
 11
63.3871
 21
26.8263
 31
0.0
  0
LINE
  8
0
 62
     0
 10
63.3871
 20
26.8263
 30
0.0
 11
65.1122
 21
26.8263
 31
0.0
  0
LINE
  8
0
 62
     0
 10
65.1122
 20
26.8263
 30
0.0
 11
65.1122
 21
25.8465
 31
0.0
  0
LINE
  8
0
 62
     0
 10
65.1122
 20
25.8465
 30
0.0
 11
68.4128
 21
25.8465
 31
0.0
  0
LINE
  8
0
 62
     0
 10
68.4128
 20
25.8465
 30
0.0
 11
68.4128
 21
26.8263
 31
0.0
  0
LINE
  8
0
 62
     0
 10
68.4128
 20
26.8263
 30
0.0
 11
70.1379
 21
26.8263
 31
0.0
  0
LINE
  8
0
 62
     0
 10
70.1379
 20
26.8263
 30
0.0
 11
70.1379
 21
33.0963
 31
0.0
  0
LINE
  8
0
 62
     0
 10
70.1379
 20
33.0963
 30
0.0
 11
70.962
 21
33.0963
 31
0.0
  0
LINE
  8
0
 62
     0
 10
70.962
 20
33.0963
 30
0.0
 11
70.962
 21
35.8965
 31
0.0
  0
LINE
  8
0
 62
     0
 10
70.962
 20
35.8965
 30
0.0
 11
70.1379
 21
35.8965
 31
0.0
  0
LINE
  8
0
 62
     0
 10
70.1379
 20
35.8965
 30
0.0
 11
70.1379
 21
39.1266
 31
0.0
  0
LINE
  8
0
 62
     0
 10
70.1379
 20
39.1266
 30
0.0
 11
68.4128
 21
39.1266
 31
0.0
  0
LINE
  8
0
 62
     0
 10
68.4128
 20
39.1266
 30
0.0
 11
68.4128
 21
40.0459
 31
0.0
  0
LINE
  8
0
 62
     0
 10
68.4128
 20
40.0459
 30
0.0
 11
65.1122
 21
40.0459
 31
0.0
  0
LINE
  8
0
 62
     0
 10
65.1122
 20
40.0459
 30
0.0
 11
65.1122
 21
39.1266
 31
0.0
  0
LINE
  8
0
 62
     0
 10
65.1122
 20
39.1266
 30
0.0
 11
63.3871
 21
39.1266
 31
0.0
  0
LINE
  8
0
 62
     0
 10
63.3871
 20
39.1266
 30
0.0
 11
63.3871
 21
35.8965
 31
0.0
  0
LINE
  8
0
 62
     0
 10
63.3871
 20
35.8965
 30
0.0
 11
61.8628
 21
35.8965
 31
0.0
  0
LINE
  8
0
 62
     0
 10
61.8628
 20
35.8965
 30
0.0
 11
61.8628
 21
36.4959
 31
0.0
  0
LINE
  8
0
 62
     0
 10
61.8628
 20
36.4959
 30
0.0
 11
62.6622
 21
36.4959
 31
0.0
  0
LINE
  8
0
 62
     0
 10
62.6622
 20
36.4959
 30
0.0
 11
62.6622
 21
39.5965
 31
0.0
  0
LINE
  8
0
 62
     0
 10
62.6622
 20
39.5965
 30
0.0
 11
61.8628
 21
39.5965
 31
0.0
  0
LINE
  8
0
 62
     0
 10
61.8628
 20
39.5965
 30
0.0
 11
61.8628
 21
40.5955
 31
0.0
  0
LINE
  8
0
 62
     0
 10
61.8628
 20
40.5955
 30
0.0
 11
47.8621
 21
40.5955
 31
0.0
  0
LINE
  8
0
 62
     0
 10
335.995
 20
40.5955
 30
0.0
 11
335.995
 21
39.5965
 31
0.0
  0
LINE
  8
0
 62
     0
 10
335.995
 20
39.5965
 30
0.0
 11
335.194
 21
39.5965
 31
0.0
  0
LINE
  8
0
 62
     0
 10
335.194
 20
39.5965
 30
0.0
 11
335.194
 21
36.4959
 31
0.0
  0
LINE
  8
0
 62
     0
 10
335.194
 20
36.4959
 30
0.0
 11
335.995
 21
36.4959
 31
0.0
  0
LINE
  8
0
 62
     0
 10
335.995
 20
36.4959
 30
0.0
 11
335.995
 21
30.6958
 31
0.0
  0
LINE
  8
0
 62
     0
 10
335.995
 20
30.6958
 30
0.0
 11
335.194
 21
30.6958
 31
0.0
  0
LINE
  8
0
 62
     0
 10
335.194
 20
30.6958
 30
0.0
 11
335.194
 21
27.5966
 31
0.0
  0
LINE
  8
0
 62
     0
 10
335.194
 20
27.5966
 30
0.0
 11
335.995
 21
27.5966
 31
0.0
  0
LINE
  8
0
 62
     0
 10
335.995
 20
27.5966
 30
0.0
 11
335.995
 21
26.5961
 31
0.0
  0
LINE
  8
0
 62
     0
 10
335.995
 20
26.5961
 30
0.0
 11
349.994
 21
26.5961
 31
0.0
  0
LINE
  8
0
 62
     0
 10
349.994
 20
26.5961
 30
0.0
 11
349.994
 21
27.5966
 31
0.0
  0
LINE
  8
0
 62
     0
 10
349.994
 20
27.5966
 30
0.0
 11
350.795
 21
27.5966
 31
0.0
  0
LINE
  8
0
 62
     0
 10
350.795
 20
27.5966
 30
0.0
 11
350.795
 21
30.6958
 31
0.0
  0
LINE
  8
0
 62
     0
 10
350.795
 20
30.6958
 30
0.0
 11
349.994
 21
30.6958
 31
0.0
  0
LINE
  8
0
 62
     0
 10
349.994
 20
30.6958
 30
0.0
 11
349.994
 21
36.4959
 31
0.0
  0
LINE
  8
0
 62
     0
 10
349.994
 20
36.4959
 30
0.0
 11
350.795
 21
36.4959
 31
0.0
  0
LINE
  8
0
 62
     0
 10
350.795
 20
36.4959
 30
0.0
 11
350.795
 21
39.5965
 31
0.0
  0
LINE
  8
0
 62
     0
 10
350.795
 20
39.5965
 30
0.0
 11
349.994
 21
39.5965
 31
0.0
  0
LINE
  8
0
 62
     0
 10
349.994
 20
39.5965
 30
0.0
 11
349.994
 21
40.5955
 31
0.0
  0
LINE
  8
0
 62
     0
 10
349.994
 20
40.5955
 30
0.0
 11
335.995
 21
40.5955
 31
0.0
  0
LINE
  8
0
 62
     0
 10
250.27
 20
40.5955
 30
0.0
 11
250.27
 21
39.5965
 31
0.0
  0
LINE
  8
0
 62
     0
 10
250.27
 20
39.5965
 30
0.0
 11
249.469
 21
39.5965
 31
0.0
  0
LINE
  8
0
 62
     0
 10
249.469
 20
39.5965
 30
0.0
 11
249.469
 21
36.4959
 31
0.0
  0
LINE
  8
0
 62
     0
 10
249.469
 20
36.4959
 30
0.0
 11
250.27
 21
36.4959
 31
0.0
  0
LINE
  8
0
 62
     0
 10
250.27
 20
36.4959
 30
0.0
 11
250.27
 21
30.6958
 31
0.0
  0
LINE
  8
0
 62
     0
 10
250.27
 20
30.6958
 30
0.0
 11
249.469
 21
30.6958
 31
0.0
  0
LINE
  8
0
 62
     0
 10
249.469
 20
30.6958
 30
0.0
 11
249.469
 21
27.5966
 31
0.0
  0
LINE
  8
0
 62
     0
 10
249.469
 20
27.5966
 30
0.0
 11
250.27
 21
27.5966
 31
0.0
  0
LINE
  8
0
 62
     0
 10
250.27
 20
27.5966
 30
0.0
 11
250.27
 21
26.5961
 31
0.0
  0
LINE
  8
0
 62
     0
 10
250.27
 20
26.5961
 30
0.0
 11
264.269
 21
26.5961
 31
0.0
  0
LINE
  8
0
 62
     0
 10
264.269
 20
26.5961
 30
0.0
 11
264.269
 21
27.5966
 31
0.0
  0
LINE
  8
0
 62
     0
 10
264.269
 20
27.5966
 30
0.0
 11
265.07
 21
27.5966
 31
0.0
  0
LINE
  8
0
 62
     0
 10
265.07
 20
27.5966
 30
0.0
 11
265.07
 21
30.6958
 31
0.0
  0
LINE
  8
0
 62
     0
 10
265.07
 20
30.6958
 30
0.0
 11
264.269
 21
30.6958
 31
0.0
  0
LINE
  8
0
 62
     0
 10
264.269
 20
30.6958
 30
0.0
 11
264.269
 21
36.4959
 31
0.0
  0
LINE
  8
0
 62
     0
 10
264.269
 20
36.4959
 30
0.0
 11
265.07
 21
36.4959
 31
0.0
  0
LINE
  8
0
 62
     0
 10
265.07
 20
36.4959
 30
0.0
 11
265.07
 21
39.5965
 31
0.0
  0
LINE
  8
0
 62
     0
 10
265.07
 20
39.5965
 30
0.0
 11
264.269
 21
39.5965
 31
0.0
  0
LINE
  8
0
 62
     0
 10
264.269
 20
39.5965
 30
0.0
 11
264.269
 21
40.5955
 31
0.0
  0
LINE
  8
0
 62
     0
 10
264.269
 20
40.5955
 30
0.0
 11
250.27
 21
40.5955
 31
0.0
  0
LINE
  8
0
 62
     0
 10
231.22
 20
40.5955
 30
0.0
 11
231.22
 21
39.5965
 31
0.0
  0
LINE
  8
0
 62
     0
 10
231.22
 20
39.5965
 30
0.0
 11
230.419
 21
39.5965
 31
0.0
  0
LINE
  8
0
 62
     0
 10
230.419
 20
39.5965
 30
0.0
 11
230.419
 21
36.4959
 31
0.0
  0
LINE
  8
0
 62
     0
 10
230.419
 20
36.4959
 30
0.0
 11
231.22
 21
36.4959
 31
0.0
  0
LINE
  8
0
 62
     0
 10
231.22
 20
36.4959
 30
0.0
 11
231.22
 21
30.6958
 31
0.0
  0
LINE
  8
0
 62
     0
 10
231.22
 20
30.6958
 30
0.0
 11
230.419
 21
30.6958
 31
0.0
  0
LINE
  8
0
 62
     0
 10
230.419
 20
30.6958
 30
0.0
 11
230.419
 21
27.5966
 31
0.0
  0
LINE
  8
0
 62
     0
 10
230.419
 20
27.5966
 30
0.0
 11
231.22
 21
27.5966
 31
0.0
  0
LINE
  8
0
 62
     0
 10
231.22
 20
27.5966
 30
0.0
 11
231.22
 21
26.5961
 31
0.0
  0
LINE
  8
0
 62
     0
 10
231.22
 20
26.5961
 30
0.0
 11
245.219
 21
26.5961
 31
0.0
  0
LINE
  8
0
 62
     0
 10
245.219
 20
26.5961
 30
0.0
 11
245.219
 21
27.5966
 31
0.0
  0
LINE
  8
0
 62
     0
 10
245.219
 20
27.5966
 30
0.0
 11
246.02
 21
27.5966
 31
0.0
  0
LINE
  8
0
 62
     0
 10
246.02
 20
27.5966
 30
0.0
 11
246.02
 21
30.6958
 31
0.0
  0
LINE
  8
0
 62
     0
 10
246.02
 20
30.6958
 30
0.0
 11
245.219
 21
30.6958
 31
0.0
  0
LINE
  8
0
 62
     0
 10
245.219
 20
30.6958
 30
0.0
 11
245.219
 21
36.4959
 31
0.0
  0
LINE
  8
0
 62
     0
 10
245.219
 20
36.4959
 30
0.0
 11
246.02
 21
36.4959
 31
0.0
  0
LINE
  8
0
 62
     0
 10
246.02
 20
36.4959
 30
0.0
 11
246.02
 21
39.5965
 31
0.0
  0
LINE
  8
0
 62
     0
 10
246.02
 20
39.5965
 30
0.0
 11
245.219
 21
39.5965
 31
0.0
  0
LINE
  8
0
 62
     0
 10
245.219
 20
39.5965
 30
0.0
 11
245.219
 21
40.5955
 31
0.0
  0
LINE
  8
0
 62
     0
 10
245.219
 20
40.5955
 30
0.0
 11
231.22
 21
40.5955
 31
0.0
  0
LINE
  8
0
 62
     0
 10
212.17
 20
40.5955
 30
0.0
 11
212.17
 21
39.5965
 31
0.0
  0
LINE
  8
0
 62
     0
 10
212.17
 20
39.5965
 30
0.0
 11
211.369
 21
39.5965
 31
0.0
  0
LINE
  8
0
 62
     0
 10
211.369
 20
39.5965
 30
0.0
 11
211.369
 21
36.4959
 31
0.0
  0
LINE
  8
0
 62
     0
 10
211.369
 20
36.4959
 30
0.0
 11
212.17
 21
36.4959
 31
0.0
  0
LINE
  8
0
 62
     0
 10
212.17
 20
36.4959
 30
0.0
 11
212.17
 21
30.6958
 31
0.0
  0
LINE
  8
0
 62
     0
 10
212.17
 20
30.6958
 30
0.0
 11
211.369
 21
30.6958
 31
0.0
  0
LINE
  8
0
 62
     0
 10
211.369
 20
30.6958
 30
0.0
 11
211.369
 21
27.5966
 31
0.0
  0
LINE
  8
0
 62
     0
 10
211.369
 20
27.5966
 30
0.0
 11
212.17
 21
27.5966
 31
0.0
  0
LINE
  8
0
 62
     0
 10
212.17
 20
27.5966
 30
0.0
 11
212.17
 21
26.5961
 31
0.0
  0
LINE
  8
0
 62
     0
 10
212.17
 20
26.5961
 30
0.0
 11
226.169
 21
26.5961
 31
0.0
  0
LINE
  8
0
 62
     0
 10
226.169
 20
26.5961
 30
0.0
 11
226.169
 21
27.5966
 31
0.0
  0
LINE
  8
0
 62
     0
 10
226.169
 20
27.5966
 30
0.0
 11
226.97
 21
27.5966
 31
0.0
  0
LINE
  8
0
 62
     0
 10
226.97
 20
27.5966
 30
0.0
 11
226.97
 21
30.6958
 31
0.0
  0
LINE
  8
0
 62
     0
 10
226.97
 20
30.6958
 30
0.0
 11
226.169
 21
30.6958
 31
0.0
  0
LINE
  8
0
 62
     0
 10
226.169
 20
30.6958
 30
0.0
 11
226.169
 21
36.4959
 31
0.0
  0
LINE
  8
0
 62
     0
 10
226.169
 20
36.4959
 30
0.0
 11
226.97
 21
36.4959
 31
0.0
  0
LINE
  8
0
 62
     0
 10
226.97
 20
36.4959
 30
0.0
 11
226.97
 21
39.5965
 31
0.0
  0
LINE
  8
0
 62
     0
 10
226.97
 20
39.5965
 30
0.0
 11
226.169
 21
39.5965
 31
0.0
  0
LINE
  8
0
 62
     0
 10
226.169
 20
39.5965
 30
0.0
 11
226.169
 21
40.5955
 31
0.0
  0
LINE
  8
0
 62
     0
 10
226.169
 20
40.5955
 30
0.0
 11
212.17
 21
40.5955
 31
0.0
  0
LINE
  8
0
 62
     0
 10
193.12
 20
40.5955
 30
0.0
 11
193.12
 21
39.5965
 31
0.0
  0
LINE
  8
0
 62
     0
 10
193.12
 20
39.5965
 30
0.0
 11
192.319
 21
39.5965
 31
0.0
  0
LINE
  8
0
 62
     0
 10
192.319
 20
39.5965
 30
0.0
 11
192.319
 21
36.4959
 31
0.0
  0
LINE
  8
0
 62
     0
 10
192.319
 20
36.4959
 30
0.0
 11
193.12
 21
36.4959
 31
0.0
  0
LINE
  8
0
 62
     0
 10
193.12
 20
36.4959
 30
0.0
 11
193.12
 21
30.6958
 31
0.0
  0
LINE
  8
0
 62
     0
 10
193.12
 20
30.6958
 30
0.0
 11
192.319
 21
30.6958
 31
0.0
  0
LINE
  8
0
 62
     0
 10
192.319
 20
30.6958
 30
0.0
 11
192.319
 21
27.5966
 31
0.0
  0
LINE
  8
0
 62
     0
 10
192.319
 20
27.5966
 30
0.0
 11
193.12
 21
27.5966
 31
0.0
  0
LINE
  8
0
 62
     0
 10
193.12
 20
27.5966
 30
0.0
 11
193.12
 21
26.5961
 31
0.0
  0
LINE
  8
0
 62
     0
 10
193.12
 20
26.5961
 30
0.0
 11
207.119
 21
26.5961
 31
0.0
  0
LINE
  8
0
 62
     0
 10
207.119
 20
26.5961
 30
0.0
 11
207.119
 21
27.5966
 31
0.0
  0
LINE
  8
0
 62
     0
 10
207.119
 20
27.5966
 30
0.0
 11
207.92
 21
27.5966
 31
0.0
  0
LINE
  8
0
 62
     0
 10
207.92
 20
27.5966
 30
0.0
 11
207.92
 21
30.6958
 31
0.0
  0
LINE
  8
0
 62
     0
 10
207.92
 20
30.6958
 30
0.0
 11
207.119
 21
30.6958
 31
0.0
  0
LINE
  8
0
 62
     0
 10
207.119
 20
30.6958
 30
0.0
 11
207.119
 21
36.4959
 31
0.0
  0
LINE
  8
0
 62
     0
 10
207.119
 20
36.4959
 30
0.0
 11
207.92
 21
36.4959
 31
0.0
  0
LINE
  8
0
 62
     0
 10
207.92
 20
36.4959
 30
0.0
 11
207.92
 21
39.5965
 31
0.0
  0
LINE
  8
0
 62
     0
 10
207.92
 20
39.5965
 30
0.0
 11
207.119
 21
39.5965
 31
0.0
  0
LINE
  8
0
 62
     0
 10
207.119
 20
39.5965
 30
0.0
 11
207.119
 21
40.5955
 31
0.0
  0
LINE
  8
0
 62
     0
 10
207.119
 20
40.5955
 30
0.0
 11
193.12
 21
40.5955
 31
0.0
  0
LINE
  8
0
 62
     0
 10
174.07
 20
40.5955
 30
0.0
 11
174.07
 21
39.5965
 31
0.0
  0
LINE
  8
0
 62
     0
 10
174.07
 20
39.5965
 30
0.0
 11
173.269
 21
39.5965
 31
0.0
  0
LINE
  8
0
 62
     0
 10
173.269
 20
39.5965
 30
0.0
 11
173.269
 21
36.4959
 31
0.0
  0
LINE
  8
0
 62
     0
 10
173.269
 20
36.4959
 30
0.0
 11
174.07
 21
36.4959
 31
0.0
  0
LINE
  8
0
 62
     0
 10
174.07
 20
36.4959
 30
0.0
 11
174.07
 21
30.6958
 31
0.0
  0
LINE
  8
0
 62
     0
 10
174.07
 20
30.6958
 30
0.0
 11
173.269
 21
30.6958
 31
0.0
  0
LINE
  8
0
 62
     0
 10
173.269
 20
30.6958
 30
0.0
 11
173.269
 21
27.5966
 31
0.0
  0
LINE
  8
0
 62
     0
 10
173.269
 20
27.5966
 30
0.0
 11
174.07
 21
27.5966
 31
0.0
  0
LINE
  8
0
 62
     0
 10
174.07
 20
27.5966
 30
0.0
 11
174.07
 21
26.5961
 31
0.0
  0
LINE
  8
0
 62
     0
 10
174.07
 20
26.5961
 30
0.0
 11
188.069
 21
26.5961
 31
0.0
  0
LINE
  8
0
 62
     0
 10
188.069
 20
26.5961
 30
0.0
 11
188.069
 21
27.5966
 31
0.0
  0
LINE
  8
0
 62
     0
 10
188.069
 20
27.5966
 30
0.0
 11
188.87
 21
27.5966
 31
0.0
  0
LINE
  8
0
 62
     0
 10
188.87
 20
27.5966
 30
0.0
 11
188.87
 21
30.6958
 31
0.0
  0
LINE
  8
0
 62
     0
 10
188.87
 20
30.6958
 30
0.0
 11
188.069
 21
30.6958
 31
0.0
  0
LINE
  8
0
 62
     0
 10
188.069
 20
30.6958
 30
0.0
 11
188.069
 21
36.4959
 31
0.0
  0
LINE
  8
0
 62
     0
 10
188.069
 20
36.4959
 30
0.0
 11
188.87
 21
36.4959
 31
0.0
  0
LINE
  8
0
 62
     0
 10
188.87
 20
36.4959
 30
0.0
 11
188.87
 21
39.5965
 31
0.0
  0
LINE
  8
0
 62
     0
 10
188.87
 20
39.5965
 30
0.0
 11
188.069
 21
39.5965
 31
0.0
  0
LINE
  8
0
 62
     0
 10
188.069
 20
39.5965
 30
0.0
 11
188.069
 21
40.5955
 31
0.0
  0
LINE
  8
0
 62
     0
 10
188.069
 20
40.5955
 30
0.0
 11
174.07
 21
40.5955
 31
0.0
  0
LINE
  8
0
 62
     0
 10
155.02
 20
40.5955
 30
0.0
 11
155.02
 21
39.5965
 31
0.0
  0
LINE
  8
0
 62
     0
 10
155.02
 20
39.5965
 30
0.0
 11
154.219
 21
39.5965
 31
0.0
  0
LINE
  8
0
 62
     0
 10
154.219
 20
39.5965
 30
0.0
 11
154.219
 21
36.4959
 31
0.0
  0
LINE
  8
0
 62
     0
 10
154.219
 20
36.4959
 30
0.0
 11
155.02
 21
36.4959
 31
0.0
  0
LINE
  8
0
 62
     0
 10
155.02
 20
36.4959
 30
0.0
 11
155.02
 21
30.6958
 31
0.0
  0
LINE
  8
0
 62
     0
 10
155.02
 20
30.6958
 30
0.0
 11
154.219
 21
30.6958
 31
0.0
  0
LINE
  8
0
 62
     0
 10
154.219
 20
30.6958
 30
0.0
 11
154.219
 21
27.5966
 31
0.0
  0
LINE
  8
0
 62
     0
 10
154.219
 20
27.5966
 30
0.0
 11
155.02
 21
27.5966
 31
0.0
  0
LINE
  8
0
 62
     0
 10
155.02
 20
27.5966
 30
0.0
 11
155.02
 21
26.5961
 31
0.0
  0
LINE
  8
0
 62
     0
 10
155.02
 20
26.5961
 30
0.0
 11
169.019
 21
26.5961
 31
0.0
  0
LINE
  8
0
 62
     0
 10
169.019
 20
26.5961
 30
0.0
 11
169.019
 21
27.5966
 31
0.0
  0
LINE
  8
0
 62
     0
 10
169.019
 20
27.5966
 30
0.0
 11
169.82
 21
27.5966
 31
0.0
  0
LINE
  8
0
 62
     0
 10
169.82
 20
27.5966
 30
0.0
 11
169.82
 21
30.6958
 31
0.0
  0
LINE
  8
0
 62
     0
 10
169.82
 20
30.6958
 30
0.0
 11
169.019
 21
30.6958
 31
0.0
  0
LINE
  8
0
 62
     0
 10
169.019
 20
30.6958
 30
0.0
 11
169.019
 21
36.4959
 31
0.0
  0
LINE
  8
0
 62
     0
 10
169.019
 20
36.4959
 30
0.0
 11
169.82
 21
36.4959
 31
0.0
  0
LINE
  8
0
 62
     0
 10
169.82
 20
36.4959
 30
0.0
 11
169.82
 21
39.5965
 31
0.0
  0
LINE
  8
0
 62
     0
 10
169.82
 20
39.5965
 30
0.0
 11
169.019
 21
39.5965
 31
0.0
  0
LINE
  8
0
 62
     0
 10
169.019
 20
39.5965
 30
0.0
 11
169.019
 21
40.5955
 31
0.0
  0
LINE
  8
0
 62
     0
 10
169.019
 20
40.5955
 30
0.0
 11
155.02
 21
40.5955
 31
0.0
  0
LINE
  8
0
 62
     0
 10
135.97
 20
40.5955
 30
0.0
 11
135.97
 21
39.5965
 31
0.0
  0
LINE
  8
0
 62
     0
 10
135.97
 20
39.5965
 30
0.0
 11
135.169
 21
39.5965
 31
0.0
  0
LINE
  8
0
 62
     0
 10
135.169
 20
39.5965
 30
0.0
 11
135.169
 21
36.4959
 31
0.0
  0
LINE
  8
0
 62
     0
 10
135.169
 20
36.4959
 30
0.0
 11
135.97
 21
36.4959
 31
0.0
  0
LINE
  8
0
 62
     0
 10
135.97
 20
36.4959
 30
0.0
 11
135.97
 21
30.6958
 31
0.0
  0
LINE
  8
0
 62
     0
 10
135.97
 20
30.6958
 30
0.0
 11
135.169
 21
30.6958
 31
0.0
  0
LINE
  8
0
 62
     0
 10
135.169
 20
30.6958
 30
0.0
 11
135.169
 21
27.5966
 31
0.0
  0
LINE
  8
0
 62
     0
 10
135.169
 20
27.5966
 30
0.0
 11
135.97
 21
27.5966
 31
0.0
  0
LINE
  8
0
 62
     0
 10
135.97
 20
27.5966
 30
0.0
 11
135.97
 21
26.5961
 31
0.0
  0
LINE
  8
0
 62
     0
 10
135.97
 20
26.5961
 30
0.0
 11
149.969
 21
26.5961
 31
0.0
  0
LINE
  8
0
 62
     0
 10
149.969
 20
26.5961
 30
0.0
 11
149.969
 21
27.5966
 31
0.0
  0
LINE
  8
0
 62
     0
 10
149.969
 20
27.5966
 30
0.0
 11
150.77
 21
27.5966
 31
0.0
  0
LINE
  8
0
 62
     0
 10
150.77
 20
27.5966
 30
0.0
 11
150.77
 21
30.6958
 31
0.0
  0
LINE
  8
0
 62
     0
 10
150.77
 20
30.6958
 30
0.0
 11
149.969
 21
30.6958
 31
0.0
  0
LINE
  8
0
 62
     0
 10
149.969
 20
30.6958
 30
0.0
 11
149.969
 21
36.4959
 31
0.0
  0
LINE
  8
0
 62
     0
 10
149.969
 20
36.4959
 30
0.0
 11
150.77
 21
36.4959
 31
0.0
  0
LINE
  8
0
 62
     0
 10
150.77
 20
36.4959
 30
0.0
 11
150.77
 21
39.5965
 31
0.0
  0
LINE
  8
0
 62
     0
 10
150.77
 20
39.5965
 30
0.0
 11
149.969
 21
39.5965
 31
0.0
  0
LINE
  8
0
 62
     0
 10
149.969
 20
39.5965
 30
0.0
 11
149.969
 21
40.5955
 31
0.0
  0
LINE
  8
0
 62
     0
 10
149.969
 20
40.5955
 30
0.0
 11
135.97
 21
40.5955
 31
0.0
  0
LINE
  8
0
 62
     0
 10
116.918
 20
40.5955
 30
0.0
 11
116.918
 21
39.5965
 31
0.0
  0
LINE
  8
0
 62
     0
 10
116.918
 20
39.5965
 30
0.0
 11
116.119
 21
39.5965
 31
0.0
  0
LINE
  8
0
 62
     0
 10
116.119
 20
39.5965
 30
0.0
 11
116.119
 21
36.4959
 31
0.0
  0
LINE
  8
0
 62
     0
 10
116.119
 20
36.4959
 30
0.0
 11
116.918
 21
36.4959
 31
0.0
  0
LINE
  8
0
 62
     0
 10
116.918
 20
36.4959
 30
0.0
 11
116.918
 21
30.6958
 31
0.0
  0
LINE
  8
0
 62
     0
 10
116.918
 20
30.6958
 30
0.0
 11
116.119
 21
30.6958
 31
0.0
  0
LINE
  8
0
 62
     0
 10
116.119
 20
30.6958
 30
0.0
 11
116.119
 21
27.5966
 31
0.0
  0
LINE
  8
0
 62
     0
 10
116.119
 20
27.5966
 30
0.0
 11
116.918
 21
27.5966
 31
0.0
  0
LINE
  8
0
 62
     0
 10
116.918
 20
27.5966
 30
0.0
 11
116.918
 21
26.5961
 31
0.0
  0
LINE
  8
0
 62
     0
 10
116.918
 20
26.5961
 30
0.0
 11
130.919
 21
26.5961
 31
0.0
  0
LINE
  8
0
 62
     0
 10
130.919
 20
26.5961
 30
0.0
 11
130.919
 21
27.5966
 31
0.0
  0
LINE
  8
0
 62
     0
 10
130.919
 20
27.5966
 30
0.0
 11
131.72
 21
27.5966
 31
0.0
  0
LINE
  8
0
 62
     0
 10
131.72
 20
27.5966
 30
0.0
 11
131.72
 21
30.6958
 31
0.0
  0
LINE
  8
0
 62
     0
 10
131.72
 20
30.6958
 30
0.0
 11
130.919
 21
30.6958
 31
0.0
  0
LINE
  8
0
 62
     0
 10
130.919
 20
30.6958
 30
0.0
 11
130.919
 21
36.4959
 31
0.0
  0
LINE
  8
0
 62
     0
 10
130.919
 20
36.4959
 30
0.0
 11
131.72
 21
36.4959
 31
0.0
  0
LINE
  8
0
 62
     0
 10
131.72
 20
36.4959
 30
0.0
 11
131.72
 21
39.5965
 31
0.0
  0
LINE
  8
0
 62
     0
 10
131.72
 20
39.5965
 30
0.0
 11
130.919
 21
39.5965
 31
0.0
  0
LINE
  8
0
 62
     0
 10
130.919
 20
39.5965
 30
0.0
 11
130.919
 21
40.5955
 31
0.0
  0
LINE
  8
0
 62
     0
 10
130.919
 20
40.5955
 30
0.0
 11
116.918
 21
40.5955
 31
0.0
  0
LINE
  8
0
 62
     0
 10
97.8683
 20
40.5955
 30
0.0
 11
97.8683
 21
39.5965
 31
0.0
  0
LINE
  8
0
 62
     0
 10
97.8683
 20
39.5965
 30
0.0
 11
97.0689
 21
39.5965
 31
0.0
  0
LINE
  8
0
 62
     0
 10
97.0689
 20
39.5965
 30
0.0
 11
97.0689
 21
36.4959
 31
0.0
  0
LINE
  8
0
 62
     0
 10
97.0689
 20
36.4959
 30
0.0
 11
97.8683
 21
36.4959
 31
0.0
  0
LINE
  8
0
 62
     0
 10
97.8683
 20
36.4959
 30
0.0
 11
97.8683
 21
30.6958
 31
0.0
  0
LINE
  8
0
 62
     0
 10
97.8683
 20
30.6958
 30
0.0
 11
97.0689
 21
30.6958
 31
0.0
  0
LINE
  8
0
 62
     0
 10
97.0689
 20
30.6958
 30
0.0
 11
97.0689
 21
27.5966
 31
0.0
  0
LINE
  8
0
 62
     0
 10
97.0689
 20
27.5966
 30
0.0
 11
97.8683
 21
27.5966
 31
0.0
  0
LINE
  8
0
 62
     0
 10
97.8683
 20
27.5966
 30
0.0
 11
97.8683
 21
26.5961
 31
0.0
  0
LINE
  8
0
 62
     0
 10
97.8683
 20
26.5961
 30
0.0
 11
111.869
 21
26.5961
 31
0.0
  0
LINE
  8
0
 62
     0
 10
111.869
 20
26.5961
 30
0.0
 11
111.869
 21
27.5966
 31
0.0
  0
LINE
  8
0
 62
     0
 10
111.869
 20
27.5966
 30
0.0
 11
112.668
 21
27.5966
 31
0.0
  0
LINE
  8
0
 62
     0
 10
112.668
 20
27.5966
 30
0.0
 11
112.668
 21
30.6958
 31
0.0
  0
LINE
  8
0
 62
     0
 10
112.668
 20
30.6958
 30
0.0
 11
111.869
 21
30.6958
 31
0.0
  0
LINE
  8
0
 62
     0
 10
111.869
 20
30.6958
 30
0.0
 11
111.869
 21
36.4959
 31
0.0
  0
LINE
  8
0
 62
     0
 10
111.869
 20
36.4959
 30
0.0
 11
112.668
 21
36.4959
 31
0.0
  0
LINE
  8
0
 62
     0
 10
112.668
 20
36.4959
 30
0.0
 11
112.668
 21
39.5965
 31
0.0
  0
LINE
  8
0
 62
     0
 10
112.668
 20
39.5965
 30
0.0
 11
111.869
 21
39.5965
 31
0.0
  0
LINE
  8
0
 62
     0
 10
111.869
 20
39.5965
 30
0.0
 11
111.869
 21
40.5955
 31
0.0
  0
LINE
  8
0
 62
     0
 10
111.869
 20
40.5955
 30
0.0
 11
97.8683
 21
40.5955
 31
0.0
  0
LINE
  8
0
 62
     0
 10
78.8197
 20
40.5955
 30
0.0
 11
78.8197
 21
39.5965
 31
0.0
  0
LINE
  8
0
 62
     0
 10
78.8197
 20
39.5965
 30
0.0
 11
78.0189
 21
39.5965
 31
0.0
  0
LINE
  8
0
 62
     0
 10
78.0189
 20
39.5965
 30
0.0
 11
78.0189
 21
36.4959
 31
0.0
  0
LINE
  8
0
 62
     0
 10
78.0189
 20
36.4959
 30
0.0
 11
78.8197
 21
36.4959
 31
0.0
  0
LINE
  8
0
 62
     0
 10
78.8197
 20
36.4959
 30
0.0
 11
78.8197
 21
30.6958
 31
0.0
  0
LINE
  8
0
 62
     0
 10
78.8197
 20
30.6958
 30
0.0
 11
78.0189
 21
30.6958
 31
0.0
  0
LINE
  8
0
 62
     0
 10
78.0189
 20
30.6958
 30
0.0
 11
78.0189
 21
27.5966
 31
0.0
  0
LINE
  8
0
 62
     0
 10
78.0189
 20
27.5966
 30
0.0
 11
78.8197
 21
27.5966
 31
0.0
  0
LINE
  8
0
 62
     0
 10
78.8197
 20
27.5966
 30
0.0
 11
78.8197
 21
26.5961
 31
0.0
  0
LINE
  8
0
 62
     0
 10
78.8197
 20
26.5961
 30
0.0
 11
92.819
 21
26.5961
 31
0.0
  0
LINE
  8
0
 62
     0
 10
92.819
 20
26.5961
 30
0.0
 11
92.819
 21
27.5966
 31
0.0
  0
LINE
  8
0
 62
     0
 10
92.819
 20
27.5966
 30
0.0
 11
93.6184
 21
27.5966
 31
0.0
  0
LINE
  8
0
 62
     0
 10
93.6184
 20
27.5966
 30
0.0
 11
93.6184
 21
30.6958
 31
0.0
  0
LINE
  8
0
 62
     0
 10
93.6184
 20
30.6958
 30
0.0
 11
92.819
 21
30.6958
 31
0.0
  0
LINE
  8
0
 62
     0
 10
92.819
 20
30.6958
 30
0.0
 11
92.819
 21
36.4959
 31
0.0
  0
LINE
  8
0
 62
     0
 10
92.819
 20
36.4959
 30
0.0
 11
93.6184
 21
36.4959
 31
0.0
  0
LINE
  8
0
 62
     0
 10
93.6184
 20
36.4959
 30
0.0
 11
93.6184
 21
39.5965
 31
0.0
  0
LINE
  8
0
 62
     0
 10
93.6184
 20
39.5965
 30
0.0
 11
92.819
 21
39.5965
 31
0.0
  0
LINE
  8
0
 62
     0
 10
92.819
 20
39.5965
 30
0.0
 11
92.819
 21
40.5955
 31
0.0
  0
LINE
  8
0
 62
     0
 10
92.819
 20
40.5955
 30
0.0
 11
78.8197
 21
40.5955
 31
0.0
  0
LINE
  8
0
 62
     0
 10
290.751
 20
59.6456
 30
0.0
 11
290.751
 21
58.6465
 31
0.0
  0
LINE
  8
0
 62
     0
 10
290.751
 20
58.6465
 30
0.0
 11
289.95
 21
58.6465
 31
0.0
  0
LINE
  8
0
 62
     0
 10
289.95
 20
58.6465
 30
0.0
 11
289.95
 21
55.5459
 31
0.0
  0
LINE
  8
0
 62
     0
 10
289.95
 20
55.5459
 30
0.0
 11
290.751
 21
55.5459
 31
0.0
  0
LINE
  8
0
 62
     0
 10
290.751
 20
55.5459
 30
0.0
 11
290.751
 21
54.9465
 31
0.0
  0
LINE
  8
0
 62
     0
 10
290.751
 20
54.9465
 30
0.0
 11
289.226
 21
54.9465
 31
0.0
  0
LINE
  8
0
 62
     0
 10
289.226
 20
54.9465
 30
0.0
 11
289.226
 21
58.1766
 31
0.0
  0
LINE
  8
0
 62
     0
 10
289.226
 20
58.1766
 30
0.0
 11
287.5
 21
58.1766
 31
0.0
  0
LINE
  8
0
 62
     0
 10
287.5
 20
58.1766
 30
0.0
 11
287.5
 21
59.0959
 31
0.0
  0
LINE
  8
0
 62
     0
 10
287.5
 20
59.0959
 30
0.0
 11
284.201
 21
59.0959
 31
0.0
  0
LINE
  8
0
 62
     0
 10
284.201
 20
59.0959
 30
0.0
 11
284.201
 21
58.1766
 31
0.0
  0
LINE
  8
0
 62
     0
 10
284.201
 20
58.1766
 30
0.0
 11
282.476
 21
58.1766
 31
0.0
  0
LINE
  8
0
 62
     0
 10
282.476
 20
58.1766
 30
0.0
 11
282.476
 21
54.9465
 31
0.0
  0
LINE
  8
0
 62
     0
 10
282.476
 20
54.9465
 30
0.0
 11
281.65
 21
54.9465
 31
0.0
  0
LINE
  8
0
 62
     0
 10
281.65
 20
54.9465
 30
0.0
 11
281.65
 21
52.1462
 31
0.0
  0
LINE
  8
0
 62
     0
 10
281.65
 20
52.1462
 30
0.0
 11
282.476
 21
52.1462
 31
0.0
  0
LINE
  8
0
 62
     0
 10
282.476
 20
52.1462
 30
0.0
 11
282.476
 21
45.8763
 31
0.0
  0
LINE
  8
0
 62
     0
 10
282.476
 20
45.8763
 30
0.0
 11
284.201
 21
45.8763
 31
0.0
  0
LINE
  8
0
 62
     0
 10
284.201
 20
45.8763
 30
0.0
 11
284.201
 21
44.8966
 31
0.0
  0
LINE
  8
0
 62
     0
 10
284.201
 20
44.8966
 30
0.0
 11
287.5
 21
44.8966
 31
0.0
  0
LINE
  8
0
 62
     0
 10
287.5
 20
44.8966
 30
0.0
 11
287.5
 21
45.8763
 31
0.0
  0
LINE
  8
0
 62
     0
 10
287.5
 20
45.8763
 30
0.0
 11
289.226
 21
45.8763
 31
0.0
  0
LINE
  8
0
 62
     0
 10
289.226
 20
45.8763
 30
0.0
 11
289.226
 21
50.3467
 31
0.0
  0
LINE
  8
0
 62
     0
 10
289.226
 20
50.3467
 30
0.0
 11
290.751
 21
50.3467
 31
0.0
  0
LINE
  8
0
 62
     0
 10
290.751
 20
50.3467
 30
0.0
 11
290.751
 21
49.7459
 31
0.0
  0
LINE
  8
0
 62
     0
 10
290.751
 20
49.7459
 30
0.0
 11
289.95
 21
49.7459
 31
0.0
  0
LINE
  8
0
 62
     0
 10
289.95
 20
49.7459
 30
0.0
 11
289.95
 21
46.6467
 31
0.0
  0
LINE
  8
0
 62
     0
 10
289.95
 20
46.6467
 30
0.0
 11
290.751
 21
46.6467
 31
0.0
  0
LINE
  8
0
 62
     0
 10
290.751
 20
46.6467
 30
0.0
 11
290.751
 21
45.6463
 31
0.0
  0
LINE
  8
0
 62
     0
 10
290.751
 20
45.6463
 30
0.0
 11
304.75
 21
45.6463
 31
0.0
  0
LINE
  8
0
 62
     0
 10
304.75
 20
45.6463
 30
0.0
 11
304.75
 21
46.6467
 31
0.0
  0
LINE
  8
0
 62
     0
 10
304.75
 20
46.6467
 30
0.0
 11
305.551
 21
46.6467
 31
0.0
  0
LINE
  8
0
 62
     0
 10
305.551
 20
46.6467
 30
0.0
 11
305.551
 21
49.7459
 31
0.0
  0
LINE
  8
0
 62
     0
 10
305.551
 20
49.7459
 30
0.0
 11
304.75
 21
49.7459
 31
0.0
  0
LINE
  8
0
 62
     0
 10
304.75
 20
49.7459
 30
0.0
 11
304.75
 21
50.3467
 31
0.0
  0
LINE
  8
0
 62
     0
 10
304.75
 20
50.3467
 30
0.0
 11
306.276
 21
50.3467
 31
0.0
  0
LINE
  8
0
 62
     0
 10
306.276
 20
50.3467
 30
0.0
 11
306.276
 21
45.8763
 31
0.0
  0
LINE
  8
0
 62
     0
 10
306.276
 20
45.8763
 30
0.0
 11
308
 21
45.8763
 31
0.0
  0
LINE
  8
0
 62
     0
 10
308
 20
45.8763
 30
0.0
 11
308
 21
44.8966
 31
0.0
  0
LINE
  8
0
 62
     0
 10
308
 20
44.8966
 30
0.0
 11
311.3
 21
44.8966
 31
0.0
  0
LINE
  8
0
 62
     0
 10
311.3
 20
44.8966
 30
0.0
 11
311.3
 21
45.8763
 31
0.0
  0
LINE
  8
0
 62
     0
 10
311.3
 20
45.8763
 30
0.0
 11
313.025
 21
45.8763
 31
0.0
  0
LINE
  8
0
 62
     0
 10
313.025
 20
45.8763
 30
0.0
 11
313.025
 21
52.1462
 31
0.0
  0
LINE
  8
0
 62
     0
 10
313.025
 20
52.1462
 30
0.0
 11
313.851
 21
52.1462
 31
0.0
  0
LINE
  8
0
 62
     0
 10
313.851
 20
52.1462
 30
0.0
 11
313.851
 21
54.9465
 31
0.0
  0
LINE
  8
0
 62
     0
 10
313.851
 20
54.9465
 30
0.0
 11
313.025
 21
54.9465
 31
0.0
  0
LINE
  8
0
 62
     0
 10
313.025
 20
54.9465
 30
0.0
 11
313.025
 21
58.1766
 31
0.0
  0
LINE
  8
0
 62
     0
 10
313.025
 20
58.1766
 30
0.0
 11
311.3
 21
58.1766
 31
0.0
  0
LINE
  8
0
 62
     0
 10
311.3
 20
58.1766
 30
0.0
 11
311.3
 21
59.0959
 31
0.0
  0
LINE
  8
0
 62
     0
 10
311.3
 20
59.0959
 30
0.0
 11
308
 21
59.0959
 31
0.0
  0
LINE
  8
0
 62
     0
 10
308
 20
59.0959
 30
0.0
 11
308
 21
58.1766
 31
0.0
  0
LINE
  8
0
 62
     0
 10
308
 20
58.1766
 30
0.0
 11
306.276
 21
58.1766
 31
0.0
  0
LINE
  8
0
 62
     0
 10
306.276
 20
58.1766
 30
0.0
 11
306.276
 21
54.9465
 31
0.0
  0
LINE
  8
0
 62
     0
 10
306.276
 20
54.9465
 30
0.0
 11
304.75
 21
54.9465
 31
0.0
  0
LINE
  8
0
 62
     0
 10
304.75
 20
54.9465
 30
0.0
 11
304.75
 21
55.5459
 31
0.0
  0
LINE
  8
0
 62
     0
 10
304.75
 20
55.5459
 30
0.0
 11
305.551
 21
55.5459
 31
0.0
  0
LINE
  8
0
 62
     0
 10
305.551
 20
55.5459
 30
0.0
 11
305.551
 21
58.6465
 31
0.0
  0
LINE
  8
0
 62
     0
 10
305.551
 20
58.6465
 30
0.0
 11
304.75
 21
58.6465
 31
0.0
  0
LINE
  8
0
 62
     0
 10
304.75
 20
58.6465
 30
0.0
 11
304.75
 21
59.6456
 31
0.0
  0
LINE
  8
0
 62
     0
 10
304.75
 20
59.6456
 30
0.0
 11
290.751
 21
59.6456
 31
0.0
  0
LINE
  8
0
 62
     0
 10
335.995
 20
59.6456
 30
0.0
 11
335.995
 21
58.6465
 31
0.0
  0
LINE
  8
0
 62
     0
 10
335.995
 20
58.6465
 30
0.0
 11
335.194
 21
58.6465
 31
0.0
  0
LINE
  8
0
 62
     0
 10
335.194
 20
58.6465
 30
0.0
 11
335.194
 21
55.5459
 31
0.0
  0
LINE
  8
0
 62
     0
 10
335.194
 20
55.5459
 30
0.0
 11
335.995
 21
55.5459
 31
0.0
  0
LINE
  8
0
 62
     0
 10
335.995
 20
55.5459
 30
0.0
 11
335.995
 21
49.7459
 31
0.0
  0
LINE
  8
0
 62
     0
 10
335.995
 20
49.7459
 30
0.0
 11
335.194
 21
49.7459
 31
0.0
  0
LINE
  8
0
 62
     0
 10
335.194
 20
49.7459
 30
0.0
 11
335.194
 21
46.6467
 31
0.0
  0
LINE
  8
0
 62
     0
 10
335.194
 20
46.6467
 30
0.0
 11
335.995
 21
46.6467
 31
0.0
  0
LINE
  8
0
 62
     0
 10
335.995
 20
46.6467
 30
0.0
 11
335.995
 21
45.6463
 31
0.0
  0
LINE
  8
0
 62
     0
 10
335.995
 20
45.6463
 30
0.0
 11
349.994
 21
45.6463
 31
0.0
  0
LINE
  8
0
 62
     0
 10
349.994
 20
45.6463
 30
0.0
 11
349.994
 21
46.6467
 31
0.0
  0
LINE
  8
0
 62
     0
 10
349.994
 20
46.6467
 30
0.0
 11
350.795
 21
46.6467
 31
0.0
  0
LINE
  8
0
 62
     0
 10
350.795
 20
46.6467
 30
0.0
 11
350.795
 21
49.7459
 31
0.0
  0
LINE
  8
0
 62
     0
 10
350.795
 20
49.7459
 30
0.0
 11
349.994
 21
49.7459
 31
0.0
  0
LINE
  8
0
 62
     0
 10
349.994
 20
49.7459
 30
0.0
 11
349.994
 21
55.5459
 31
0.0
  0
LINE
  8
0
 62
     0
 10
349.994
 20
55.5459
 30
0.0
 11
350.795
 21
55.5459
 31
0.0
  0
LINE
  8
0
 62
     0
 10
350.795
 20
55.5459
 30
0.0
 11
350.795
 21
58.6465
 31
0.0
  0
LINE
  8
0
 62
     0
 10
350.795
 20
58.6465
 30
0.0
 11
349.994
 21
58.6465
 31
0.0
  0
LINE
  8
0
 62
     0
 10
349.994
 20
58.6465
 30
0.0
 11
349.994
 21
59.6456
 31
0.0
  0
LINE
  8
0
 62
     0
 10
349.994
 20
59.6456
 30
0.0
 11
335.995
 21
59.6456
 31
0.0
  0
LINE
  8
0
 62
     0
 10
259.795
 20
59.6456
 30
0.0
 11
259.795
 21
58.6465
 31
0.0
  0
LINE
  8
0
 62
     0
 10
259.795
 20
58.6465
 30
0.0
 11
258.994
 21
58.6465
 31
0.0
  0
LINE
  8
0
 62
     0
 10
258.994
 20
58.6465
 30
0.0
 11
258.994
 21
55.5459
 31
0.0
  0
LINE
  8
0
 62
     0
 10
258.994
 20
55.5459
 30
0.0
 11
259.795
 21
55.5459
 31
0.0
  0
LINE
  8
0
 62
     0
 10
259.795
 20
55.5459
 30
0.0
 11
259.795
 21
49.7459
 31
0.0
  0
LINE
  8
0
 62
     0
 10
259.795
 20
49.7459
 30
0.0
 11
258.994
 21
49.7459
 31
0.0
  0
LINE
  8
0
 62
     0
 10
258.994
 20
49.7459
 30
0.0
 11
258.994
 21
46.6467
 31
0.0
  0
LINE
  8
0
 62
     0
 10
258.994
 20
46.6467
 30
0.0
 11
259.795
 21
46.6467
 31
0.0
  0
LINE
  8
0
 62
     0
 10
259.795
 20
46.6467
 30
0.0
 11
259.795
 21
45.6463
 31
0.0
  0
LINE
  8
0
 62
     0
 10
259.795
 20
45.6463
 30
0.0
 11
273.794
 21
45.6463
 31
0.0
  0
LINE
  8
0
 62
     0
 10
273.794
 20
45.6463
 30
0.0
 11
273.794
 21
46.6467
 31
0.0
  0
LINE
  8
0
 62
     0
 10
273.794
 20
46.6467
 30
0.0
 11
274.595
 21
46.6467
 31
0.0
  0
LINE
  8
0
 62
     0
 10
274.595
 20
46.6467
 30
0.0
 11
274.595
 21
49.7459
 31
0.0
  0
LINE
  8
0
 62
     0
 10
274.595
 20
49.7459
 30
0.0
 11
273.794
 21
49.7459
 31
0.0
  0
LINE
  8
0
 62
     0
 10
273.794
 20
49.7459
 30
0.0
 11
273.794
 21
55.5459
 31
0.0
  0
LINE
  8
0
 62
     0
 10
273.794
 20
55.5459
 30
0.0
 11
274.595
 21
55.5459
 31
0.0
  0
LINE
  8
0
 62
     0
 10
274.595
 20
55.5459
 30
0.0
 11
274.595
 21
58.6465
 31
0.0
  0
LINE
  8
0
 62
     0
 10
274.595
 20
58.6465
 30
0.0
 11
273.794
 21
58.6465
 31
0.0
  0
LINE
  8
0
 62
     0
 10
273.794
 20
58.6465
 30
0.0
 11
273.794
 21
59.6456
 31
0.0
  0
LINE
  8
0
 62
     0
 10
273.794
 20
59.6456
 30
0.0
 11
259.795
 21
59.6456
 31
0.0
  0
LINE
  8
0
 62
     0
 10
240.745
 20
59.6456
 30
0.0
 11
240.745
 21
58.6465
 31
0.0
  0
LINE
  8
0
 62
     0
 10
240.745
 20
58.6465
 30
0.0
 11
239.944
 21
58.6465
 31
0.0
  0
LINE
  8
0
 62
     0
 10
239.944
 20
58.6465
 30
0.0
 11
239.944
 21
55.5459
 31
0.0
  0
LINE
  8
0
 62
     0
 10
239.944
 20
55.5459
 30
0.0
 11
240.745
 21
55.5459
 31
0.0
  0
LINE
  8
0
 62
     0
 10
240.745
 20
55.5459
 30
0.0
 11
240.745
 21
49.7459
 31
0.0
  0
LINE
  8
0
 62
     0
 10
240.745
 20
49.7459
 30
0.0
 11
239.944
 21
49.7459
 31
0.0
  0
LINE
  8
0
 62
     0
 10
239.944
 20
49.7459
 30
0.0
 11
239.944
 21
46.6467
 31
0.0
  0
LINE
  8
0
 62
     0
 10
239.944
 20
46.6467
 30
0.0
 11
240.745
 21
46.6467
 31
0.0
  0
LINE
  8
0
 62
     0
 10
240.745
 20
46.6467
 30
0.0
 11
240.745
 21
45.6463
 31
0.0
  0
LINE
  8
0
 62
     0
 10
240.745
 20
45.6463
 30
0.0
 11
254.744
 21
45.6463
 31
0.0
  0
LINE
  8
0
 62
     0
 10
254.744
 20
45.6463
 30
0.0
 11
254.744
 21
46.6467
 31
0.0
  0
LINE
  8
0
 62
     0
 10
254.744
 20
46.6467
 30
0.0
 11
255.545
 21
46.6467
 31
0.0
  0
LINE
  8
0
 62
     0
 10
255.545
 20
46.6467
 30
0.0
 11
255.545
 21
49.7459
 31
0.0
  0
LINE
  8
0
 62
     0
 10
255.545
 20
49.7459
 30
0.0
 11
254.744
 21
49.7459
 31
0.0
  0
LINE
  8
0
 62
     0
 10
254.744
 20
49.7459
 30
0.0
 11
254.744
 21
55.5459
 31
0.0
  0
LINE
  8
0
 62
     0
 10
254.744
 20
55.5459
 30
0.0
 11
255.545
 21
55.5459
 31
0.0
  0
LINE
  8
0
 62
     0
 10
255.545
 20
55.5459
 30
0.0
 11
255.545
 21
58.6465
 31
0.0
  0
LINE
  8
0
 62
     0
 10
255.545
 20
58.6465
 30
0.0
 11
254.744
 21
58.6465
 31
0.0
  0
LINE
  8
0
 62
     0
 10
254.744
 20
58.6465
 30
0.0
 11
254.744
 21
59.6456
 31
0.0
  0
LINE
  8
0
 62
     0
 10
254.744
 20
59.6456
 30
0.0
 11
240.745
 21
59.6456
 31
0.0
  0
LINE
  8
0
 62
     0
 10
221.695
 20
59.6456
 30
0.0
 11
221.695
 21
58.6465
 31
0.0
  0
LINE
  8
0
 62
     0
 10
221.695
 20
58.6465
 30
0.0
 11
220.894
 21
58.6465
 31
0.0
  0
LINE
  8
0
 62
     0
 10
220.894
 20
58.6465
 30
0.0
 11
220.894
 21
55.5459
 31
0.0
  0
LINE
  8
0
 62
     0
 10
220.894
 20
55.5459
 30
0.0
 11
221.695
 21
55.5459
 31
0.0
  0
LINE
  8
0
 62
     0
 10
221.695
 20
55.5459
 30
0.0
 11
221.695
 21
49.7459
 31
0.0
  0
LINE
  8
0
 62
     0
 10
221.695
 20
49.7459
 30
0.0
 11
220.894
 21
49.7459
 31
0.0
  0
LINE
  8
0
 62
     0
 10
220.894
 20
49.7459
 30
0.0
 11
220.894
 21
46.6467
 31
0.0
  0
LINE
  8
0
 62
     0
 10
220.894
 20
46.6467
 30
0.0
 11
221.695
 21
46.6467
 31
0.0
  0
LINE
  8
0
 62
     0
 10
221.695
 20
46.6467
 30
0.0
 11
221.695
 21
45.6463
 31
0.0
  0
LINE
  8
0
 62
     0
 10
221.695
 20
45.6463
 30
0.0
 11
235.694
 21
45.6463
 31
0.0
  0
LINE
  8
0
 62
     0
 10
235.694
 20
45.6463
 30
0.0
 11
235.694
 21
46.6467
 31
0.0
  0
LINE
  8
0
 62
     0
 10
235.694
 20
46.6467
 30
0.0
 11
236.495
 21
46.6467
 31
0.0
  0
LINE
  8
0
 62
     0
 10
236.495
 20
46.6467
 30
0.0
 11
236.495
 21
49.7459
 31
0.0
  0
LINE
  8
0
 62
     0
 10
236.495
 20
49.7459
 30
0.0
 11
235.694
 21
49.7459
 31
0.0
  0
LINE
  8
0
 62
     0
 10
235.694
 20
49.7459
 30
0.0
 11
235.694
 21
55.5459
 31
0.0
  0
LINE
  8
0
 62
     0
 10
235.694
 20
55.5459
 30
0.0
 11
236.495
 21
55.5459
 31
0.0
  0
LINE
  8
0
 62
     0
 10
236.495
 20
55.5459
 30
0.0
 11
236.495
 21
58.6465
 31
0.0
  0
LINE
  8
0
 62
     0
 10
236.495
 20
58.6465
 30
0.0
 11
235.694
 21
58.6465
 31
0.0
  0
LINE
  8
0
 62
     0
 10
235.694
 20
58.6465
 30
0.0
 11
235.694
 21
59.6456
 31
0.0
  0
LINE
  8
0
 62
     0
 10
235.694
 20
59.6456
 30
0.0
 11
221.695
 21
59.6456
 31
0.0
  0
LINE
  8
0
 62
     0
 10
202.645
 20
59.6456
 30
0.0
 11
202.645
 21
58.6465
 31
0.0
  0
LINE
  8
0
 62
     0
 10
202.645
 20
58.6465
 30
0.0
 11
201.844
 21
58.6465
 31
0.0
  0
LINE
  8
0
 62
     0
 10
201.844
 20
58.6465
 30
0.0
 11
201.844
 21
55.5459
 31
0.0
  0
LINE
  8
0
 62
     0
 10
201.844
 20
55.5459
 30
0.0
 11
202.645
 21
55.5459
 31
0.0
  0
LINE
  8
0
 62
     0
 10
202.645
 20
55.5459
 30
0.0
 11
202.645
 21
49.7459
 31
0.0
  0
LINE
  8
0
 62
     0
 10
202.645
 20
49.7459
 30
0.0
 11
201.844
 21
49.7459
 31
0.0
  0
LINE
  8
0
 62
     0
 10
201.844
 20
49.7459
 30
0.0
 11
201.844
 21
46.6467
 31
0.0
  0
LINE
  8
0
 62
     0
 10
201.844
 20
46.6467
 30
0.0
 11
202.645
 21
46.6467
 31
0.0
  0
LINE
  8
0
 62
     0
 10
202.645
 20
46.6467
 30
0.0
 11
202.645
 21
45.6463
 31
0.0
  0
LINE
  8
0
 62
     0
 10
202.645
 20
45.6463
 30
0.0
 11
216.644
 21
45.6463
 31
0.0
  0
LINE
  8
0
 62
     0
 10
216.644
 20
45.6463
 30
0.0
 11
216.644
 21
46.6467
 31
0.0
  0
LINE
  8
0
 62
     0
 10
216.644
 20
46.6467
 30
0.0
 11
217.445
 21
46.6467
 31
0.0
  0
LINE
  8
0
 62
     0
 10
217.445
 20
46.6467
 30
0.0
 11
217.445
 21
49.7459
 31
0.0
  0
LINE
  8
0
 62
     0
 10
217.445
 20
49.7459
 30
0.0
 11
216.644
 21
49.7459
 31
0.0
  0
LINE
  8
0
 62
     0
 10
216.644
 20
49.7459
 30
0.0
 11
216.644
 21
55.5459
 31
0.0
  0
LINE
  8
0
 62
     0
 10
216.644
 20
55.5459
 30
0.0
 11
217.445
 21
55.5459
 31
0.0
  0
LINE
  8
0
 62
     0
 10
217.445
 20
55.5459
 30
0.0
 11
217.445
 21
58.6465
 31
0.0
  0
LINE
  8
0
 62
     0
 10
217.445
 20
58.6465
 30
0.0
 11
216.644
 21
58.6465
 31
0.0
  0
LINE
  8
0
 62
     0
 10
216.644
 20
58.6465
 30
0.0
 11
216.644
 21
59.6456
 31
0.0
  0
LINE
  8
0
 62
     0
 10
216.644
 20
59.6456
 30
0.0
 11
202.645
 21
59.6456
 31
0.0
  0
LINE
  8
0
 62
     0
 10
183.595
 20
59.6456
 30
0.0
 11
183.595
 21
58.6465
 31
0.0
  0
LINE
  8
0
 62
     0
 10
183.595
 20
58.6465
 30
0.0
 11
182.794
 21
58.6465
 31
0.0
  0
LINE
  8
0
 62
     0
 10
182.794
 20
58.6465
 30
0.0
 11
182.794
 21
55.5459
 31
0.0
  0
LINE
  8
0
 62
     0
 10
182.794
 20
55.5459
 30
0.0
 11
183.595
 21
55.5459
 31
0.0
  0
LINE
  8
0
 62
     0
 10
183.595
 20
55.5459
 30
0.0
 11
183.595
 21
49.7459
 31
0.0
  0
LINE
  8
0
 62
     0
 10
183.595
 20
49.7459
 30
0.0
 11
182.794
 21
49.7459
 31
0.0
  0
LINE
  8
0
 62
     0
 10
182.794
 20
49.7459
 30
0.0
 11
182.794
 21
46.6467
 31
0.0
  0
LINE
  8
0
 62
     0
 10
182.794
 20
46.6467
 30
0.0
 11
183.595
 21
46.6467
 31
0.0
  0
LINE
  8
0
 62
     0
 10
183.595
 20
46.6467
 30
0.0
 11
183.595
 21
45.6463
 31
0.0
  0
LINE
  8
0
 62
     0
 10
183.595
 20
45.6463
 30
0.0
 11
197.594
 21
45.6463
 31
0.0
  0
LINE
  8
0
 62
     0
 10
197.594
 20
45.6463
 30
0.0
 11
197.594
 21
46.6467
 31
0.0
  0
LINE
  8
0
 62
     0
 10
197.594
 20
46.6467
 30
0.0
 11
198.395
 21
46.6467
 31
0.0
  0
LINE
  8
0
 62
     0
 10
198.395
 20
46.6467
 30
0.0
 11
198.395
 21
49.7459
 31
0.0
  0
LINE
  8
0
 62
     0
 10
198.395
 20
49.7459
 30
0.0
 11
197.594
 21
49.7459
 31
0.0
  0
LINE
  8
0
 62
     0
 10
197.594
 20
49.7459
 30
0.0
 11
197.594
 21
55.5459
 31
0.0
  0
LINE
  8
0
 62
     0
 10
197.594
 20
55.5459
 30
0.0
 11
198.395
 21
55.5459
 31
0.0
  0
LINE
  8
0
 62
     0
 10
198.395
 20
55.5459
 30
0.0
 11
198.395
 21
58.6465
 31
0.0
  0
LINE
  8
0
 62
     0
 10
198.395
 20
58.6465
 30
0.0
 11
197.594
 21
58.6465
 31
0.0
  0
LINE
  8
0
 62
     0
 10
197.594
 20
58.6465
 30
0.0
 11
197.594
 21
59.6456
 31
0.0
  0
LINE
  8
0
 62
     0
 10
197.594
 20
59.6456
 30
0.0
 11
183.595
 21
59.6456
 31
0.0
  0
LINE
  8
0
 62
     0
 10
164.545
 20
59.6456
 30
0.0
 11
164.545
 21
58.6465
 31
0.0
  0
LINE
  8
0
 62
     0
 10
164.545
 20
58.6465
 30
0.0
 11
163.744
 21
58.6465
 31
0.0
  0
LINE
  8
0
 62
     0
 10
163.744
 20
58.6465
 30
0.0
 11
163.744
 21
55.5459
 31
0.0
  0
LINE
  8
0
 62
     0
 10
163.744
 20
55.5459
 30
0.0
 11
164.545
 21
55.5459
 31
0.0
  0
LINE
  8
0
 62
     0
 10
164.545
 20
55.5459
 30
0.0
 11
164.545
 21
49.7459
 31
0.0
  0
LINE
  8
0
 62
     0
 10
164.545
 20
49.7459
 30
0.0
 11
163.744
 21
49.7459
 31
0.0
  0
LINE
  8
0
 62
     0
 10
163.744
 20
49.7459
 30
0.0
 11
163.744
 21
46.6467
 31
0.0
  0
LINE
  8
0
 62
     0
 10
163.744
 20
46.6467
 30
0.0
 11
164.545
 21
46.6467
 31
0.0
  0
LINE
  8
0
 62
     0
 10
164.545
 20
46.6467
 30
0.0
 11
164.545
 21
45.6463
 31
0.0
  0
LINE
  8
0
 62
     0
 10
164.545
 20
45.6463
 30
0.0
 11
178.544
 21
45.6463
 31
0.0
  0
LINE
  8
0
 62
     0
 10
178.544
 20
45.6463
 30
0.0
 11
178.544
 21
46.6467
 31
0.0
  0
LINE
  8
0
 62
     0
 10
178.544
 20
46.6467
 30
0.0
 11
179.345
 21
46.6467
 31
0.0
  0
LINE
  8
0
 62
     0
 10
179.345
 20
46.6467
 30
0.0
 11
179.345
 21
49.7459
 31
0.0
  0
LINE
  8
0
 62
     0
 10
179.345
 20
49.7459
 30
0.0
 11
178.544
 21
49.7459
 31
0.0
  0
LINE
  8
0
 62
     0
 10
178.544
 20
49.7459
 30
0.0
 11
178.544
 21
55.5459
 31
0.0
  0
LINE
  8
0
 62
     0
 10
178.544
 20
55.5459
 30
0.0
 11
179.345
 21
55.5459
 31
0.0
  0
LINE
  8
0
 62
     0
 10
179.345
 20
55.5459
 30
0.0
 11
179.345
 21
58.6465
 31
0.0
  0
LINE
  8
0
 62
     0
 10
179.345
 20
58.6465
 30
0.0
 11
178.544
 21
58.6465
 31
0.0
  0
LINE
  8
0
 62
     0
 10
178.544
 20
58.6465
 30
0.0
 11
178.544
 21
59.6456
 31
0.0
  0
LINE
  8
0
 62
     0
 10
178.544
 20
59.6456
 30
0.0
 11
164.545
 21
59.6456
 31
0.0
  0
LINE
  8
0
 62
     0
 10
145.495
 20
59.6456
 30
0.0
 11
145.495
 21
58.6465
 31
0.0
  0
LINE
  8
0
 62
     0
 10
145.495
 20
58.6465
 30
0.0
 11
144.694
 21
58.6465
 31
0.0
  0
LINE
  8
0
 62
     0
 10
144.694
 20
58.6465
 30
0.0
 11
144.694
 21
55.5459
 31
0.0
  0
LINE
  8
0
 62
     0
 10
144.694
 20
55.5459
 30
0.0
 11
145.495
 21
55.5459
 31
0.0
  0
LINE
  8
0
 62
     0
 10
145.495
 20
55.5459
 30
0.0
 11
145.495
 21
49.7459
 31
0.0
  0
LINE
  8
0
 62
     0
 10
145.495
 20
49.7459
 30
0.0
 11
144.694
 21
49.7459
 31
0.0
  0
LINE
  8
0
 62
     0
 10
144.694
 20
49.7459
 30
0.0
 11
144.694
 21
46.6467
 31
0.0
  0
LINE
  8
0
 62
     0
 10
144.694
 20
46.6467
 30
0.0
 11
145.495
 21
46.6467
 31
0.0
  0
LINE
  8
0
 62
     0
 10
145.495
 20
46.6467
 30
0.0
 11
145.495
 21
45.6463
 31
0.0
  0
LINE
  8
0
 62
     0
 10
145.495
 20
45.6463
 30
0.0
 11
159.494
 21
45.6463
 31
0.0
  0
LINE
  8
0
 62
     0
 10
159.494
 20
45.6463
 30
0.0
 11
159.494
 21
46.6467
 31
0.0
  0
LINE
  8
0
 62
     0
 10
159.494
 20
46.6467
 30
0.0
 11
160.295
 21
46.6467
 31
0.0
  0
LINE
  8
0
 62
     0
 10
160.295
 20
46.6467
 30
0.0
 11
160.295
 21
49.7459
 31
0.0
  0
LINE
  8
0
 62
     0
 10
160.295
 20
49.7459
 30
0.0
 11
159.494
 21
49.7459
 31
0.0
  0
LINE
  8
0
 62
     0
 10
159.494
 20
49.7459
 30
0.0
 11
159.494
 21
55.5459
 31
0.0
  0
LINE
  8
0
 62
     0
 10
159.494
 20
55.5459
 30
0.0
 11
160.295
 21
55.5459
 31
0.0
  0
LINE
  8
0
 62
     0
 10
160.295
 20
55.5459
 30
0.0
 11
160.295
 21
58.6465
 31
0.0
  0
LINE
  8
0
 62
     0
 10
160.295
 20
58.6465
 30
0.0
 11
159.494
 21
58.6465
 31
0.0
  0
LINE
  8
0
 62
     0
 10
159.494
 20
58.6465
 30
0.0
 11
159.494
 21
59.6456
 31
0.0
  0
LINE
  8
0
 62
     0
 10
159.494
 20
59.6456
 30
0.0
 11
145.495
 21
59.6456
 31
0.0
  0
LINE
  8
0
 62
     0
 10
126.445
 20
59.6456
 30
0.0
 11
126.445
 21
58.6465
 31
0.0
  0
LINE
  8
0
 62
     0
 10
126.445
 20
58.6465
 30
0.0
 11
125.644
 21
58.6465
 31
0.0
  0
LINE
  8
0
 62
     0
 10
125.644
 20
58.6465
 30
0.0
 11
125.644
 21
55.5459
 31
0.0
  0
LINE
  8
0
 62
     0
 10
125.644
 20
55.5459
 30
0.0
 11
126.445
 21
55.5459
 31
0.0
  0
LINE
  8
0
 62
     0
 10
126.445
 20
55.5459
 30
0.0
 11
126.445
 21
49.7459
 31
0.0
  0
LINE
  8
0
 62
     0
 10
126.445
 20
49.7459
 30
0.0
 11
125.644
 21
49.7459
 31
0.0
  0
LINE
  8
0
 62
     0
 10
125.644
 20
49.7459
 30
0.0
 11
125.644
 21
46.6467
 31
0.0
  0
LINE
  8
0
 62
     0
 10
125.644
 20
46.6467
 30
0.0
 11
126.445
 21
46.6467
 31
0.0
  0
LINE
  8
0
 62
     0
 10
126.445
 20
46.6467
 30
0.0
 11
126.445
 21
45.6463
 31
0.0
  0
LINE
  8
0
 62
     0
 10
126.445
 20
45.6463
 30
0.0
 11
140.444
 21
45.6463
 31
0.0
  0
LINE
  8
0
 62
     0
 10
140.444
 20
45.6463
 30
0.0
 11
140.444
 21
46.6467
 31
0.0
  0
LINE
  8
0
 62
     0
 10
140.444
 20
46.6467
 30
0.0
 11
141.245
 21
46.6467
 31
0.0
  0
LINE
  8
0
 62
     0
 10
141.245
 20
46.6467
 30
0.0
 11
141.245
 21
49.7459
 31
0.0
  0
LINE
  8
0
 62
     0
 10
141.245
 20
49.7459
 30
0.0
 11
140.444
 21
49.7459
 31
0.0
  0
LINE
  8
0
 62
     0
 10
140.444
 20
49.7459
 30
0.0
 11
140.444
 21
55.5459
 31
0.0
  0
LINE
  8
0
 62
     0
 10
140.444
 20
55.5459
 30
0.0
 11
141.245
 21
55.5459
 31
0.0
  0
LINE
  8
0
 62
     0
 10
141.245
 20
55.5459
 30
0.0
 11
141.245
 21
58.6465
 31
0.0
  0
LINE
  8
0
 62
     0
 10
141.245
 20
58.6465
 30
0.0
 11
140.444
 21
58.6465
 31
0.0
  0
LINE
  8
0
 62
     0
 10
140.444
 20
58.6465
 30
0.0
 11
140.444
 21
59.6456
 31
0.0
  0
LINE
  8
0
 62
     0
 10
140.444
 20
59.6456
 30
0.0
 11
126.445
 21
59.6456
 31
0.0
  0
LINE
  8
0
 62
     0
 10
107.393
 20
59.6456
 30
0.0
 11
107.393
 21
58.6465
 31
0.0
  0
LINE
  8
0
 62
     0
 10
107.393
 20
58.6465
 30
0.0
 11
106.594
 21
58.6465
 31
0.0
  0
LINE
  8
0
 62
     0
 10
106.594
 20
58.6465
 30
0.0
 11
106.594
 21
55.5459
 31
0.0
  0
LINE
  8
0
 62
     0
 10
106.594
 20
55.5459
 30
0.0
 11
107.393
 21
55.5459
 31
0.0
  0
LINE
  8
0
 62
     0
 10
107.393
 20
55.5459
 30
0.0
 11
107.393
 21
49.7459
 31
0.0
  0
LINE
  8
0
 62
     0
 10
107.393
 20
49.7459
 30
0.0
 11
106.594
 21
49.7459
 31
0.0
  0
LINE
  8
0
 62
     0
 10
106.594
 20
49.7459
 30
0.0
 11
106.594
 21
46.6467
 31
0.0
  0
LINE
  8
0
 62
     0
 10
106.594
 20
46.6467
 30
0.0
 11
107.393
 21
46.6467
 31
0.0
  0
LINE
  8
0
 62
     0
 10
107.393
 20
46.6467
 30
0.0
 11
107.393
 21
45.6463
 31
0.0
  0
LINE
  8
0
 62
     0
 10
107.393
 20
45.6463
 30
0.0
 11
121.394
 21
45.6463
 31
0.0
  0
LINE
  8
0
 62
     0
 10
121.394
 20
45.6463
 30
0.0
 11
121.394
 21
46.6467
 31
0.0
  0
LINE
  8
0
 62
     0
 10
121.394
 20
46.6467
 30
0.0
 11
122.193
 21
46.6467
 31
0.0
  0
LINE
  8
0
 62
     0
 10
122.193
 20
46.6467
 30
0.0
 11
122.193
 21
49.7459
 31
0.0
  0
LINE
  8
0
 62
     0
 10
122.193
 20
49.7459
 30
0.0
 11
121.394
 21
49.7459
 31
0.0
  0
LINE
  8
0
 62
     0
 10
121.394
 20
49.7459
 30
0.0
 11
121.394
 21
55.5459
 31
0.0
  0
LINE
  8
0
 62
     0
 10
121.394
 20
55.5459
 30
0.0
 11
122.193
 21
55.5459
 31
0.0
  0
LINE
  8
0
 62
     0
 10
122.193
 20
55.5459
 30
0.0
 11
122.193
 21
58.6465
 31
0.0
  0
LINE
  8
0
 62
     0
 10
122.193
 20
58.6465
 30
0.0
 11
121.394
 21
58.6465
 31
0.0
  0
LINE
  8
0
 62
     0
 10
121.394
 20
58.6465
 30
0.0
 11
121.394
 21
59.6456
 31
0.0
  0
LINE
  8
0
 62
     0
 10
121.394
 20
59.6456
 30
0.0
 11
107.393
 21
59.6456
 31
0.0
  0
LINE
  8
0
 62
     0
 10
88.3433
 20
59.6456
 30
0.0
 11
88.3433
 21
58.6465
 31
0.0
  0
LINE
  8
0
 62
     0
 10
88.3433
 20
58.6465
 30
0.0
 11
87.5439
 21
58.6465
 31
0.0
  0
LINE
  8
0
 62
     0
 10
87.5439
 20
58.6465
 30
0.0
 11
87.5439
 21
55.5459
 31
0.0
  0
LINE
  8
0
 62
     0
 10
87.5439
 20
55.5459
 30
0.0
 11
88.3433
 21
55.5459
 31
0.0
  0
LINE
  8
0
 62
     0
 10
88.3433
 20
55.5459
 30
0.0
 11
88.3433
 21
49.7459
 31
0.0
  0
LINE
  8
0
 62
     0
 10
88.3433
 20
49.7459
 30
0.0
 11
87.5439
 21
49.7459
 31
0.0
  0
LINE
  8
0
 62
     0
 10
87.5439
 20
49.7459
 30
0.0
 11
87.5439
 21
46.6467
 31
0.0
  0
LINE
  8
0
 62
     0
 10
87.5439
 20
46.6467
 30
0.0
 11
88.3433
 21
46.6467
 31
0.0
  0
LINE
  8
0
 62
     0
 10
88.3433
 20
46.6467
 30
0.0
 11
88.3433
 21
45.6463
 31
0.0
  0
LINE
  8
0
 62
     0
 10
88.3433
 20
45.6463
 30
0.0
 11
102.344
 21
45.6463
 31
0.0
  0
LINE
  8
0
 62
     0
 10
102.344
 20
45.6463
 30
0.0
 11
102.344
 21
46.6467
 31
0.0
  0
LINE
  8
0
 62
     0
 10
102.344
 20
46.6467
 30
0.0
 11
103.143
 21
46.6467
 31
0.0
  0
LINE
  8
0
 62
     0
 10
103.143
 20
46.6467
 30
0.0
 11
103.143
 21
49.7459
 31
0.0
  0
LINE
  8
0
 62
     0
 10
103.143
 20
49.7459
 30
0.0
 11
102.344
 21
49.7459
 31
0.0
  0
LINE
  8
0
 62
     0
 10
102.344
 20
49.7459
 30
0.0
 11
102.344
 21
55.5459
 31
0.0
  0
LINE
  8
0
 62
     0
 10
102.344
 20
55.5459
 30
0.0
 11
103.143
 21
55.5459
 31
0.0
  0
LINE
  8
0
 62
     0
 10
103.143
 20
55.5459
 30
0.0
 11
103.143
 21
58.6465
 31
0.0
  0
LINE
  8
0
 62
     0
 10
103.143
 20
58.6465
 30
0.0
 11
102.344
 21
58.6465
 31
0.0
  0
LINE
  8
0
 62
     0
 10
102.344
 20
58.6465
 30
0.0
 11
102.344
 21
59.6456
 31
0.0
  0
LINE
  8
0
 62
     0
 10
102.344
 20
59.6456
 30
0.0
 11
88.3433
 21
59.6456
 31
0.0
  0
LINE
  8
0
 62
     0
 10
69.2933
 20
59.6456
 30
0.0
 11
69.2933
 21
58.6465
 31
0.0
  0
LINE
  8
0
 62
     0
 10
69.2933
 20
58.6465
 30
0.0
 11
68.4939
 21
58.6465
 31
0.0
  0
LINE
  8
0
 62
     0
 10
68.4939
 20
58.6465
 30
0.0
 11
68.4939
 21
55.5459
 31
0.0
  0
LINE
  8
0
 62
     0
 10
68.4939
 20
55.5459
 30
0.0
 11
69.2933
 21
55.5459
 31
0.0
  0
LINE
  8
0
 62
     0
 10
69.2933
 20
55.5459
 30
0.0
 11
69.2933
 21
49.7459
 31
0.0
  0
LINE
  8
0
 62
     0
 10
69.2933
 20
49.7459
 30
0.0
 11
68.4939
 21
49.7459
 31
0.0
  0
LINE
  8
0
 62
     0
 10
68.4939
 20
49.7459
 30
0.0
 11
68.4939
 21
46.6467
 31
0.0
  0
LINE
  8
0
 62
     0
 10
68.4939
 20
46.6467
 30
0.0
 11
69.2933
 21
46.6467
 31
0.0
  0
LINE
  8
0
 62
     0
 10
69.2933
 20
46.6467
 30
0.0
 11
69.2933
 21
45.6463
 31
0.0
  0
LINE
  8
0
 62
     0
 10
69.2933
 20
45.6463
 30
0.0
 11
83.294
 21
45.6463
 31
0.0
  0
LINE
  8
0
 62
     0
 10
83.294
 20
45.6463
 30
0.0
 11
83.294
 21
46.6467
 31
0.0
  0
LINE
  8
0
 62
     0
 10
83.294
 20
46.6467
 30
0.0
 11
84.0934
 21
46.6467
 31
0.0
  0
LINE
  8
0
 62
     0
 10
84.0934
 20
46.6467
 30
0.0
 11
84.0934
 21
49.7459
 31
0.0
  0
LINE
  8
0
 62
     0
 10
84.0934
 20
49.7459
 30
0.0
 11
83.294
 21
49.7459
 31
0.0
  0
LINE
  8
0
 62
     0
 10
83.294
 20
49.7459
 30
0.0
 11
83.294
 21
55.5459
 31
0.0
  0
LINE
  8
0
 62
     0
 10
83.294
 20
55.5459
 30
0.0
 11
84.0934
 21
55.5459
 31
0.0
  0
LINE
  8
0
 62
     0
 10
84.0934
 20
55.5459
 30
0.0
 11
84.0934
 21
58.6465
 31
0.0
  0
LINE
  8
0
 62
     0
 10
84.0934
 20
58.6465
 30
0.0
 11
83.294
 21
58.6465
 31
0.0
  0
LINE
  8
0
 62
     0
 10
83.294
 20
58.6465
 30
0.0
 11
83.294
 21
59.6456
 31
0.0
  0
LINE
  8
0
 62
     0
 10
83.294
 20
59.6456
 30
0.0
 11
69.2933
 21
59.6456
 31
0.0
  0
LINE
  8
0
 62
     0
 10
43.101
 20
59.6456
 30
0.0
 11
43.101
 21
58.6465
 31
0.0
  0
LINE
  8
0
 62
     0
 10
43.101
 20
58.6465
 30
0.0
 11
42.3002
 21
58.6465
 31
0.0
  0
LINE
  8
0
 62
     0
 10
42.3002
 20
58.6465
 30
0.0
 11
42.3002
 21
55.5459
 31
0.0
  0
LINE
  8
0
 62
     0
 10
42.3002
 20
55.5459
 30
0.0
 11
43.101
 21
55.5459
 31
0.0
  0
LINE
  8
0
 62
     0
 10
43.101
 20
55.5459
 30
0.0
 11
43.101
 21
49.7459
 31
0.0
  0
LINE
  8
0
 62
     0
 10
43.101
 20
49.7459
 30
0.0
 11
42.3002
 21
49.7459
 31
0.0
  0
LINE
  8
0
 62
     0
 10
42.3002
 20
49.7459
 30
0.0
 11
42.3002
 21
46.6467
 31
0.0
  0
LINE
  8
0
 62
     0
 10
42.3002
 20
46.6467
 30
0.0
 11
43.101
 21
46.6467
 31
0.0
  0
LINE
  8
0
 62
     0
 10
43.101
 20
46.6467
 30
0.0
 11
43.101
 21
45.6463
 31
0.0
  0
LINE
  8
0
 62
     0
 10
43.101
 20
45.6463
 30
0.0
 11
57.1003
 21
45.6463
 31
0.0
  0
LINE
  8
0
 62
     0
 10
57.1003
 20
45.6463
 30
0.0
 11
57.1003
 21
46.6467
 31
0.0
  0
LINE
  8
0
 62
     0
 10
57.1003
 20
46.6467
 30
0.0
 11
57.9011
 21
46.6467
 31
0.0
  0
LINE
  8
0
 62
     0
 10
57.9011
 20
46.6467
 30
0.0
 11
57.9011
 21
49.7459
 31
0.0
  0
LINE
  8
0
 62
     0
 10
57.9011
 20
49.7459
 30
0.0
 11
57.1003
 21
49.7459
 31
0.0
  0
LINE
  8
0
 62
     0
 10
57.1003
 20
49.7459
 30
0.0
 11
57.1003
 21
55.5459
 31
0.0
  0
LINE
  8
0
 62
     0
 10
57.1003
 20
55.5459
 30
0.0
 11
57.9011
 21
55.5459
 31
0.0
  0
LINE
  8
0
 62
     0
 10
57.9011
 20
55.5459
 30
0.0
 11
57.9011
 21
58.6465
 31
0.0
  0
LINE
  8
0
 62
     0
 10
57.9011
 20
58.6465
 30
0.0
 11
57.1003
 21
58.6465
 31
0.0
  0
LINE
  8
0
 62
     0
 10
57.1003
 20
58.6465
 30
0.0
 11
57.1003
 21
59.6456
 31
0.0
  0
LINE
  8
0
 62
     0
 10
57.1003
 20
59.6456
 30
0.0
 11
43.101
 21
59.6456
 31
0.0
  0
LINE
  8
0
 62
     0
 10
5.00091
 20
66.7907
 30
0.0
 11
5.00091
 21
65.7902
 31
0.0
  0
LINE
  8
0
 62
     0
 10
5.00091
 20
65.7902
 30
0.0
 11
4.20028
 21
65.7902
 31
0.0
  0
LINE
  8
0
 62
     0
 10
4.20028
 20
65.7902
 30
0.0
 11
4.20028
 21
62.6897
 31
0.0
  0
LINE
  8
0
 62
     0
 10
4.20028
 20
62.6897
 30
0.0
 11
5.00091
 21
62.6897
 31
0.0
  0
LINE
  8
0
 62
     0
 10
5.00091
 20
62.6897
 30
0.0
 11
5.00091
 21
56.8911
 31
0.0
  0
LINE
  8
0
 62
     0
 10
5.00091
 20
56.8911
 30
0.0
 11
4.20028
 21
56.8911
 31
0.0
  0
LINE
  8
0
 62
     0
 10
4.20028
 20
56.8911
 30
0.0
 11
4.20028
 21
53.7905
 31
0.0
  0
LINE
  8
0
 62
     0
 10
4.20028
 20
53.7905
 30
0.0
 11
5.00091
 21
53.7905
 31
0.0
  0
LINE
  8
0
 62
     0
 10
5.00091
 20
53.7905
 30
0.0
 11
5.00091
 21
52.79
 31
0.0
  0
LINE
  8
0
 62
     0
 10
5.00091
 20
52.79
 30
0.0
 11
19.0004
 21
52.79
 31
0.0
  0
LINE
  8
0
 62
     0
 10
19.0004
 20
52.79
 30
0.0
 11
19.0004
 21
53.7905
 31
0.0
  0
LINE
  8
0
 62
     0
 10
19.0004
 20
53.7905
 30
0.0
 11
19.801
 21
53.7905
 31
0.0
  0
LINE
  8
0
 62
     0
 10
19.801
 20
53.7905
 30
0.0
 11
19.801
 21
56.8911
 31
0.0
  0
LINE
  8
0
 62
     0
 10
19.801
 20
56.8911
 30
0.0
 11
19.0004
 21
56.8911
 31
0.0
  0
LINE
  8
0
 62
     0
 10
19.0004
 20
56.8911
 30
0.0
 11
19.0004
 21
62.6897
 31
0.0
  0
LINE
  8
0
 62
     0
 10
19.0004
 20
62.6897
 30
0.0
 11
19.801
 21
62.6897
 31
0.0
  0
LINE
  8
0
 62
     0
 10
19.801
 20
62.6897
 30
0.0
 11
19.801
 21
65.7902
 31
0.0
  0
LINE
  8
0
 62
     0
 10
19.801
 20
65.7902
 30
0.0
 11
19.0004
 21
65.7902
 31
0.0
  0
LINE
  8
0
 62
     0
 10
19.0004
 20
65.7902
 30
0.0
 11
19.0004
 21
66.7907
 31
0.0
  0
LINE
  8
0
 62
     0
 10
19.0004
 20
66.7907
 30
0.0
 11
5.00091
 21
66.7907
 31
0.0
  0
LINE
  8
0
 62
     0
 10
335.995
 20
78.6956
 30
0.0
 11
335.995
 21
77.6965
 31
0.0
  0
LINE
  8
0
 62
     0
 10
335.995
 20
77.6965
 30
0.0
 11
335.194
 21
77.6965
 31
0.0
  0
LINE
  8
0
 62
     0
 10
335.194
 20
77.6965
 30
0.0
 11
335.194
 21
74.5959
 31
0.0
  0
LINE
  8
0
 62
     0
 10
335.194
 20
74.5959
 30
0.0
 11
335.995
 21
74.5959
 31
0.0
  0
LINE
  8
0
 62
     0
 10
335.995
 20
74.5959
 30
0.0
 11
335.995
 21
68.7959
 31
0.0
  0
LINE
  8
0
 62
     0
 10
335.995
 20
68.7959
 30
0.0
 11
335.194
 21
68.7959
 31
0.0
  0
LINE
  8
0
 62
     0
 10
335.194
 20
68.7959
 30
0.0
 11
335.194
 21
65.6967
 31
0.0
  0
LINE
  8
0
 62
     0
 10
335.194
 20
65.6967
 30
0.0
 11
335.995
 21
65.6967
 31
0.0
  0
LINE
  8
0
 62
     0
 10
335.995
 20
65.6967
 30
0.0
 11
335.995
 21
64.6963
 31
0.0
  0
LINE
  8
0
 62
     0
 10
335.995
 20
64.6963
 30
0.0
 11
349.994
 21
64.6963
 31
0.0
  0
LINE
  8
0
 62
     0
 10
349.994
 20
64.6963
 30
0.0
 11
349.994
 21
65.6967
 31
0.0
  0
LINE
  8
0
 62
     0
 10
349.994
 20
65.6967
 30
0.0
 11
350.795
 21
65.6967
 31
0.0
  0
LINE
  8
0
 62
     0
 10
350.795
 20
65.6967
 30
0.0
 11
350.795
 21
68.7959
 31
0.0
  0
LINE
  8
0
 62
     0
 10
350.795
 20
68.7959
 30
0.0
 11
349.994
 21
68.7959
 31
0.0
  0
LINE
  8
0
 62
     0
 10
349.994
 20
68.7959
 30
0.0
 11
349.994
 21
74.5959
 31
0.0
  0
LINE
  8
0
 62
     0
 10
349.994
 20
74.5959
 30
0.0
 11
350.795
 21
74.5959
 31
0.0
  0
LINE
  8
0
 62
     0
 10
350.795
 20
74.5959
 30
0.0
 11
350.795
 21
77.6965
 31
0.0
  0
LINE
  8
0
 62
     0
 10
350.795
 20
77.6965
 30
0.0
 11
349.994
 21
77.6965
 31
0.0
  0
LINE
  8
0
 62
     0
 10
349.994
 20
77.6965
 30
0.0
 11
349.994
 21
78.6956
 31
0.0
  0
LINE
  8
0
 62
     0
 10
349.994
 20
78.6956
 30
0.0
 11
335.995
 21
78.6956
 31
0.0
  0
LINE
  8
0
 62
     0
 10
297.895
 20
78.6956
 30
0.0
 11
297.895
 21
77.6965
 31
0.0
  0
LINE
  8
0
 62
     0
 10
297.895
 20
77.6965
 30
0.0
 11
297.094
 21
77.6965
 31
0.0
  0
LINE
  8
0
 62
     0
 10
297.094
 20
77.6965
 30
0.0
 11
297.094
 21
74.5959
 31
0.0
  0
LINE
  8
0
 62
     0
 10
297.094
 20
74.5959
 30
0.0
 11
297.895
 21
74.5959
 31
0.0
  0
LINE
  8
0
 62
     0
 10
297.895
 20
74.5959
 30
0.0
 11
297.895
 21
68.7959
 31
0.0
  0
LINE
  8
0
 62
     0
 10
297.895
 20
68.7959
 30
0.0
 11
297.094
 21
68.7959
 31
0.0
  0
LINE
  8
0
 62
     0
 10
297.094
 20
68.7959
 30
0.0
 11
297.094
 21
65.6967
 31
0.0
  0
LINE
  8
0
 62
     0
 10
297.094
 20
65.6967
 30
0.0
 11
297.895
 21
65.6967
 31
0.0
  0
LINE
  8
0
 62
     0
 10
297.895
 20
65.6967
 30
0.0
 11
297.895
 21
64.6963
 31
0.0
  0
LINE
  8
0
 62
     0
 10
297.895
 20
64.6963
 30
0.0
 11
311.894
 21
64.6963
 31
0.0
  0
LINE
  8
0
 62
     0
 10
311.894
 20
64.6963
 30
0.0
 11
311.894
 21
65.6967
 31
0.0
  0
LINE
  8
0
 62
     0
 10
311.894
 20
65.6967
 30
0.0
 11
312.695
 21
65.6967
 31
0.0
  0
LINE
  8
0
 62
     0
 10
312.695
 20
65.6967
 30
0.0
 11
312.695
 21
68.7959
 31
0.0
  0
LINE
  8
0
 62
     0
 10
312.695
 20
68.7959
 30
0.0
 11
311.894
 21
68.7959
 31
0.0
  0
LINE
  8
0
 62
     0
 10
311.894
 20
68.7959
 30
0.0
 11
311.894
 21
74.5959
 31
0.0
  0
LINE
  8
0
 62
     0
 10
311.894
 20
74.5959
 30
0.0
 11
312.695
 21
74.5959
 31
0.0
  0
LINE
  8
0
 62
     0
 10
312.695
 20
74.5959
 30
0.0
 11
312.695
 21
77.6965
 31
0.0
  0
LINE
  8
0
 62
     0
 10
312.695
 20
77.6965
 30
0.0
 11
311.894
 21
77.6965
 31
0.0
  0
LINE
  8
0
 62
     0
 10
311.894
 20
77.6965
 30
0.0
 11
311.894
 21
78.6956
 31
0.0
  0
LINE
  8
0
 62
     0
 10
311.894
 20
78.6956
 30
0.0
 11
297.895
 21
78.6956
 31
0.0
  0
LINE
  8
0
 62
     0
 10
274.082
 20
78.6956
 30
0.0
 11
274.082
 21
77.6965
 31
0.0
  0
LINE
  8
0
 62
     0
 10
274.082
 20
77.6965
 30
0.0
 11
273.281
 21
77.6965
 31
0.0
  0
LINE
  8
0
 62
     0
 10
273.281
 20
77.6965
 30
0.0
 11
273.281
 21
74.5959
 31
0.0
  0
LINE
  8
0
 62
     0
 10
273.281
 20
74.5959
 30
0.0
 11
274.082
 21
74.5959
 31
0.0
  0
LINE
  8
0
 62
     0
 10
274.082
 20
74.5959
 30
0.0
 11
274.082
 21
68.7959
 31
0.0
  0
LINE
  8
0
 62
     0
 10
274.082
 20
68.7959
 30
0.0
 11
273.281
 21
68.7959
 31
0.0
  0
LINE
  8
0
 62
     0
 10
273.281
 20
68.7959
 30
0.0
 11
273.281
 21
65.6967
 31
0.0
  0
LINE
  8
0
 62
     0
 10
273.281
 20
65.6967
 30
0.0
 11
274.082
 21
65.6967
 31
0.0
  0
LINE
  8
0
 62
     0
 10
274.082
 20
65.6967
 30
0.0
 11
274.082
 21
64.6963
 31
0.0
  0
LINE
  8
0
 62
     0
 10
274.082
 20
64.6963
 30
0.0
 11
288.082
 21
64.6963
 31
0.0
  0
LINE
  8
0
 62
     0
 10
288.082
 20
64.6963
 30
0.0
 11
288.082
 21
65.6967
 31
0.0
  0
LINE
  8
0
 62
     0
 10
288.082
 20
65.6967
 30
0.0
 11
288.881
 21
65.6967
 31
0.0
  0
LINE
  8
0
 62
     0
 10
288.881
 20
65.6967
 30
0.0
 11
288.881
 21
68.7959
 31
0.0
  0
LINE
  8
0
 62
     0
 10
288.881
 20
68.7959
 30
0.0
 11
288.082
 21
68.7959
 31
0.0
  0
LINE
  8
0
 62
     0
 10
288.082
 20
68.7959
 30
0.0
 11
288.082
 21
74.5959
 31
0.0
  0
LINE
  8
0
 62
     0
 10
288.082
 20
74.5959
 30
0.0
 11
288.881
 21
74.5959
 31
0.0
  0
LINE
  8
0
 62
     0
 10
288.881
 20
74.5959
 30
0.0
 11
288.881
 21
77.6965
 31
0.0
  0
LINE
  8
0
 62
     0
 10
288.881
 20
77.6965
 30
0.0
 11
288.082
 21
77.6965
 31
0.0
  0
LINE
  8
0
 62
     0
 10
288.082
 20
77.6965
 30
0.0
 11
288.082
 21
78.6956
 31
0.0
  0
LINE
  8
0
 62
     0
 10
288.082
 20
78.6956
 30
0.0
 11
274.082
 21
78.6956
 31
0.0
  0
LINE
  8
0
 62
     0
 10
255.032
 20
78.6956
 30
0.0
 11
255.032
 21
77.6965
 31
0.0
  0
LINE
  8
0
 62
     0
 10
255.032
 20
77.6965
 30
0.0
 11
254.231
 21
77.6965
 31
0.0
  0
LINE
  8
0
 62
     0
 10
254.231
 20
77.6965
 30
0.0
 11
254.231
 21
74.5959
 31
0.0
  0
LINE
  8
0
 62
     0
 10
254.231
 20
74.5959
 30
0.0
 11
255.032
 21
74.5959
 31
0.0
  0
LINE
  8
0
 62
     0
 10
255.032
 20
74.5959
 30
0.0
 11
255.032
 21
68.7959
 31
0.0
  0
LINE
  8
0
 62
     0
 10
255.032
 20
68.7959
 30
0.0
 11
254.231
 21
68.7959
 31
0.0
  0
LINE
  8
0
 62
     0
 10
254.231
 20
68.7959
 30
0.0
 11
254.231
 21
65.6967
 31
0.0
  0
LINE
  8
0
 62
     0
 10
254.231
 20
65.6967
 30
0.0
 11
255.032
 21
65.6967
 31
0.0
  0
LINE
  8
0
 62
     0
 10
255.032
 20
65.6967
 30
0.0
 11
255.032
 21
64.6963
 31
0.0
  0
LINE
  8
0
 62
     0
 10
255.032
 20
64.6963
 30
0.0
 11
269.032
 21
64.6963
 31
0.0
  0
LINE
  8
0
 62
     0
 10
269.032
 20
64.6963
 30
0.0
 11
269.032
 21
65.6967
 31
0.0
  0
LINE
  8
0
 62
     0
 10
269.032
 20
65.6967
 30
0.0
 11
269.831
 21
65.6967
 31
0.0
  0
LINE
  8
0
 62
     0
 10
269.831
 20
65.6967
 30
0.0
 11
269.831
 21
68.7959
 31
0.0
  0
LINE
  8
0
 62
     0
 10
269.831
 20
68.7959
 30
0.0
 11
269.032
 21
68.7959
 31
0.0
  0
LINE
  8
0
 62
     0
 10
269.032
 20
68.7959
 30
0.0
 11
269.032
 21
74.5959
 31
0.0
  0
LINE
  8
0
 62
     0
 10
269.032
 20
74.5959
 30
0.0
 11
269.831
 21
74.5959
 31
0.0
  0
LINE
  8
0
 62
     0
 10
269.831
 20
74.5959
 30
0.0
 11
269.831
 21
77.6965
 31
0.0
  0
LINE
  8
0
 62
     0
 10
269.831
 20
77.6965
 30
0.0
 11
269.032
 21
77.6965
 31
0.0
  0
LINE
  8
0
 62
     0
 10
269.032
 20
77.6965
 30
0.0
 11
269.032
 21
78.6956
 31
0.0
  0
LINE
  8
0
 62
     0
 10
269.032
 20
78.6956
 30
0.0
 11
255.032
 21
78.6956
 31
0.0
  0
LINE
  8
0
 62
     0
 10
235.982
 20
78.6956
 30
0.0
 11
235.982
 21
77.6965
 31
0.0
  0
LINE
  8
0
 62
     0
 10
235.982
 20
77.6965
 30
0.0
 11
235.181
 21
77.6965
 31
0.0
  0
LINE
  8
0
 62
     0
 10
235.181
 20
77.6965
 30
0.0
 11
235.181
 21
74.5959
 31
0.0
  0
LINE
  8
0
 62
     0
 10
235.181
 20
74.5959
 30
0.0
 11
235.982
 21
74.5959
 31
0.0
  0
LINE
  8
0
 62
     0
 10
235.982
 20
74.5959
 30
0.0
 11
235.982
 21
68.7959
 31
0.0
  0
LINE
  8
0
 62
     0
 10
235.982
 20
68.7959
 30
0.0
 11
235.181
 21
68.7959
 31
0.0
  0
LINE
  8
0
 62
     0
 10
235.181
 20
68.7959
 30
0.0
 11
235.181
 21
65.6967
 31
0.0
  0
LINE
  8
0
 62
     0
 10
235.181
 20
65.6967
 30
0.0
 11
235.982
 21
65.6967
 31
0.0
  0
LINE
  8
0
 62
     0
 10
235.982
 20
65.6967
 30
0.0
 11
235.982
 21
64.6963
 31
0.0
  0
LINE
  8
0
 62
     0
 10
235.982
 20
64.6963
 30
0.0
 11
249.982
 21
64.6963
 31
0.0
  0
LINE
  8
0
 62
     0
 10
249.982
 20
64.6963
 30
0.0
 11
249.982
 21
65.6967
 31
0.0
  0
LINE
  8
0
 62
     0
 10
249.982
 20
65.6967
 30
0.0
 11
250.781
 21
65.6967
 31
0.0
  0
LINE
  8
0
 62
     0
 10
250.781
 20
65.6967
 30
0.0
 11
250.781
 21
68.7959
 31
0.0
  0
LINE
  8
0
 62
     0
 10
250.781
 20
68.7959
 30
0.0
 11
249.982
 21
68.7959
 31
0.0
  0
LINE
  8
0
 62
     0
 10
249.982
 20
68.7959
 30
0.0
 11
249.982
 21
74.5959
 31
0.0
  0
LINE
  8
0
 62
     0
 10
249.982
 20
74.5959
 30
0.0
 11
250.781
 21
74.5959
 31
0.0
  0
LINE
  8
0
 62
     0
 10
250.781
 20
74.5959
 30
0.0
 11
250.781
 21
77.6965
 31
0.0
  0
LINE
  8
0
 62
     0
 10
250.781
 20
77.6965
 30
0.0
 11
249.982
 21
77.6965
 31
0.0
  0
LINE
  8
0
 62
     0
 10
249.982
 20
77.6965
 30
0.0
 11
249.982
 21
78.6956
 31
0.0
  0
LINE
  8
0
 62
     0
 10
249.982
 20
78.6956
 30
0.0
 11
235.982
 21
78.6956
 31
0.0
  0
LINE
  8
0
 62
     0
 10
216.932
 20
78.6956
 30
0.0
 11
216.932
 21
77.6965
 31
0.0
  0
LINE
  8
0
 62
     0
 10
216.932
 20
77.6965
 30
0.0
 11
216.131
 21
77.6965
 31
0.0
  0
LINE
  8
0
 62
     0
 10
216.131
 20
77.6965
 30
0.0
 11
216.131
 21
74.5959
 31
0.0
  0
LINE
  8
0
 62
     0
 10
216.131
 20
74.5959
 30
0.0
 11
216.932
 21
74.5959
 31
0.0
  0
LINE
  8
0
 62
     0
 10
216.932
 20
74.5959
 30
0.0
 11
216.932
 21
68.7959
 31
0.0
  0
LINE
  8
0
 62
     0
 10
216.932
 20
68.7959
 30
0.0
 11
216.131
 21
68.7959
 31
0.0
  0
LINE
  8
0
 62
     0
 10
216.131
 20
68.7959
 30
0.0
 11
216.131
 21
65.6967
 31
0.0
  0
LINE
  8
0
 62
     0
 10
216.131
 20
65.6967
 30
0.0
 11
216.932
 21
65.6967
 31
0.0
  0
LINE
  8
0
 62
     0
 10
216.932
 20
65.6967
 30
0.0
 11
216.932
 21
64.6963
 31
0.0
  0
LINE
  8
0
 62
     0
 10
216.932
 20
64.6963
 30
0.0
 11
230.932
 21
64.6963
 31
0.0
  0
LINE
  8
0
 62
     0
 10
230.932
 20
64.6963
 30
0.0
 11
230.932
 21
65.6967
 31
0.0
  0
LINE
  8
0
 62
     0
 10
230.932
 20
65.6967
 30
0.0
 11
231.731
 21
65.6967
 31
0.0
  0
LINE
  8
0
 62
     0
 10
231.731
 20
65.6967
 30
0.0
 11
231.731
 21
68.7959
 31
0.0
  0
LINE
  8
0
 62
     0
 10
231.731
 20
68.7959
 30
0.0
 11
230.932
 21
68.7959
 31
0.0
  0
LINE
  8
0
 62
     0
 10
230.932
 20
68.7959
 30
0.0
 11
230.932
 21
74.5959
 31
0.0
  0
LINE
  8
0
 62
     0
 10
230.932
 20
74.5959
 30
0.0
 11
231.731
 21
74.5959
 31
0.0
  0
LINE
  8
0
 62
     0
 10
231.731
 20
74.5959
 30
0.0
 11
231.731
 21
77.6965
 31
0.0
  0
LINE
  8
0
 62
     0
 10
231.731
 20
77.6965
 30
0.0
 11
230.932
 21
77.6965
 31
0.0
  0
LINE
  8
0
 62
     0
 10
230.932
 20
77.6965
 30
0.0
 11
230.932
 21
78.6956
 31
0.0
  0
LINE
  8
0
 62
     0
 10
230.932
 20
78.6956
 30
0.0
 11
216.932
 21
78.6956
 31
0.0
  0
LINE
  8
0
 62
     0
 10
197.882
 20
78.6956
 30
0.0
 11
197.882
 21
77.6965
 31
0.0
  0
LINE
  8
0
 62
     0
 10
197.882
 20
77.6965
 30
0.0
 11
197.081
 21
77.6965
 31
0.0
  0
LINE
  8
0
 62
     0
 10
197.081
 20
77.6965
 30
0.0
 11
197.081
 21
74.5959
 31
0.0
  0
LINE
  8
0
 62
     0
 10
197.081
 20
74.5959
 30
0.0
 11
197.882
 21
74.5959
 31
0.0
  0
LINE
  8
0
 62
     0
 10
197.882
 20
74.5959
 30
0.0
 11
197.882
 21
68.7959
 31
0.0
  0
LINE
  8
0
 62
     0
 10
197.882
 20
68.7959
 30
0.0
 11
197.081
 21
68.7959
 31
0.0
  0
LINE
  8
0
 62
     0
 10
197.081
 20
68.7959
 30
0.0
 11
197.081
 21
65.6967
 31
0.0
  0
LINE
  8
0
 62
     0
 10
197.081
 20
65.6967
 30
0.0
 11
197.882
 21
65.6967
 31
0.0
  0
LINE
  8
0
 62
     0
 10
197.882
 20
65.6967
 30
0.0
 11
197.882
 21
64.6963
 31
0.0
  0
LINE
  8
0
 62
     0
 10
197.882
 20
64.6963
 30
0.0
 11
211.882
 21
64.6963
 31
0.0
  0
LINE
  8
0
 62
     0
 10
211.882
 20
64.6963
 30
0.0
 11
211.882
 21
65.6967
 31
0.0
  0
LINE
  8
0
 62
     0
 10
211.882
 20
65.6967
 30
0.0
 11
212.681
 21
65.6967
 31
0.0
  0
LINE
  8
0
 62
     0
 10
212.681
 20
65.6967
 30
0.0
 11
212.681
 21
68.7959
 31
0.0
  0
LINE
  8
0
 62
     0
 10
212.681
 20
68.7959
 30
0.0
 11
211.882
 21
68.7959
 31
0.0
  0
LINE
  8
0
 62
     0
 10
211.882
 20
68.7959
 30
0.0
 11
211.882
 21
74.5959
 31
0.0
  0
LINE
  8
0
 62
     0
 10
211.882
 20
74.5959
 30
0.0
 11
212.681
 21
74.5959
 31
0.0
  0
LINE
  8
0
 62
     0
 10
212.681
 20
74.5959
 30
0.0
 11
212.681
 21
77.6965
 31
0.0
  0
LINE
  8
0
 62
     0
 10
212.681
 20
77.6965
 30
0.0
 11
211.882
 21
77.6965
 31
0.0
  0
LINE
  8
0
 62
     0
 10
211.882
 20
77.6965
 30
0.0
 11
211.882
 21
78.6956
 31
0.0
  0
LINE
  8
0
 62
     0
 10
211.882
 20
78.6956
 30
0.0
 11
197.882
 21
78.6956
 31
0.0
  0
LINE
  8
0
 62
     0
 10
178.832
 20
78.6956
 30
0.0
 11
178.832
 21
77.6965
 31
0.0
  0
LINE
  8
0
 62
     0
 10
178.832
 20
77.6965
 30
0.0
 11
178.031
 21
77.6965
 31
0.0
  0
LINE
  8
0
 62
     0
 10
178.031
 20
77.6965
 30
0.0
 11
178.031
 21
74.5959
 31
0.0
  0
LINE
  8
0
 62
     0
 10
178.031
 20
74.5959
 30
0.0
 11
178.832
 21
74.5959
 31
0.0
  0
LINE
  8
0
 62
     0
 10
178.832
 20
74.5959
 30
0.0
 11
178.832
 21
68.7959
 31
0.0
  0
LINE
  8
0
 62
     0
 10
178.832
 20
68.7959
 30
0.0
 11
178.031
 21
68.7959
 31
0.0
  0
LINE
  8
0
 62
     0
 10
178.031
 20
68.7959
 30
0.0
 11
178.031
 21
65.6967
 31
0.0
  0
LINE
  8
0
 62
     0
 10
178.031
 20
65.6967
 30
0.0
 11
178.832
 21
65.6967
 31
0.0
  0
LINE
  8
0
 62
     0
 10
178.832
 20
65.6967
 30
0.0
 11
178.832
 21
64.6963
 31
0.0
  0
LINE
  8
0
 62
     0
 10
178.832
 20
64.6963
 30
0.0
 11
192.832
 21
64.6963
 31
0.0
  0
LINE
  8
0
 62
     0
 10
192.832
 20
64.6963
 30
0.0
 11
192.832
 21
65.6967
 31
0.0
  0
LINE
  8
0
 62
     0
 10
192.832
 20
65.6967
 30
0.0
 11
193.631
 21
65.6967
 31
0.0
  0
LINE
  8
0
 62
     0
 10
193.631
 20
65.6967
 30
0.0
 11
193.631
 21
68.7959
 31
0.0
  0
LINE
  8
0
 62
     0
 10
193.631
 20
68.7959
 30
0.0
 11
192.832
 21
68.7959
 31
0.0
  0
LINE
  8
0
 62
     0
 10
192.832
 20
68.7959
 30
0.0
 11
192.832
 21
74.5959
 31
0.0
  0
LINE
  8
0
 62
     0
 10
192.832
 20
74.5959
 30
0.0
 11
193.631
 21
74.5959
 31
0.0
  0
LINE
  8
0
 62
     0
 10
193.631
 20
74.5959
 30
0.0
 11
193.631
 21
77.6965
 31
0.0
  0
LINE
  8
0
 62
     0
 10
193.631
 20
77.6965
 30
0.0
 11
192.832
 21
77.6965
 31
0.0
  0
LINE
  8
0
 62
     0
 10
192.832
 20
77.6965
 30
0.0
 11
192.832
 21
78.6956
 31
0.0
  0
LINE
  8
0
 62
     0
 10
192.832
 20
78.6956
 30
0.0
 11
178.832
 21
78.6956
 31
0.0
  0
LINE
  8
0
 62
     0
 10
159.782
 20
78.6956
 30
0.0
 11
159.782
 21
77.6965
 31
0.0
  0
LINE
  8
0
 62
     0
 10
159.782
 20
77.6965
 30
0.0
 11
158.981
 21
77.6965
 31
0.0
  0
LINE
  8
0
 62
     0
 10
158.981
 20
77.6965
 30
0.0
 11
158.981
 21
74.5959
 31
0.0
  0
LINE
  8
0
 62
     0
 10
158.981
 20
74.5959
 30
0.0
 11
159.782
 21
74.5959
 31
0.0
  0
LINE
  8
0
 62
     0
 10
159.782
 20
74.5959
 30
0.0
 11
159.782
 21
68.7959
 31
0.0
  0
LINE
  8
0
 62
     0
 10
159.782
 20
68.7959
 30
0.0
 11
158.981
 21
68.7959
 31
0.0
  0
LINE
  8
0
 62
     0
 10
158.981
 20
68.7959
 30
0.0
 11
158.981
 21
65.6967
 31
0.0
  0
LINE
  8
0
 62
     0
 10
158.981
 20
65.6967
 30
0.0
 11
159.782
 21
65.6967
 31
0.0
  0
LINE
  8
0
 62
     0
 10
159.782
 20
65.6967
 30
0.0
 11
159.782
 21
64.6963
 31
0.0
  0
LINE
  8
0
 62
     0
 10
159.782
 20
64.6963
 30
0.0
 11
173.782
 21
64.6963
 31
0.0
  0
LINE
  8
0
 62
     0
 10
173.782
 20
64.6963
 30
0.0
 11
173.782
 21
65.6967
 31
0.0
  0
LINE
  8
0
 62
     0
 10
173.782
 20
65.6967
 30
0.0
 11
174.581
 21
65.6967
 31
0.0
  0
LINE
  8
0
 62
     0
 10
174.581
 20
65.6967
 30
0.0
 11
174.581
 21
68.7959
 31
0.0
  0
LINE
  8
0
 62
     0
 10
174.581
 20
68.7959
 30
0.0
 11
173.782
 21
68.7959
 31
0.0
  0
LINE
  8
0
 62
     0
 10
173.782
 20
68.7959
 30
0.0
 11
173.782
 21
74.5959
 31
0.0
  0
LINE
  8
0
 62
     0
 10
173.782
 20
74.5959
 30
0.0
 11
174.581
 21
74.5959
 31
0.0
  0
LINE
  8
0
 62
     0
 10
174.581
 20
74.5959
 30
0.0
 11
174.581
 21
77.6965
 31
0.0
  0
LINE
  8
0
 62
     0
 10
174.581
 20
77.6965
 30
0.0
 11
173.782
 21
77.6965
 31
0.0
  0
LINE
  8
0
 62
     0
 10
173.782
 20
77.6965
 30
0.0
 11
173.782
 21
78.6956
 31
0.0
  0
LINE
  8
0
 62
     0
 10
173.782
 20
78.6956
 30
0.0
 11
159.782
 21
78.6956
 31
0.0
  0
LINE
  8
0
 62
     0
 10
140.732
 20
78.6956
 30
0.0
 11
140.732
 21
77.6965
 31
0.0
  0
LINE
  8
0
 62
     0
 10
140.732
 20
77.6965
 30
0.0
 11
139.931
 21
77.6965
 31
0.0
  0
LINE
  8
0
 62
     0
 10
139.931
 20
77.6965
 30
0.0
 11
139.931
 21
74.5959
 31
0.0
  0
LINE
  8
0
 62
     0
 10
139.931
 20
74.5959
 30
0.0
 11
140.732
 21
74.5959
 31
0.0
  0
LINE
  8
0
 62
     0
 10
140.732
 20
74.5959
 30
0.0
 11
140.732
 21
68.7959
 31
0.0
  0
LINE
  8
0
 62
     0
 10
140.732
 20
68.7959
 30
0.0
 11
139.931
 21
68.7959
 31
0.0
  0
LINE
  8
0
 62
     0
 10
139.931
 20
68.7959
 30
0.0
 11
139.931
 21
65.6967
 31
0.0
  0
LINE
  8
0
 62
     0
 10
139.931
 20
65.6967
 30
0.0
 11
140.732
 21
65.6967
 31
0.0
  0
LINE
  8
0
 62
     0
 10
140.732
 20
65.6967
 30
0.0
 11
140.732
 21
64.6963
 31
0.0
  0
LINE
  8
0
 62
     0
 10
140.732
 20
64.6963
 30
0.0
 11
154.732
 21
64.6963
 31
0.0
  0
LINE
  8
0
 62
     0
 10
154.732
 20
64.6963
 30
0.0
 11
154.732
 21
65.6967
 31
0.0
  0
LINE
  8
0
 62
     0
 10
154.732
 20
65.6967
 30
0.0
 11
155.531
 21
65.6967
 31
0.0
  0
LINE
  8
0
 62
     0
 10
155.531
 20
65.6967
 30
0.0
 11
155.531
 21
68.7959
 31
0.0
  0
LINE
  8
0
 62
     0
 10
155.531
 20
68.7959
 30
0.0
 11
154.732
 21
68.7959
 31
0.0
  0
LINE
  8
0
 62
     0
 10
154.732
 20
68.7959
 30
0.0
 11
154.732
 21
74.5959
 31
0.0
  0
LINE
  8
0
 62
     0
 10
154.732
 20
74.5959
 30
0.0
 11
155.531
 21
74.5959
 31
0.0
  0
LINE
  8
0
 62
     0
 10
155.531
 20
74.5959
 30
0.0
 11
155.531
 21
77.6965
 31
0.0
  0
LINE
  8
0
 62
     0
 10
155.531
 20
77.6965
 30
0.0
 11
154.732
 21
77.6965
 31
0.0
  0
LINE
  8
0
 62
     0
 10
154.732
 20
77.6965
 30
0.0
 11
154.732
 21
78.6956
 31
0.0
  0
LINE
  8
0
 62
     0
 10
154.732
 20
78.6956
 30
0.0
 11
140.732
 21
78.6956
 31
0.0
  0
LINE
  8
0
 62
     0
 10
121.682
 20
78.6956
 30
0.0
 11
121.682
 21
77.6965
 31
0.0
  0
LINE
  8
0
 62
     0
 10
121.682
 20
77.6965
 30
0.0
 11
120.881
 21
77.6965
 31
0.0
  0
LINE
  8
0
 62
     0
 10
120.881
 20
77.6965
 30
0.0
 11
120.881
 21
74.5959
 31
0.0
  0
LINE
  8
0
 62
     0
 10
120.881
 20
74.5959
 30
0.0
 11
121.682
 21
74.5959
 31
0.0
  0
LINE
  8
0
 62
     0
 10
121.682
 20
74.5959
 30
0.0
 11
121.682
 21
68.7959
 31
0.0
  0
LINE
  8
0
 62
     0
 10
121.682
 20
68.7959
 30
0.0
 11
120.881
 21
68.7959
 31
0.0
  0
LINE
  8
0
 62
     0
 10
120.881
 20
68.7959
 30
0.0
 11
120.881
 21
65.6967
 31
0.0
  0
LINE
  8
0
 62
     0
 10
120.881
 20
65.6967
 30
0.0
 11
121.682
 21
65.6967
 31
0.0
  0
LINE
  8
0
 62
     0
 10
121.682
 20
65.6967
 30
0.0
 11
121.682
 21
64.6963
 31
0.0
  0
LINE
  8
0
 62
     0
 10
121.682
 20
64.6963
 30
0.0
 11
135.682
 21
64.6963
 31
0.0
  0
LINE
  8
0
 62
     0
 10
135.682
 20
64.6963
 30
0.0
 11
135.682
 21
65.6967
 31
0.0
  0
LINE
  8
0
 62
     0
 10
135.682
 20
65.6967
 30
0.0
 11
136.481
 21
65.6967
 31
0.0
  0
LINE
  8
0
 62
     0
 10
136.481
 20
65.6967
 30
0.0
 11
136.481
 21
68.7959
 31
0.0
  0
LINE
  8
0
 62
     0
 10
136.481
 20
68.7959
 30
0.0
 11
135.682
 21
68.7959
 31
0.0
  0
LINE
  8
0
 62
     0
 10
135.682
 20
68.7959
 30
0.0
 11
135.682
 21
74.5959
 31
0.0
  0
LINE
  8
0
 62
     0
 10
135.682
 20
74.5959
 30
0.0
 11
136.481
 21
74.5959
 31
0.0
  0
LINE
  8
0
 62
     0
 10
136.481
 20
74.5959
 30
0.0
 11
136.481
 21
77.6965
 31
0.0
  0
LINE
  8
0
 62
     0
 10
136.481
 20
77.6965
 30
0.0
 11
135.682
 21
77.6965
 31
0.0
  0
LINE
  8
0
 62
     0
 10
135.682
 20
77.6965
 30
0.0
 11
135.682
 21
78.6956
 31
0.0
  0
LINE
  8
0
 62
     0
 10
135.682
 20
78.6956
 30
0.0
 11
121.682
 21
78.6956
 31
0.0
  0
LINE
  8
0
 62
     0
 10
102.632
 20
78.6956
 30
0.0
 11
102.632
 21
77.6965
 31
0.0
  0
LINE
  8
0
 62
     0
 10
102.632
 20
77.6965
 30
0.0
 11
101.831
 21
77.6965
 31
0.0
  0
LINE
  8
0
 62
     0
 10
101.831
 20
77.6965
 30
0.0
 11
101.831
 21
74.5959
 31
0.0
  0
LINE
  8
0
 62
     0
 10
101.831
 20
74.5959
 30
0.0
 11
102.632
 21
74.5959
 31
0.0
  0
LINE
  8
0
 62
     0
 10
102.632
 20
74.5959
 30
0.0
 11
102.632
 21
68.7959
 31
0.0
  0
LINE
  8
0
 62
     0
 10
102.632
 20
68.7959
 30
0.0
 11
101.831
 21
68.7959
 31
0.0
  0
LINE
  8
0
 62
     0
 10
101.831
 20
68.7959
 30
0.0
 11
101.831
 21
65.6967
 31
0.0
  0
LINE
  8
0
 62
     0
 10
101.831
 20
65.6967
 30
0.0
 11
102.632
 21
65.6967
 31
0.0
  0
LINE
  8
0
 62
     0
 10
102.632
 20
65.6967
 30
0.0
 11
102.632
 21
64.6963
 31
0.0
  0
LINE
  8
0
 62
     0
 10
102.632
 20
64.6963
 30
0.0
 11
116.632
 21
64.6963
 31
0.0
  0
LINE
  8
0
 62
     0
 10
116.632
 20
64.6963
 30
0.0
 11
116.632
 21
65.6967
 31
0.0
  0
LINE
  8
0
 62
     0
 10
116.632
 20
65.6967
 30
0.0
 11
117.431
 21
65.6967
 31
0.0
  0
LINE
  8
0
 62
     0
 10
117.431
 20
65.6967
 30
0.0
 11
117.431
 21
68.7959
 31
0.0
  0
LINE
  8
0
 62
     0
 10
117.431
 20
68.7959
 30
0.0
 11
116.632
 21
68.7959
 31
0.0
  0
LINE
  8
0
 62
     0
 10
116.632
 20
68.7959
 30
0.0
 11
116.632
 21
74.5959
 31
0.0
  0
LINE
  8
0
 62
     0
 10
116.632
 20
74.5959
 30
0.0
 11
117.431
 21
74.5959
 31
0.0
  0
LINE
  8
0
 62
     0
 10
117.431
 20
74.5959
 30
0.0
 11
117.431
 21
77.6965
 31
0.0
  0
LINE
  8
0
 62
     0
 10
117.431
 20
77.6965
 30
0.0
 11
116.632
 21
77.6965
 31
0.0
  0
LINE
  8
0
 62
     0
 10
116.632
 20
77.6965
 30
0.0
 11
116.632
 21
78.6956
 31
0.0
  0
LINE
  8
0
 62
     0
 10
116.632
 20
78.6956
 30
0.0
 11
102.632
 21
78.6956
 31
0.0
  0
LINE
  8
0
 62
     0
 10
83.5822
 20
78.6956
 30
0.0
 11
83.5822
 21
77.6965
 31
0.0
  0
LINE
  8
0
 62
     0
 10
83.5822
 20
77.6965
 30
0.0
 11
82.7814
 21
77.6965
 31
0.0
  0
LINE
  8
0
 62
     0
 10
82.7814
 20
77.6965
 30
0.0
 11
82.7814
 21
74.5959
 31
0.0
  0
LINE
  8
0
 62
     0
 10
82.7814
 20
74.5959
 30
0.0
 11
83.5822
 21
74.5959
 31
0.0
  0
LINE
  8
0
 62
     0
 10
83.5822
 20
74.5959
 30
0.0
 11
83.5822
 21
68.7959
 31
0.0
  0
LINE
  8
0
 62
     0
 10
83.5822
 20
68.7959
 30
0.0
 11
82.7814
 21
68.7959
 31
0.0
  0
LINE
  8
0
 62
     0
 10
82.7814
 20
68.7959
 30
0.0
 11
82.7814
 21
65.6967
 31
0.0
  0
LINE
  8
0
 62
     0
 10
82.7814
 20
65.6967
 30
0.0
 11
83.5822
 21
65.6967
 31
0.0
  0
LINE
  8
0
 62
     0
 10
83.5822
 20
65.6967
 30
0.0
 11
83.5822
 21
64.6963
 31
0.0
  0
LINE
  8
0
 62
     0
 10
83.5822
 20
64.6963
 30
0.0
 11
97.5815
 21
64.6963
 31
0.0
  0
LINE
  8
0
 62
     0
 10
97.5815
 20
64.6963
 30
0.0
 11
97.5815
 21
65.6967
 31
0.0
  0
LINE
  8
0
 62
     0
 10
97.5815
 20
65.6967
 30
0.0
 11
98.3809
 21
65.6967
 31
0.0
  0
LINE
  8
0
 62
     0
 10
98.3809
 20
65.6967
 30
0.0
 11
98.3809
 21
68.7959
 31
0.0
  0
LINE
  8
0
 62
     0
 10
98.3809
 20
68.7959
 30
0.0
 11
97.5815
 21
68.7959
 31
0.0
  0
LINE
  8
0
 62
     0
 10
97.5815
 20
68.7959
 30
0.0
 11
97.5815
 21
74.5959
 31
0.0
  0
LINE
  8
0
 62
     0
 10
97.5815
 20
74.5959
 30
0.0
 11
98.3809
 21
74.5959
 31
0.0
  0
LINE
  8
0
 62
     0
 10
98.3809
 20
74.5959
 30
0.0
 11
98.3809
 21
77.6965
 31
0.0
  0
LINE
  8
0
 62
     0
 10
98.3809
 20
77.6965
 30
0.0
 11
97.5815
 21
77.6965
 31
0.0
  0
LINE
  8
0
 62
     0
 10
97.5815
 20
77.6965
 30
0.0
 11
97.5815
 21
78.6956
 31
0.0
  0
LINE
  8
0
 62
     0
 10
97.5815
 20
78.6956
 30
0.0
 11
83.5822
 21
78.6956
 31
0.0
  0
LINE
  8
0
 62
     0
 10
64.5322
 20
78.6956
 30
0.0
 11
64.5322
 21
77.6965
 31
0.0
  0
LINE
  8
0
 62
     0
 10
64.5322
 20
77.6965
 30
0.0
 11
63.7314
 21
77.6965
 31
0.0
  0
LINE
  8
0
 62
     0
 10
63.7314
 20
77.6965
 30
0.0
 11
63.7314
 21
74.5959
 31
0.0
  0
LINE
  8
0
 62
     0
 10
63.7314
 20
74.5959
 30
0.0
 11
64.5322
 21
74.5959
 31
0.0
  0
LINE
  8
0
 62
     0
 10
64.5322
 20
74.5959
 30
0.0
 11
64.5322
 21
68.7959
 31
0.0
  0
LINE
  8
0
 62
     0
 10
64.5322
 20
68.7959
 30
0.0
 11
63.7314
 21
68.7959
 31
0.0
  0
LINE
  8
0
 62
     0
 10
63.7314
 20
68.7959
 30
0.0
 11
63.7314
 21
65.6967
 31
0.0
  0
LINE
  8
0
 62
     0
 10
63.7314
 20
65.6967
 30
0.0
 11
64.5322
 21
65.6967
 31
0.0
  0
LINE
  8
0
 62
     0
 10
64.5322
 20
65.6967
 30
0.0
 11
64.5322
 21
64.6963
 31
0.0
  0
LINE
  8
0
 62
     0
 10
64.5322
 20
64.6963
 30
0.0
 11
78.5315
 21
64.6963
 31
0.0
  0
LINE
  8
0
 62
     0
 10
78.5315
 20
64.6963
 30
0.0
 11
78.5315
 21
65.6967
 31
0.0
  0
LINE
  8
0
 62
     0
 10
78.5315
 20
65.6967
 30
0.0
 11
79.3309
 21
65.6967
 31
0.0
  0
LINE
  8
0
 62
     0
 10
79.3309
 20
65.6967
 30
0.0
 11
79.3309
 21
68.7959
 31
0.0
  0
LINE
  8
0
 62
     0
 10
79.3309
 20
68.7959
 30
0.0
 11
78.5315
 21
68.7959
 31
0.0
  0
LINE
  8
0
 62
     0
 10
78.5315
 20
68.7959
 30
0.0
 11
78.5315
 21
74.5959
 31
0.0
  0
LINE
  8
0
 62
     0
 10
78.5315
 20
74.5959
 30
0.0
 11
79.3309
 21
74.5959
 31
0.0
  0
LINE
  8
0
 62
     0
 10
79.3309
 20
74.5959
 30
0.0
 11
79.3309
 21
77.6965
 31
0.0
  0
LINE
  8
0
 62
     0
 10
79.3309
 20
77.6965
 30
0.0
 11
78.5315
 21
77.6965
 31
0.0
  0
LINE
  8
0
 62
     0
 10
78.5315
 20
77.6965
 30
0.0
 11
78.5315
 21
78.6956
 31
0.0
  0
LINE
  8
0
 62
     0
 10
78.5315
 20
78.6956
 30
0.0
 11
64.5322
 21
78.6956
 31
0.0
  0
LINE
  8
0
 62
     0
 10
40.7197
 20
78.6956
 30
0.0
 11
40.7197
 21
77.6965
 31
0.0
  0
LINE
  8
0
 62
     0
 10
40.7197
 20
77.6965
 30
0.0
 11
39.9189
 21
77.6965
 31
0.0
  0
LINE
  8
0
 62
     0
 10
39.9189
 20
77.6965
 30
0.0
 11
39.9189
 21
74.5959
 31
0.0
  0
LINE
  8
0
 62
     0
 10
39.9189
 20
74.5959
 30
0.0
 11
40.7197
 21
74.5959
 31
0.0
  0
LINE
  8
0
 62
     0
 10
40.7197
 20
74.5959
 30
0.0
 11
40.7197
 21
68.7959
 31
0.0
  0
LINE
  8
0
 62
     0
 10
40.7197
 20
68.7959
 30
0.0
 11
39.9189
 21
68.7959
 31
0.0
  0
LINE
  8
0
 62
     0
 10
39.9189
 20
68.7959
 30
0.0
 11
39.9189
 21
65.6967
 31
0.0
  0
LINE
  8
0
 62
     0
 10
39.9189
 20
65.6967
 30
0.0
 11
40.7197
 21
65.6967
 31
0.0
  0
LINE
  8
0
 62
     0
 10
40.7197
 20
65.6967
 30
0.0
 11
40.7197
 21
64.6963
 31
0.0
  0
LINE
  8
0
 62
     0
 10
40.7197
 20
64.6963
 30
0.0
 11
54.719
 21
64.6963
 31
0.0
  0
LINE
  8
0
 62
     0
 10
54.719
 20
64.6963
 30
0.0
 11
54.719
 21
65.6967
 31
0.0
  0
LINE
  8
0
 62
     0
 10
54.719
 20
65.6967
 30
0.0
 11
55.5198
 21
65.6967
 31
0.0
  0
LINE
  8
0
 62
     0
 10
55.5198
 20
65.6967
 30
0.0
 11
55.5198
 21
68.7959
 31
0.0
  0
LINE
  8
0
 62
     0
 10
55.5198
 20
68.7959
 30
0.0
 11
54.719
 21
68.7959
 31
0.0
  0
LINE
  8
0
 62
     0
 10
54.719
 20
68.7959
 30
0.0
 11
54.719
 21
74.5959
 31
0.0
  0
LINE
  8
0
 62
     0
 10
54.719
 20
74.5959
 30
0.0
 11
55.5198
 21
74.5959
 31
0.0
  0
LINE
  8
0
 62
     0
 10
55.5198
 20
74.5959
 30
0.0
 11
55.5198
 21
77.6965
 31
0.0
  0
LINE
  8
0
 62
     0
 10
55.5198
 20
77.6965
 30
0.0
 11
54.719
 21
77.6965
 31
0.0
  0
LINE
  8
0
 62
     0
 10
54.719
 20
77.6965
 30
0.0
 11
54.719
 21
78.6956
 31
0.0
  0
LINE
  8
0
 62
     0
 10
54.719
 20
78.6956
 30
0.0
 11
40.7197
 21
78.6956
 31
0.0
  0
LINE
  8
0
 62
     0
 10
5.00091
 20
95.3657
 30
0.0
 11
5.00091
 21
94.3652
 31
0.0
  0
LINE
  8
0
 62
     0
 10
5.00091
 20
94.3652
 30
0.0
 11
4.20028
 21
94.3652
 31
0.0
  0
LINE
  8
0
 62
     0
 10
4.20028
 20
94.3652
 30
0.0
 11
4.20028
 21
91.2647
 31
0.0
  0
LINE
  8
0
 62
     0
 10
4.20028
 20
91.2647
 30
0.0
 11
5.00091
 21
91.2647
 31
0.0
  0
LINE
  8
0
 62
     0
 10
5.00091
 20
91.2647
 30
0.0
 11
5.00091
 21
85.4661
 31
0.0
  0
LINE
  8
0
 62
     0
 10
5.00091
 20
85.4661
 30
0.0
 11
4.20028
 21
85.4661
 31
0.0
  0
LINE
  8
0
 62
     0
 10
4.20028
 20
85.4661
 30
0.0
 11
4.20028
 21
82.3655
 31
0.0
  0
LINE
  8
0
 62
     0
 10
4.20028
 20
82.3655
 30
0.0
 11
5.00091
 21
82.3655
 31
0.0
  0
LINE
  8
0
 62
     0
 10
5.00091
 20
82.3655
 30
0.0
 11
5.00091
 21
81.365
 31
0.0
  0
LINE
  8
0
 62
     0
 10
5.00091
 20
81.365
 30
0.0
 11
19.0004
 21
81.365
 31
0.0
  0
LINE
  8
0
 62
     0
 10
19.0004
 20
81.365
 30
0.0
 11
19.0004
 21
82.3655
 31
0.0
  0
LINE
  8
0
 62
     0
 10
19.0004
 20
82.3655
 30
0.0
 11
19.801
 21
82.3655
 31
0.0
  0
LINE
  8
0
 62
     0
 10
19.801
 20
82.3655
 30
0.0
 11
19.801
 21
85.4661
 31
0.0
  0
LINE
  8
0
 62
     0
 10
19.801
 20
85.4661
 30
0.0
 11
19.0004
 21
85.4661
 31
0.0
  0
LINE
  8
0
 62
     0
 10
19.0004
 20
85.4661
 30
0.0
 11
19.0004
 21
91.2647
 31
0.0
  0
LINE
  8
0
 62
     0
 10
19.0004
 20
91.2647
 30
0.0
 11
19.801
 21
91.2647
 31
0.0
  0
LINE
  8
0
 62
     0
 10
19.801
 20
91.2647
 30
0.0
 11
19.801
 21
94.3652
 31
0.0
  0
LINE
  8
0
 62
     0
 10
19.801
 20
94.3652
 30
0.0
 11
19.0004
 21
94.3652
 31
0.0
  0
LINE
  8
0
 62
     0
 10
19.0004
 20
94.3652
 30
0.0
 11
19.0004
 21
95.3657
 31
0.0
  0
LINE
  8
0
 62
     0
 10
19.0004
 20
95.3657
 30
0.0
 11
5.00091
 21
95.3657
 31
0.0
  0
LINE
  8
0
 62
     0
 10
293.132
 20
97.7456
 30
0.0
 11
293.132
 21
96.7465
 31
0.0
  0
LINE
  8
0
 62
     0
 10
293.132
 20
96.7465
 30
0.0
 11
292.331
 21
96.7465
 31
0.0
  0
LINE
  8
0
 62
     0
 10
292.331
 20
96.7465
 30
0.0
 11
292.331
 21
93.6459
 31
0.0
  0
LINE
  8
0
 62
     0
 10
292.331
 20
93.6459
 30
0.0
 11
293.132
 21
93.6459
 31
0.0
  0
LINE
  8
0
 62
     0
 10
293.132
 20
93.6459
 30
0.0
 11
293.132
 21
93.0465
 31
0.0
  0
LINE
  8
0
 62
     0
 10
293.132
 20
93.0465
 30
0.0
 11
291.607
 21
93.0465
 31
0.0
  0
LINE
  8
0
 62
     0
 10
291.607
 20
93.0465
 30
0.0
 11
291.607
 21
96.2766
 31
0.0
  0
LINE
  8
0
 62
     0
 10
291.607
 20
96.2766
 30
0.0
 11
289.881
 21
96.2766
 31
0.0
  0
LINE
  8
0
 62
     0
 10
289.881
 20
96.2766
 30
0.0
 11
289.881
 21
97.1959
 31
0.0
  0
LINE
  8
0
 62
     0
 10
289.881
 20
97.1959
 30
0.0
 11
286.581
 21
97.1959
 31
0.0
  0
LINE
  8
0
 62
     0
 10
286.581
 20
97.1959
 30
0.0
 11
286.581
 21
96.2766
 31
0.0
  0
LINE
  8
0
 62
     0
 10
286.581
 20
96.2766
 30
0.0
 11
284.857
 21
96.2766
 31
0.0
  0
LINE
  8
0
 62
     0
 10
284.857
 20
96.2766
 30
0.0
 11
284.857
 21
93.0465
 31
0.0
  0
LINE
  8
0
 62
     0
 10
284.857
 20
93.0465
 30
0.0
 11
284.032
 21
93.0465
 31
0.0
  0
LINE
  8
0
 62
     0
 10
284.032
 20
93.0465
 30
0.0
 11
284.032
 21
90.2462
 31
0.0
  0
LINE
  8
0
 62
     0
 10
284.032
 20
90.2462
 30
0.0
 11
284.857
 21
90.2462
 31
0.0
  0
LINE
  8
0
 62
     0
 10
284.857
 20
90.2462
 30
0.0
 11
284.857
 21
83.9763
 31
0.0
  0
LINE
  8
0
 62
     0
 10
284.857
 20
83.9763
 30
0.0
 11
286.581
 21
83.9763
 31
0.0
  0
LINE
  8
0
 62
     0
 10
286.581
 20
83.9763
 30
0.0
 11
286.581
 21
82.9966
 31
0.0
  0
LINE
  8
0
 62
     0
 10
286.581
 20
82.9966
 30
0.0
 11
289.881
 21
82.9966
 31
0.0
  0
LINE
  8
0
 62
     0
 10
289.881
 20
82.9966
 30
0.0
 11
289.881
 21
83.9763
 31
0.0
  0
LINE
  8
0
 62
     0
 10
289.881
 20
83.9763
 30
0.0
 11
291.607
 21
83.9763
 31
0.0
  0
LINE
  8
0
 62
     0
 10
291.607
 20
83.9763
 30
0.0
 11
291.607
 21
88.4467
 31
0.0
  0
LINE
  8
0
 62
     0
 10
291.607
 20
88.4467
 30
0.0
 11
293.132
 21
88.4467
 31
0.0
  0
LINE
  8
0
 62
     0
 10
293.132
 20
88.4467
 30
0.0
 11
293.132
 21
87.8459
 31
0.0
  0
LINE
  8
0
 62
     0
 10
293.132
 20
87.8459
 30
0.0
 11
292.331
 21
87.8459
 31
0.0
  0
LINE
  8
0
 62
     0
 10
292.331
 20
87.8459
 30
0.0
 11
292.331
 21
84.7467
 31
0.0
  0
LINE
  8
0
 62
     0
 10
292.331
 20
84.7467
 30
0.0
 11
293.132
 21
84.7467
 31
0.0
  0
LINE
  8
0
 62
     0
 10
293.132
 20
84.7467
 30
0.0
 11
293.132
 21
83.7463
 31
0.0
  0
LINE
  8
0
 62
     0
 10
293.132
 20
83.7463
 30
0.0
 11
307.132
 21
83.7463
 31
0.0
  0
LINE
  8
0
 62
     0
 10
307.132
 20
83.7463
 30
0.0
 11
307.132
 21
84.7467
 31
0.0
  0
LINE
  8
0
 62
     0
 10
307.132
 20
84.7467
 30
0.0
 11
307.931
 21
84.7467
 31
0.0
  0
LINE
  8
0
 62
     0
 10
307.931
 20
84.7467
 30
0.0
 11
307.931
 21
87.8459
 31
0.0
  0
LINE
  8
0
 62
     0
 10
307.931
 20
87.8459
 30
0.0
 11
307.132
 21
87.8459
 31
0.0
  0
LINE
  8
0
 62
     0
 10
307.132
 20
87.8459
 30
0.0
 11
307.132
 21
88.4467
 31
0.0
  0
LINE
  8
0
 62
     0
 10
307.132
 20
88.4467
 30
0.0
 11
308.657
 21
88.4467
 31
0.0
  0
LINE
  8
0
 62
     0
 10
308.657
 20
88.4467
 30
0.0
 11
308.657
 21
83.9763
 31
0.0
  0
LINE
  8
0
 62
     0
 10
308.657
 20
83.9763
 30
0.0
 11
310.381
 21
83.9763
 31
0.0
  0
LINE
  8
0
 62
     0
 10
310.381
 20
83.9763
 30
0.0
 11
310.381
 21
82.9966
 31
0.0
  0
LINE
  8
0
 62
     0
 10
310.381
 20
82.9966
 30
0.0
 11
313.682
 21
82.9966
 31
0.0
  0
LINE
  8
0
 62
     0
 10
313.682
 20
82.9966
 30
0.0
 11
313.682
 21
83.9763
 31
0.0
  0
LINE
  8
0
 62
     0
 10
313.682
 20
83.9763
 30
0.0
 11
315.407
 21
83.9763
 31
0.0
  0
LINE
  8
0
 62
     0
 10
315.407
 20
83.9763
 30
0.0
 11
315.407
 21
90.2462
 31
0.0
  0
LINE
  8
0
 62
     0
 10
315.407
 20
90.2462
 30
0.0
 11
316.231
 21
90.2462
 31
0.0
  0
LINE
  8
0
 62
     0
 10
316.231
 20
90.2462
 30
0.0
 11
316.231
 21
93.0465
 31
0.0
  0
LINE
  8
0
 62
     0
 10
316.231
 20
93.0465
 30
0.0
 11
315.407
 21
93.0465
 31
0.0
  0
LINE
  8
0
 62
     0
 10
315.407
 20
93.0465
 30
0.0
 11
315.407
 21
96.2766
 31
0.0
  0
LINE
  8
0
 62
     0
 10
315.407
 20
96.2766
 30
0.0
 11
313.682
 21
96.2766
 31
0.0
  0
LINE
  8
0
 62
     0
 10
313.682
 20
96.2766
 30
0.0
 11
313.682
 21
97.1959
 31
0.0
  0
LINE
  8
0
 62
     0
 10
313.682
 20
97.1959
 30
0.0
 11
310.381
 21
97.1959
 31
0.0
  0
LINE
  8
0
 62
     0
 10
310.381
 20
97.1959
 30
0.0
 11
310.381
 21
96.2766
 31
0.0
  0
LINE
  8
0
 62
     0
 10
310.381
 20
96.2766
 30
0.0
 11
308.657
 21
96.2766
 31
0.0
  0
LINE
  8
0
 62
     0
 10
308.657
 20
96.2766
 30
0.0
 11
308.657
 21
93.0465
 31
0.0
  0
LINE
  8
0
 62
     0
 10
308.657
 20
93.0465
 30
0.0
 11
307.132
 21
93.0465
 31
0.0
  0
LINE
  8
0
 62
     0
 10
307.132
 20
93.0465
 30
0.0
 11
307.132
 21
93.6459
 31
0.0
  0
LINE
  8
0
 62
     0
 10
307.132
 20
93.6459
 30
0.0
 11
307.931
 21
93.6459
 31
0.0
  0
LINE
  8
0
 62
     0
 10
307.931
 20
93.6459
 30
0.0
 11
307.931
 21
96.7465
 31
0.0
  0
LINE
  8
0
 62
     0
 10
307.931
 20
96.7465
 30
0.0
 11
307.132
 21
96.7465
 31
0.0
  0
LINE
  8
0
 62
     0
 10
307.132
 20
96.7465
 30
0.0
 11
307.132
 21
97.7456
 31
0.0
  0
LINE
  8
0
 62
     0
 10
307.132
 20
97.7456
 30
0.0
 11
293.132
 21
97.7456
 31
0.0
  0
LINE
  8
0
 62
     0
 10
335.995
 20
97.7456
 30
0.0
 11
335.995
 21
96.7465
 31
0.0
  0
LINE
  8
0
 62
     0
 10
335.995
 20
96.7465
 30
0.0
 11
335.194
 21
96.7465
 31
0.0
  0
LINE
  8
0
 62
     0
 10
335.194
 20
96.7465
 30
0.0
 11
335.194
 21
93.6459
 31
0.0
  0
LINE
  8
0
 62
     0
 10
335.194
 20
93.6459
 30
0.0
 11
335.995
 21
93.6459
 31
0.0
  0
LINE
  8
0
 62
     0
 10
335.995
 20
93.6459
 30
0.0
 11
335.995
 21
87.8459
 31
0.0
  0
LINE
  8
0
 62
     0
 10
335.995
 20
87.8459
 30
0.0
 11
335.194
 21
87.8459
 31
0.0
  0
LINE
  8
0
 62
     0
 10
335.194
 20
87.8459
 30
0.0
 11
335.194
 21
84.7467
 31
0.0
  0
LINE
  8
0
 62
     0
 10
335.194
 20
84.7467
 30
0.0
 11
335.995
 21
84.7467
 31
0.0
  0
LINE
  8
0
 62
     0
 10
335.995
 20
84.7467
 30
0.0
 11
335.995
 21
83.7463
 31
0.0
  0
LINE
  8
0
 62
     0
 10
335.995
 20
83.7463
 30
0.0
 11
349.994
 21
83.7463
 31
0.0
  0
LINE
  8
0
 62
     0
 10
349.994
 20
83.7463
 30
0.0
 11
349.994
 21
84.7467
 31
0.0
  0
LINE
  8
0
 62
     0
 10
349.994
 20
84.7467
 30
0.0
 11
350.795
 21
84.7467
 31
0.0
  0
LINE
  8
0
 62
     0
 10
350.795
 20
84.7467
 30
0.0
 11
350.795
 21
87.8459
 31
0.0
  0
LINE
  8
0
 62
     0
 10
350.795
 20
87.8459
 30
0.0
 11
349.994
 21
87.8459
 31
0.0
  0
LINE
  8
0
 62
     0
 10
349.994
 20
87.8459
 30
0.0
 11
349.994
 21
93.6459
 31
0.0
  0
LINE
  8
0
 62
     0
 10
349.994
 20
93.6459
 30
0.0
 11
350.795
 21
93.6459
 31
0.0
  0
LINE
  8
0
 62
     0
 10
350.795
 20
93.6459
 30
0.0
 11
350.795
 21
96.7465
 31
0.0
  0
LINE
  8
0
 62
     0
 10
350.795
 20
96.7465
 30
0.0
 11
349.994
 21
96.7465
 31
0.0
  0
LINE
  8
0
 62
     0
 10
349.994
 20
96.7465
 30
0.0
 11
349.994
 21
97.7456
 31
0.0
  0
LINE
  8
0
 62
     0
 10
349.994
 20
97.7456
 30
0.0
 11
335.995
 21
97.7456
 31
0.0
  0
LINE
  8
0
 62
     0
 10
264.557
 20
97.7456
 30
0.0
 11
264.557
 21
96.7465
 31
0.0
  0
LINE
  8
0
 62
     0
 10
264.557
 20
96.7465
 30
0.0
 11
263.756
 21
96.7465
 31
0.0
  0
LINE
  8
0
 62
     0
 10
263.756
 20
96.7465
 30
0.0
 11
263.756
 21
93.6459
 31
0.0
  0
LINE
  8
0
 62
     0
 10
263.756
 20
93.6459
 30
0.0
 11
264.557
 21
93.6459
 31
0.0
  0
LINE
  8
0
 62
     0
 10
264.557
 20
93.6459
 30
0.0
 11
264.557
 21
87.8459
 31
0.0
  0
LINE
  8
0
 62
     0
 10
264.557
 20
87.8459
 30
0.0
 11
263.756
 21
87.8459
 31
0.0
  0
LINE
  8
0
 62
     0
 10
263.756
 20
87.8459
 30
0.0
 11
263.756
 21
84.7467
 31
0.0
  0
LINE
  8
0
 62
     0
 10
263.756
 20
84.7467
 30
0.0
 11
264.557
 21
84.7467
 31
0.0
  0
LINE
  8
0
 62
     0
 10
264.557
 20
84.7467
 30
0.0
 11
264.557
 21
83.7463
 31
0.0
  0
LINE
  8
0
 62
     0
 10
264.557
 20
83.7463
 30
0.0
 11
278.557
 21
83.7463
 31
0.0
  0
LINE
  8
0
 62
     0
 10
278.557
 20
83.7463
 30
0.0
 11
278.557
 21
84.7467
 31
0.0
  0
LINE
  8
0
 62
     0
 10
278.557
 20
84.7467
 30
0.0
 11
279.356
 21
84.7467
 31
0.0
  0
LINE
  8
0
 62
     0
 10
279.356
 20
84.7467
 30
0.0
 11
279.356
 21
87.8459
 31
0.0
  0
LINE
  8
0
 62
     0
 10
279.356
 20
87.8459
 30
0.0
 11
278.557
 21
87.8459
 31
0.0
  0
LINE
  8
0
 62
     0
 10
278.557
 20
87.8459
 30
0.0
 11
278.557
 21
93.6459
 31
0.0
  0
LINE
  8
0
 62
     0
 10
278.557
 20
93.6459
 30
0.0
 11
279.356
 21
93.6459
 31
0.0
  0
LINE
  8
0
 62
     0
 10
279.356
 20
93.6459
 30
0.0
 11
279.356
 21
96.7465
 31
0.0
  0
LINE
  8
0
 62
     0
 10
279.356
 20
96.7465
 30
0.0
 11
278.557
 21
96.7465
 31
0.0
  0
LINE
  8
0
 62
     0
 10
278.557
 20
96.7465
 30
0.0
 11
278.557
 21
97.7456
 31
0.0
  0
LINE
  8
0
 62
     0
 10
278.557
 20
97.7456
 30
0.0
 11
264.557
 21
97.7456
 31
0.0
  0
LINE
  8
0
 62
     0
 10
245.507
 20
97.7456
 30
0.0
 11
245.507
 21
96.7465
 31
0.0
  0
LINE
  8
0
 62
     0
 10
245.507
 20
96.7465
 30
0.0
 11
244.706
 21
96.7465
 31
0.0
  0
LINE
  8
0
 62
     0
 10
244.706
 20
96.7465
 30
0.0
 11
244.706
 21
93.6459
 31
0.0
  0
LINE
  8
0
 62
     0
 10
244.706
 20
93.6459
 30
0.0
 11
245.507
 21
93.6459
 31
0.0
  0
LINE
  8
0
 62
     0
 10
245.507
 20
93.6459
 30
0.0
 11
245.507
 21
87.8459
 31
0.0
  0
LINE
  8
0
 62
     0
 10
245.507
 20
87.8459
 30
0.0
 11
244.706
 21
87.8459
 31
0.0
  0
LINE
  8
0
 62
     0
 10
244.706
 20
87.8459
 30
0.0
 11
244.706
 21
84.7467
 31
0.0
  0
LINE
  8
0
 62
     0
 10
244.706
 20
84.7467
 30
0.0
 11
245.507
 21
84.7467
 31
0.0
  0
LINE
  8
0
 62
     0
 10
245.507
 20
84.7467
 30
0.0
 11
245.507
 21
83.7463
 31
0.0
  0
LINE
  8
0
 62
     0
 10
245.507
 20
83.7463
 30
0.0
 11
259.507
 21
83.7463
 31
0.0
  0
LINE
  8
0
 62
     0
 10
259.507
 20
83.7463
 30
0.0
 11
259.507
 21
84.7467
 31
0.0
  0
LINE
  8
0
 62
     0
 10
259.507
 20
84.7467
 30
0.0
 11
260.306
 21
84.7467
 31
0.0
  0
LINE
  8
0
 62
     0
 10
260.306
 20
84.7467
 30
0.0
 11
260.306
 21
87.8459
 31
0.0
  0
LINE
  8
0
 62
     0
 10
260.306
 20
87.8459
 30
0.0
 11
259.507
 21
87.8459
 31
0.0
  0
LINE
  8
0
 62
     0
 10
259.507
 20
87.8459
 30
0.0
 11
259.507
 21
93.6459
 31
0.0
  0
LINE
  8
0
 62
     0
 10
259.507
 20
93.6459
 30
0.0
 11
260.306
 21
93.6459
 31
0.0
  0
LINE
  8
0
 62
     0
 10
260.306
 20
93.6459
 30
0.0
 11
260.306
 21
96.7465
 31
0.0
  0
LINE
  8
0
 62
     0
 10
260.306
 20
96.7465
 30
0.0
 11
259.507
 21
96.7465
 31
0.0
  0
LINE
  8
0
 62
     0
 10
259.507
 20
96.7465
 30
0.0
 11
259.507
 21
97.7456
 31
0.0
  0
LINE
  8
0
 62
     0
 10
259.507
 20
97.7456
 30
0.0
 11
245.507
 21
97.7456
 31
0.0
  0
LINE
  8
0
 62
     0
 10
226.457
 20
97.7456
 30
0.0
 11
226.457
 21
96.7465
 31
0.0
  0
LINE
  8
0
 62
     0
 10
226.457
 20
96.7465
 30
0.0
 11
225.656
 21
96.7465
 31
0.0
  0
LINE
  8
0
 62
     0
 10
225.656
 20
96.7465
 30
0.0
 11
225.656
 21
93.6459
 31
0.0
  0
LINE
  8
0
 62
     0
 10
225.656
 20
93.6459
 30
0.0
 11
226.457
 21
93.6459
 31
0.0
  0
LINE
  8
0
 62
     0
 10
226.457
 20
93.6459
 30
0.0
 11
226.457
 21
87.8459
 31
0.0
  0
LINE
  8
0
 62
     0
 10
226.457
 20
87.8459
 30
0.0
 11
225.656
 21
87.8459
 31
0.0
  0
LINE
  8
0
 62
     0
 10
225.656
 20
87.8459
 30
0.0
 11
225.656
 21
84.7467
 31
0.0
  0
LINE
  8
0
 62
     0
 10
225.656
 20
84.7467
 30
0.0
 11
226.457
 21
84.7467
 31
0.0
  0
LINE
  8
0
 62
     0
 10
226.457
 20
84.7467
 30
0.0
 11
226.457
 21
83.7463
 31
0.0
  0
LINE
  8
0
 62
     0
 10
226.457
 20
83.7463
 30
0.0
 11
240.457
 21
83.7463
 31
0.0
  0
LINE
  8
0
 62
     0
 10
240.457
 20
83.7463
 30
0.0
 11
240.457
 21
84.7467
 31
0.0
  0
LINE
  8
0
 62
     0
 10
240.457
 20
84.7467
 30
0.0
 11
241.256
 21
84.7467
 31
0.0
  0
LINE
  8
0
 62
     0
 10
241.256
 20
84.7467
 30
0.0
 11
241.256
 21
87.8459
 31
0.0
  0
LINE
  8
0
 62
     0
 10
241.256
 20
87.8459
 30
0.0
 11
240.457
 21
87.8459
 31
0.0
  0
LINE
  8
0
 62
     0
 10
240.457
 20
87.8459
 30
0.0
 11
240.457
 21
93.6459
 31
0.0
  0
LINE
  8
0
 62
     0
 10
240.457
 20
93.6459
 30
0.0
 11
241.256
 21
93.6459
 31
0.0
  0
LINE
  8
0
 62
     0
 10
241.256
 20
93.6459
 30
0.0
 11
241.256
 21
96.7465
 31
0.0
  0
LINE
  8
0
 62
     0
 10
241.256
 20
96.7465
 30
0.0
 11
240.457
 21
96.7465
 31
0.0
  0
LINE
  8
0
 62
     0
 10
240.457
 20
96.7465
 30
0.0
 11
240.457
 21
97.7456
 31
0.0
  0
LINE
  8
0
 62
     0
 10
240.457
 20
97.7456
 30
0.0
 11
226.457
 21
97.7456
 31
0.0
  0
LINE
  8
0
 62
     0
 10
207.407
 20
97.7456
 30
0.0
 11
207.407
 21
96.7465
 31
0.0
  0
LINE
  8
0
 62
     0
 10
207.407
 20
96.7465
 30
0.0
 11
206.606
 21
96.7465
 31
0.0
  0
LINE
  8
0
 62
     0
 10
206.606
 20
96.7465
 30
0.0
 11
206.606
 21
93.6459
 31
0.0
  0
LINE
  8
0
 62
     0
 10
206.606
 20
93.6459
 30
0.0
 11
207.407
 21
93.6459
 31
0.0
  0
LINE
  8
0
 62
     0
 10
207.407
 20
93.6459
 30
0.0
 11
207.407
 21
87.8459
 31
0.0
  0
LINE
  8
0
 62
     0
 10
207.407
 20
87.8459
 30
0.0
 11
206.606
 21
87.8459
 31
0.0
  0
LINE
  8
0
 62
     0
 10
206.606
 20
87.8459
 30
0.0
 11
206.606
 21
84.7467
 31
0.0
  0
LINE
  8
0
 62
     0
 10
206.606
 20
84.7467
 30
0.0
 11
207.407
 21
84.7467
 31
0.0
  0
LINE
  8
0
 62
     0
 10
207.407
 20
84.7467
 30
0.0
 11
207.407
 21
83.7463
 31
0.0
  0
LINE
  8
0
 62
     0
 10
207.407
 20
83.7463
 30
0.0
 11
221.407
 21
83.7463
 31
0.0
  0
LINE
  8
0
 62
     0
 10
221.407
 20
83.7463
 30
0.0
 11
221.407
 21
84.7467
 31
0.0
  0
LINE
  8
0
 62
     0
 10
221.407
 20
84.7467
 30
0.0
 11
222.206
 21
84.7467
 31
0.0
  0
LINE
  8
0
 62
     0
 10
222.206
 20
84.7467
 30
0.0
 11
222.206
 21
87.8459
 31
0.0
  0
LINE
  8
0
 62
     0
 10
222.206
 20
87.8459
 30
0.0
 11
221.407
 21
87.8459
 31
0.0
  0
LINE
  8
0
 62
     0
 10
221.407
 20
87.8459
 30
0.0
 11
221.407
 21
93.6459
 31
0.0
  0
LINE
  8
0
 62
     0
 10
221.407
 20
93.6459
 30
0.0
 11
222.206
 21
93.6459
 31
0.0
  0
LINE
  8
0
 62
     0
 10
222.206
 20
93.6459
 30
0.0
 11
222.206
 21
96.7465
 31
0.0
  0
LINE
  8
0
 62
     0
 10
222.206
 20
96.7465
 30
0.0
 11
221.407
 21
96.7465
 31
0.0
  0
LINE
  8
0
 62
     0
 10
221.407
 20
96.7465
 30
0.0
 11
221.407
 21
97.7456
 31
0.0
  0
LINE
  8
0
 62
     0
 10
221.407
 20
97.7456
 30
0.0
 11
207.407
 21
97.7456
 31
0.0
  0
LINE
  8
0
 62
     0
 10
188.357
 20
97.7456
 30
0.0
 11
188.357
 21
96.7465
 31
0.0
  0
LINE
  8
0
 62
     0
 10
188.357
 20
96.7465
 30
0.0
 11
187.556
 21
96.7465
 31
0.0
  0
LINE
  8
0
 62
     0
 10
187.556
 20
96.7465
 30
0.0
 11
187.556
 21
93.6459
 31
0.0
  0
LINE
  8
0
 62
     0
 10
187.556
 20
93.6459
 30
0.0
 11
188.357
 21
93.6459
 31
0.0
  0
LINE
  8
0
 62
     0
 10
188.357
 20
93.6459
 30
0.0
 11
188.357
 21
87.8459
 31
0.0
  0
LINE
  8
0
 62
     0
 10
188.357
 20
87.8459
 30
0.0
 11
187.556
 21
87.8459
 31
0.0
  0
LINE
  8
0
 62
     0
 10
187.556
 20
87.8459
 30
0.0
 11
187.556
 21
84.7467
 31
0.0
  0
LINE
  8
0
 62
     0
 10
187.556
 20
84.7467
 30
0.0
 11
188.357
 21
84.7467
 31
0.0
  0
LINE
  8
0
 62
     0
 10
188.357
 20
84.7467
 30
0.0
 11
188.357
 21
83.7463
 31
0.0
  0
LINE
  8
0
 62
     0
 10
188.357
 20
83.7463
 30
0.0
 11
202.357
 21
83.7463
 31
0.0
  0
LINE
  8
0
 62
     0
 10
202.357
 20
83.7463
 30
0.0
 11
202.357
 21
84.7467
 31
0.0
  0
LINE
  8
0
 62
     0
 10
202.357
 20
84.7467
 30
0.0
 11
203.156
 21
84.7467
 31
0.0
  0
LINE
  8
0
 62
     0
 10
203.156
 20
84.7467
 30
0.0
 11
203.156
 21
87.8459
 31
0.0
  0
LINE
  8
0
 62
     0
 10
203.156
 20
87.8459
 30
0.0
 11
202.357
 21
87.8459
 31
0.0
  0
LINE
  8
0
 62
     0
 10
202.357
 20
87.8459
 30
0.0
 11
202.357
 21
93.6459
 31
0.0
  0
LINE
  8
0
 62
     0
 10
202.357
 20
93.6459
 30
0.0
 11
203.156
 21
93.6459
 31
0.0
  0
LINE
  8
0
 62
     0
 10
203.156
 20
93.6459
 30
0.0
 11
203.156
 21
96.7465
 31
0.0
  0
LINE
  8
0
 62
     0
 10
203.156
 20
96.7465
 30
0.0
 11
202.357
 21
96.7465
 31
0.0
  0
LINE
  8
0
 62
     0
 10
202.357
 20
96.7465
 30
0.0
 11
202.357
 21
97.7456
 31
0.0
  0
LINE
  8
0
 62
     0
 10
202.357
 20
97.7456
 30
0.0
 11
188.357
 21
97.7456
 31
0.0
  0
LINE
  8
0
 62
     0
 10
169.307
 20
97.7456
 30
0.0
 11
169.307
 21
96.7465
 31
0.0
  0
LINE
  8
0
 62
     0
 10
169.307
 20
96.7465
 30
0.0
 11
168.506
 21
96.7465
 31
0.0
  0
LINE
  8
0
 62
     0
 10
168.506
 20
96.7465
 30
0.0
 11
168.506
 21
93.6459
 31
0.0
  0
LINE
  8
0
 62
     0
 10
168.506
 20
93.6459
 30
0.0
 11
169.307
 21
93.6459
 31
0.0
  0
LINE
  8
0
 62
     0
 10
169.307
 20
93.6459
 30
0.0
 11
169.307
 21
87.8459
 31
0.0
  0
LINE
  8
0
 62
     0
 10
169.307
 20
87.8459
 30
0.0
 11
168.506
 21
87.8459
 31
0.0
  0
LINE
  8
0
 62
     0
 10
168.506
 20
87.8459
 30
0.0
 11
168.506
 21
84.7467
 31
0.0
  0
LINE
  8
0
 62
     0
 10
168.506
 20
84.7467
 30
0.0
 11
169.307
 21
84.7467
 31
0.0
  0
LINE
  8
0
 62
     0
 10
169.307
 20
84.7467
 30
0.0
 11
169.307
 21
83.7463
 31
0.0
  0
LINE
  8
0
 62
     0
 10
169.307
 20
83.7463
 30
0.0
 11
183.307
 21
83.7463
 31
0.0
  0
LINE
  8
0
 62
     0
 10
183.307
 20
83.7463
 30
0.0
 11
183.307
 21
84.7467
 31
0.0
  0
LINE
  8
0
 62
     0
 10
183.307
 20
84.7467
 30
0.0
 11
184.106
 21
84.7467
 31
0.0
  0
LINE
  8
0
 62
     0
 10
184.106
 20
84.7467
 30
0.0
 11
184.106
 21
87.8459
 31
0.0
  0
LINE
  8
0
 62
     0
 10
184.106
 20
87.8459
 30
0.0
 11
183.307
 21
87.8459
 31
0.0
  0
LINE
  8
0
 62
     0
 10
183.307
 20
87.8459
 30
0.0
 11
183.307
 21
93.6459
 31
0.0
  0
LINE
  8
0
 62
     0
 10
183.307
 20
93.6459
 30
0.0
 11
184.106
 21
93.6459
 31
0.0
  0
LINE
  8
0
 62
     0
 10
184.106
 20
93.6459
 30
0.0
 11
184.106
 21
96.7465
 31
0.0
  0
LINE
  8
0
 62
     0
 10
184.106
 20
96.7465
 30
0.0
 11
183.307
 21
96.7465
 31
0.0
  0
LINE
  8
0
 62
     0
 10
183.307
 20
96.7465
 30
0.0
 11
183.307
 21
97.7456
 31
0.0
  0
LINE
  8
0
 62
     0
 10
183.307
 20
97.7456
 30
0.0
 11
169.307
 21
97.7456
 31
0.0
  0
LINE
  8
0
 62
     0
 10
150.257
 20
97.7456
 30
0.0
 11
150.257
 21
96.7465
 31
0.0
  0
LINE
  8
0
 62
     0
 10
150.257
 20
96.7465
 30
0.0
 11
149.456
 21
96.7465
 31
0.0
  0
LINE
  8
0
 62
     0
 10
149.456
 20
96.7465
 30
0.0
 11
149.456
 21
93.6459
 31
0.0
  0
LINE
  8
0
 62
     0
 10
149.456
 20
93.6459
 30
0.0
 11
150.257
 21
93.6459
 31
0.0
  0
LINE
  8
0
 62
     0
 10
150.257
 20
93.6459
 30
0.0
 11
150.257
 21
87.8459
 31
0.0
  0
LINE
  8
0
 62
     0
 10
150.257
 20
87.8459
 30
0.0
 11
149.456
 21
87.8459
 31
0.0
  0
LINE
  8
0
 62
     0
 10
149.456
 20
87.8459
 30
0.0
 11
149.456
 21
84.7467
 31
0.0
  0
LINE
  8
0
 62
     0
 10
149.456
 20
84.7467
 30
0.0
 11
150.257
 21
84.7467
 31
0.0
  0
LINE
  8
0
 62
     0
 10
150.257
 20
84.7467
 30
0.0
 11
150.257
 21
83.7463
 31
0.0
  0
LINE
  8
0
 62
     0
 10
150.257
 20
83.7463
 30
0.0
 11
164.257
 21
83.7463
 31
0.0
  0
LINE
  8
0
 62
     0
 10
164.257
 20
83.7463
 30
0.0
 11
164.257
 21
84.7467
 31
0.0
  0
LINE
  8
0
 62
     0
 10
164.257
 20
84.7467
 30
0.0
 11
165.056
 21
84.7467
 31
0.0
  0
LINE
  8
0
 62
     0
 10
165.056
 20
84.7467
 30
0.0
 11
165.056
 21
87.8459
 31
0.0
  0
LINE
  8
0
 62
     0
 10
165.056
 20
87.8459
 30
0.0
 11
164.257
 21
87.8459
 31
0.0
  0
LINE
  8
0
 62
     0
 10
164.257
 20
87.8459
 30
0.0
 11
164.257
 21
93.6459
 31
0.0
  0
LINE
  8
0
 62
     0
 10
164.257
 20
93.6459
 30
0.0
 11
165.056
 21
93.6459
 31
0.0
  0
LINE
  8
0
 62
     0
 10
165.056
 20
93.6459
 30
0.0
 11
165.056
 21
96.7465
 31
0.0
  0
LINE
  8
0
 62
     0
 10
165.056
 20
96.7465
 30
0.0
 11
164.257
 21
96.7465
 31
0.0
  0
LINE
  8
0
 62
     0
 10
164.257
 20
96.7465
 30
0.0
 11
164.257
 21
97.7456
 31
0.0
  0
LINE
  8
0
 62
     0
 10
164.257
 20
97.7456
 30
0.0
 11
150.257
 21
97.7456
 31
0.0
  0
LINE
  8
0
 62
     0
 10
131.207
 20
97.7456
 30
0.0
 11
131.207
 21
96.7465
 31
0.0
  0
LINE
  8
0
 62
     0
 10
131.207
 20
96.7465
 30
0.0
 11
130.406
 21
96.7465
 31
0.0
  0
LINE
  8
0
 62
     0
 10
130.406
 20
96.7465
 30
0.0
 11
130.406
 21
93.6459
 31
0.0
  0
LINE
  8
0
 62
     0
 10
130.406
 20
93.6459
 30
0.0
 11
131.207
 21
93.6459
 31
0.0
  0
LINE
  8
0
 62
     0
 10
131.207
 20
93.6459
 30
0.0
 11
131.207
 21
87.8459
 31
0.0
  0
LINE
  8
0
 62
     0
 10
131.207
 20
87.8459
 30
0.0
 11
130.406
 21
87.8459
 31
0.0
  0
LINE
  8
0
 62
     0
 10
130.406
 20
87.8459
 30
0.0
 11
130.406
 21
84.7467
 31
0.0
  0
LINE
  8
0
 62
     0
 10
130.406
 20
84.7467
 30
0.0
 11
131.207
 21
84.7467
 31
0.0
  0
LINE
  8
0
 62
     0
 10
131.207
 20
84.7467
 30
0.0
 11
131.207
 21
83.7463
 31
0.0
  0
LINE
  8
0
 62
     0
 10
131.207
 20
83.7463
 30
0.0
 11
145.207
 21
83.7463
 31
0.0
  0
LINE
  8
0
 62
     0
 10
145.207
 20
83.7463
 30
0.0
 11
145.207
 21
84.7467
 31
0.0
  0
LINE
  8
0
 62
     0
 10
145.207
 20
84.7467
 30
0.0
 11
146.006
 21
84.7467
 31
0.0
  0
LINE
  8
0
 62
     0
 10
146.006
 20
84.7467
 30
0.0
 11
146.006
 21
87.8459
 31
0.0
  0
LINE
  8
0
 62
     0
 10
146.006
 20
87.8459
 30
0.0
 11
145.207
 21
87.8459
 31
0.0
  0
LINE
  8
0
 62
     0
 10
145.207
 20
87.8459
 30
0.0
 11
145.207
 21
93.6459
 31
0.0
  0
LINE
  8
0
 62
     0
 10
145.207
 20
93.6459
 30
0.0
 11
146.006
 21
93.6459
 31
0.0
  0
LINE
  8
0
 62
     0
 10
146.006
 20
93.6459
 30
0.0
 11
146.006
 21
96.7465
 31
0.0
  0
LINE
  8
0
 62
     0
 10
146.006
 20
96.7465
 30
0.0
 11
145.207
 21
96.7465
 31
0.0
  0
LINE
  8
0
 62
     0
 10
145.207
 20
96.7465
 30
0.0
 11
145.207
 21
97.7456
 31
0.0
  0
LINE
  8
0
 62
     0
 10
145.207
 20
97.7456
 30
0.0
 11
131.207
 21
97.7456
 31
0.0
  0
LINE
  8
0
 62
     0
 10
112.157
 20
97.7456
 30
0.0
 11
112.157
 21
96.7465
 31
0.0
  0
LINE
  8
0
 62
     0
 10
112.157
 20
96.7465
 30
0.0
 11
111.356
 21
96.7465
 31
0.0
  0
LINE
  8
0
 62
     0
 10
111.356
 20
96.7465
 30
0.0
 11
111.356
 21
93.6459
 31
0.0
  0
LINE
  8
0
 62
     0
 10
111.356
 20
93.6459
 30
0.0
 11
112.157
 21
93.6459
 31
0.0
  0
LINE
  8
0
 62
     0
 10
112.157
 20
93.6459
 30
0.0
 11
112.157
 21
87.8459
 31
0.0
  0
LINE
  8
0
 62
     0
 10
112.157
 20
87.8459
 30
0.0
 11
111.356
 21
87.8459
 31
0.0
  0
LINE
  8
0
 62
     0
 10
111.356
 20
87.8459
 30
0.0
 11
111.356
 21
84.7467
 31
0.0
  0
LINE
  8
0
 62
     0
 10
111.356
 20
84.7467
 30
0.0
 11
112.157
 21
84.7467
 31
0.0
  0
LINE
  8
0
 62
     0
 10
112.157
 20
84.7467
 30
0.0
 11
112.157
 21
83.7463
 31
0.0
  0
LINE
  8
0
 62
     0
 10
112.157
 20
83.7463
 30
0.0
 11
126.157
 21
83.7463
 31
0.0
  0
LINE
  8
0
 62
     0
 10
126.157
 20
83.7463
 30
0.0
 11
126.157
 21
84.7467
 31
0.0
  0
LINE
  8
0
 62
     0
 10
126.157
 20
84.7467
 30
0.0
 11
126.956
 21
84.7467
 31
0.0
  0
LINE
  8
0
 62
     0
 10
126.956
 20
84.7467
 30
0.0
 11
126.956
 21
87.8459
 31
0.0
  0
LINE
  8
0
 62
     0
 10
126.956
 20
87.8459
 30
0.0
 11
126.157
 21
87.8459
 31
0.0
  0
LINE
  8
0
 62
     0
 10
126.157
 20
87.8459
 30
0.0
 11
126.157
 21
93.6459
 31
0.0
  0
LINE
  8
0
 62
     0
 10
126.157
 20
93.6459
 30
0.0
 11
126.956
 21
93.6459
 31
0.0
  0
LINE
  8
0
 62
     0
 10
126.956
 20
93.6459
 30
0.0
 11
126.956
 21
96.7465
 31
0.0
  0
LINE
  8
0
 62
     0
 10
126.956
 20
96.7465
 30
0.0
 11
126.157
 21
96.7465
 31
0.0
  0
LINE
  8
0
 62
     0
 10
126.157
 20
96.7465
 30
0.0
 11
126.157
 21
97.7456
 31
0.0
  0
LINE
  8
0
 62
     0
 10
126.157
 20
97.7456
 30
0.0
 11
112.157
 21
97.7456
 31
0.0
  0
LINE
  8
0
 62
     0
 10
93.1072
 20
97.7456
 30
0.0
 11
93.1072
 21
96.7465
 31
0.0
  0
LINE
  8
0
 62
     0
 10
93.1072
 20
96.7465
 30
0.0
 11
92.3064
 21
96.7465
 31
0.0
  0
LINE
  8
0
 62
     0
 10
92.3064
 20
96.7465
 30
0.0
 11
92.3064
 21
93.6459
 31
0.0
  0
LINE
  8
0
 62
     0
 10
92.3064
 20
93.6459
 30
0.0
 11
93.1072
 21
93.6459
 31
0.0
  0
LINE
  8
0
 62
     0
 10
93.1072
 20
93.6459
 30
0.0
 11
93.1072
 21
87.8459
 31
0.0
  0
LINE
  8
0
 62
     0
 10
93.1072
 20
87.8459
 30
0.0
 11
92.3064
 21
87.8459
 31
0.0
  0
LINE
  8
0
 62
     0
 10
92.3064
 20
87.8459
 30
0.0
 11
92.3064
 21
84.7467
 31
0.0
  0
LINE
  8
0
 62
     0
 10
92.3064
 20
84.7467
 30
0.0
 11
93.1072
 21
84.7467
 31
0.0
  0
LINE
  8
0
 62
     0
 10
93.1072
 20
84.7467
 30
0.0
 11
93.1072
 21
83.7463
 31
0.0
  0
LINE
  8
0
 62
     0
 10
93.1072
 20
83.7463
 30
0.0
 11
107.107
 21
83.7463
 31
0.0
  0
LINE
  8
0
 62
     0
 10
107.107
 20
83.7463
 30
0.0
 11
107.107
 21
84.7467
 31
0.0
  0
LINE
  8
0
 62
     0
 10
107.107
 20
84.7467
 30
0.0
 11
107.906
 21
84.7467
 31
0.0
  0
LINE
  8
0
 62
     0
 10
107.906
 20
84.7467
 30
0.0
 11
107.906
 21
87.8459
 31
0.0
  0
LINE
  8
0
 62
     0
 10
107.906
 20
87.8459
 30
0.0
 11
107.107
 21
87.8459
 31
0.0
  0
LINE
  8
0
 62
     0
 10
107.107
 20
87.8459
 30
0.0
 11
107.107
 21
93.6459
 31
0.0
  0
LINE
  8
0
 62
     0
 10
107.107
 20
93.6459
 30
0.0
 11
107.906
 21
93.6459
 31
0.0
  0
LINE
  8
0
 62
     0
 10
107.906
 20
93.6459
 30
0.0
 11
107.906
 21
96.7465
 31
0.0
  0
LINE
  8
0
 62
     0
 10
107.906
 20
96.7465
 30
0.0
 11
107.107
 21
96.7465
 31
0.0
  0
LINE
  8
0
 62
     0
 10
107.107
 20
96.7465
 30
0.0
 11
107.107
 21
97.7456
 31
0.0
  0
LINE
  8
0
 62
     0
 10
107.107
 20
97.7456
 30
0.0
 11
93.1072
 21
97.7456
 31
0.0
  0
LINE
  8
0
 62
     0
 10
74.0572
 20
97.7456
 30
0.0
 11
74.0572
 21
96.7465
 31
0.0
  0
LINE
  8
0
 62
     0
 10
74.0572
 20
96.7465
 30
0.0
 11
73.2564
 21
96.7465
 31
0.0
  0
LINE
  8
0
 62
     0
 10
73.2564
 20
96.7465
 30
0.0
 11
73.2564
 21
93.6459
 31
0.0
  0
LINE
  8
0
 62
     0
 10
73.2564
 20
93.6459
 30
0.0
 11
74.0572
 21
93.6459
 31
0.0
  0
LINE
  8
0
 62
     0
 10
74.0572
 20
93.6459
 30
0.0
 11
74.0572
 21
87.8459
 31
0.0
  0
LINE
  8
0
 62
     0
 10
74.0572
 20
87.8459
 30
0.0
 11
73.2564
 21
87.8459
 31
0.0
  0
LINE
  8
0
 62
     0
 10
73.2564
 20
87.8459
 30
0.0
 11
73.2564
 21
84.7467
 31
0.0
  0
LINE
  8
0
 62
     0
 10
73.2564
 20
84.7467
 30
0.0
 11
74.0572
 21
84.7467
 31
0.0
  0
LINE
  8
0
 62
     0
 10
74.0572
 20
84.7467
 30
0.0
 11
74.0572
 21
83.7463
 31
0.0
  0
LINE
  8
0
 62
     0
 10
74.0572
 20
83.7463
 30
0.0
 11
88.0565
 21
83.7463
 31
0.0
  0
LINE
  8
0
 62
     0
 10
88.0565
 20
83.7463
 30
0.0
 11
88.0565
 21
84.7467
 31
0.0
  0
LINE
  8
0
 62
     0
 10
88.0565
 20
84.7467
 30
0.0
 11
88.8559
 21
84.7467
 31
0.0
  0
LINE
  8
0
 62
     0
 10
88.8559
 20
84.7467
 30
0.0
 11
88.8559
 21
87.8459
 31
0.0
  0
LINE
  8
0
 62
     0
 10
88.8559
 20
87.8459
 30
0.0
 11
88.0565
 21
87.8459
 31
0.0
  0
LINE
  8
0
 62
     0
 10
88.0565
 20
87.8459
 30
0.0
 11
88.0565
 21
93.6459
 31
0.0
  0
LINE
  8
0
 62
     0
 10
88.0565
 20
93.6459
 30
0.0
 11
88.8559
 21
93.6459
 31
0.0
  0
LINE
  8
0
 62
     0
 10
88.8559
 20
93.6459
 30
0.0
 11
88.8559
 21
96.7465
 31
0.0
  0
LINE
  8
0
 62
     0
 10
88.8559
 20
96.7465
 30
0.0
 11
88.0565
 21
96.7465
 31
0.0
  0
LINE
  8
0
 62
     0
 10
88.0565
 20
96.7465
 30
0.0
 11
88.0565
 21
97.7456
 31
0.0
  0
LINE
  8
0
 62
     0
 10
88.0565
 20
97.7456
 30
0.0
 11
74.0572
 21
97.7456
 31
0.0
  0
LINE
  8
0
 62
     0
 10
55.0072
 20
97.7456
 30
0.0
 11
55.0072
 21
96.7465
 31
0.0
  0
LINE
  8
0
 62
     0
 10
55.0072
 20
96.7465
 30
0.0
 11
54.2064
 21
96.7465
 31
0.0
  0
LINE
  8
0
 62
     0
 10
54.2064
 20
96.7465
 30
0.0
 11
54.2064
 21
93.6459
 31
0.0
  0
LINE
  8
0
 62
     0
 10
54.2064
 20
93.6459
 30
0.0
 11
55.0072
 21
93.6459
 31
0.0
  0
LINE
  8
0
 62
     0
 10
55.0072
 20
93.6459
 30
0.0
 11
55.0072
 21
87.8459
 31
0.0
  0
LINE
  8
0
 62
     0
 10
55.0072
 20
87.8459
 30
0.0
 11
54.2064
 21
87.8459
 31
0.0
  0
LINE
  8
0
 62
     0
 10
54.2064
 20
87.8459
 30
0.0
 11
54.2064
 21
84.7467
 31
0.0
  0
LINE
  8
0
 62
     0
 10
54.2064
 20
84.7467
 30
0.0
 11
55.0072
 21
84.7467
 31
0.0
  0
LINE
  8
0
 62
     0
 10
55.0072
 20
84.7467
 30
0.0
 11
55.0072
 21
83.7463
 31
0.0
  0
LINE
  8
0
 62
     0
 10
55.0072
 20
83.7463
 30
0.0
 11
69.0065
 21
83.7463
 31
0.0
  0
LINE
  8
0
 62
     0
 10
69.0065
 20
83.7463
 30
0.0
 11
69.0065
 21
84.7467
 31
0.0
  0
LINE
  8
0
 62
     0
 10
69.0065
 20
84.7467
 30
0.0
 11
69.8059
 21
84.7467
 31
0.0
  0
LINE
  8
0
 62
     0
 10
69.8059
 20
84.7467
 30
0.0
 11
69.8059
 21
87.8459
 31
0.0
  0
LINE
  8
0
 62
     0
 10
69.8059
 20
87.8459
 30
0.0
 11
69.0065
 21
87.8459
 31
0.0
  0
LINE
  8
0
 62
     0
 10
69.0065
 20
87.8459
 30
0.0
 11
69.0065
 21
93.6459
 31
0.0
  0
LINE
  8
0
 62
     0
 10
69.0065
 20
93.6459
 30
0.0
 11
69.8059
 21
93.6459
 31
0.0
  0
LINE
  8
0
 62
     0
 10
69.8059
 20
93.6459
 30
0.0
 11
69.8059
 21
96.7465
 31
0.0
  0
LINE
  8
0
 62
     0
 10
69.8059
 20
96.7465
 30
0.0
 11
69.0065
 21
96.7465
 31
0.0
  0
LINE
  8
0
 62
     0
 10
69.0065
 20
96.7465
 30
0.0
 11
69.0065
 21
97.7456
 31
0.0
  0
LINE
  8
0
 62
     0
 10
69.0065
 20
97.7456
 30
0.0
 11
55.0072
 21
97.7456
 31
0.0
  0
LINE
  8
0
 62
     0
 10
35.9572
 20
97.7456
 30
0.0
 11
35.9572
 21
96.7465
 31
0.0
  0
LINE
  8
0
 62
     0
 10
35.9572
 20
96.7465
 30
0.0
 11
35.1565
 21
96.7465
 31
0.0
  0
LINE
  8
0
 62
     0
 10
35.1565
 20
96.7465
 30
0.0
 11
35.1565
 21
93.6459
 31
0.0
  0
LINE
  8
0
 62
     0
 10
35.1565
 20
93.6459
 30
0.0
 11
35.9572
 21
93.6459
 31
0.0
  0
LINE
  8
0
 62
     0
 10
35.9572
 20
93.6459
 30
0.0
 11
35.9572
 21
87.8459
 31
0.0
  0
LINE
  8
0
 62
     0
 10
35.9572
 20
87.8459
 30
0.0
 11
35.1565
 21
87.8459
 31
0.0
  0
LINE
  8
0
 62
     0
 10
35.1565
 20
87.8459
 30
0.0
 11
35.1565
 21
84.7467
 31
0.0
  0
LINE
  8
0
 62
     0
 10
35.1565
 20
84.7467
 30
0.0
 11
35.9572
 21
84.7467
 31
0.0
  0
LINE
  8
0
 62
     0
 10
35.9572
 20
84.7467
 30
0.0
 11
35.9572
 21
83.7463
 31
0.0
  0
LINE
  8
0
 62
     0
 10
35.9572
 20
83.7463
 30
0.0
 11
49.9565
 21
83.7463
 31
0.0
  0
LINE
  8
0
 62
     0
 10
49.9565
 20
83.7463
 30
0.0
 11
49.9565
 21
84.7467
 31
0.0
  0
LINE
  8
0
 62
     0
 10
49.9565
 20
84.7467
 30
0.0
 11
50.7559
 21
84.7467
 31
0.0
  0
LINE
  8
0
 62
     0
 10
50.7559
 20
84.7467
 30
0.0
 11
50.7559
 21
87.8459
 31
0.0
  0
LINE
  8
0
 62
     0
 10
50.7559
 20
87.8459
 30
0.0
 11
49.9565
 21
87.8459
 31
0.0
  0
LINE
  8
0
 62
     0
 10
49.9565
 20
87.8459
 30
0.0
 11
49.9565
 21
93.6459
 31
0.0
  0
LINE
  8
0
 62
     0
 10
49.9565
 20
93.6459
 30
0.0
 11
50.7559
 21
93.6459
 31
0.0
  0
LINE
  8
0
 62
     0
 10
50.7559
 20
93.6459
 30
0.0
 11
50.7559
 21
96.7465
 31
0.0
  0
LINE
  8
0
 62
     0
 10
50.7559
 20
96.7465
 30
0.0
 11
49.9565
 21
96.7465
 31
0.0
  0
LINE
  8
0
 62
     0
 10
49.9565
 20
96.7465
 30
0.0
 11
49.9565
 21
97.7456
 31
0.0
  0
LINE
  8
0
 62
     0
 10
49.9565
 20
97.7456
 30
0.0
 11
35.9572
 21
97.7456
 31
0.0
  0
LINE
  8
0
 62
     0
 10
345.52
 20
121.558
 30
0.0
 11
345.52
 21
120.558
 31
0.0
  0
LINE
  8
0
 62
     0
 10
345.52
 20
120.558
 30
0.0
 11
344.719
 21
120.558
 31
0.0
  0
LINE
  8
0
 62
     0
 10
344.719
 20
120.558
 30
0.0
 11
344.719
 21
117.458
 31
0.0
  0
LINE
  8
0
 62
     0
 10
344.719
 20
117.458
 30
0.0
 11
345.52
 21
117.458
 31
0.0
  0
LINE
  8
0
 62
     0
 10
345.52
 20
117.458
 30
0.0
 11
345.52
 21
111.658
 31
0.0
  0
LINE
  8
0
 62
     0
 10
345.52
 20
111.658
 30
0.0
 11
344.719
 21
111.658
 31
0.0
  0
LINE
  8
0
 62
     0
 10
344.719
 20
111.658
 30
0.0
 11
344.719
 21
108.558
 31
0.0
  0
LINE
  8
0
 62
     0
 10
344.719
 20
108.558
 30
0.0
 11
345.52
 21
108.558
 31
0.0
  0
LINE
  8
0
 62
     0
 10
345.52
 20
108.558
 30
0.0
 11
345.52
 21
107.559
 31
0.0
  0
LINE
  8
0
 62
     0
 10
345.52
 20
107.559
 30
0.0
 11
359.519
 21
107.559
 31
0.0
  0
LINE
  8
0
 62
     0
 10
359.519
 20
107.559
 30
0.0
 11
359.519
 21
108.558
 31
0.0
  0
LINE
  8
0
 62
     0
 10
359.519
 20
108.558
 30
0.0
 11
360.32
 21
108.558
 31
0.0
  0
LINE
  8
0
 62
     0
 10
360.32
 20
108.558
 30
0.0
 11
360.32
 21
111.658
 31
0.0
  0
LINE
  8
0
 62
     0
 10
360.32
 20
111.658
 30
0.0
 11
359.519
 21
111.658
 31
0.0
  0
LINE
  8
0
 62
     0
 10
359.519
 20
111.658
 30
0.0
 11
359.519
 21
117.458
 31
0.0
  0
LINE
  8
0
 62
     0
 10
359.519
 20
117.458
 30
0.0
 11
360.32
 21
117.458
 31
0.0
  0
LINE
  8
0
 62
     0
 10
360.32
 20
117.458
 30
0.0
 11
360.32
 21
120.558
 31
0.0
  0
LINE
  8
0
 62
     0
 10
360.32
 20
120.558
 30
0.0
 11
359.519
 21
120.558
 31
0.0
  0
LINE
  8
0
 62
     0
 10
359.519
 20
120.558
 30
0.0
 11
359.519
 21
121.558
 31
0.0
  0
LINE
  8
0
 62
     0
 10
359.519
 20
121.558
 30
0.0
 11
345.52
 21
121.558
 31
0.0
  0
LINE
  8
0
 62
     0
 10
326.47
 20
121.558
 30
0.0
 11
326.47
 21
120.558
 31
0.0
  0
LINE
  8
0
 62
     0
 10
326.47
 20
120.558
 30
0.0
 11
325.669
 21
120.558
 31
0.0
  0
LINE
  8
0
 62
     0
 10
325.669
 20
120.558
 30
0.0
 11
325.669
 21
117.458
 31
0.0
  0
LINE
  8
0
 62
     0
 10
325.669
 20
117.458
 30
0.0
 11
326.47
 21
117.458
 31
0.0
  0
LINE
  8
0
 62
     0
 10
326.47
 20
117.458
 30
0.0
 11
326.47
 21
111.658
 31
0.0
  0
LINE
  8
0
 62
     0
 10
326.47
 20
111.658
 30
0.0
 11
325.669
 21
111.658
 31
0.0
  0
LINE
  8
0
 62
     0
 10
325.669
 20
111.658
 30
0.0
 11
325.669
 21
108.558
 31
0.0
  0
LINE
  8
0
 62
     0
 10
325.669
 20
108.558
 30
0.0
 11
326.47
 21
108.558
 31
0.0
  0
LINE
  8
0
 62
     0
 10
326.47
 20
108.558
 30
0.0
 11
326.47
 21
107.559
 31
0.0
  0
LINE
  8
0
 62
     0
 10
326.47
 20
107.559
 30
0.0
 11
340.469
 21
107.559
 31
0.0
  0
LINE
  8
0
 62
     0
 10
340.469
 20
107.559
 30
0.0
 11
340.469
 21
108.558
 31
0.0
  0
LINE
  8
0
 62
     0
 10
340.469
 20
108.558
 30
0.0
 11
341.27
 21
108.558
 31
0.0
  0
LINE
  8
0
 62
     0
 10
341.27
 20
108.558
 30
0.0
 11
341.27
 21
111.658
 31
0.0
  0
LINE
  8
0
 62
     0
 10
341.27
 20
111.658
 30
0.0
 11
340.469
 21
111.658
 31
0.0
  0
LINE
  8
0
 62
     0
 10
340.469
 20
111.658
 30
0.0
 11
340.469
 21
117.458
 31
0.0
  0
LINE
  8
0
 62
     0
 10
340.469
 20
117.458
 30
0.0
 11
341.27
 21
117.458
 31
0.0
  0
LINE
  8
0
 62
     0
 10
341.27
 20
117.458
 30
0.0
 11
341.27
 21
120.558
 31
0.0
  0
LINE
  8
0
 62
     0
 10
341.27
 20
120.558
 30
0.0
 11
340.469
 21
120.558
 31
0.0
  0
LINE
  8
0
 62
     0
 10
340.469
 20
120.558
 30
0.0
 11
340.469
 21
121.558
 31
0.0
  0
LINE
  8
0
 62
     0
 10
340.469
 20
121.558
 30
0.0
 11
326.47
 21
121.558
 31
0.0
  0
LINE
  8
0
 62
     0
 10
302.657
 20
121.558
 30
0.0
 11
302.657
 21
120.558
 31
0.0
  0
LINE
  8
0
 62
     0
 10
302.657
 20
120.558
 30
0.0
 11
301.856
 21
120.558
 31
0.0
  0
LINE
  8
0
 62
     0
 10
301.856
 20
120.558
 30
0.0
 11
301.856
 21
117.458
 31
0.0
  0
LINE
  8
0
 62
     0
 10
301.856
 20
117.458
 30
0.0
 11
302.657
 21
117.458
 31
0.0
  0
LINE
  8
0
 62
     0
 10
302.657
 20
117.458
 30
0.0
 11
302.657
 21
111.658
 31
0.0
  0
LINE
  8
0
 62
     0
 10
302.657
 20
111.658
 30
0.0
 11
301.856
 21
111.658
 31
0.0
  0
LINE
  8
0
 62
     0
 10
301.856
 20
111.658
 30
0.0
 11
301.856
 21
108.558
 31
0.0
  0
LINE
  8
0
 62
     0
 10
301.856
 20
108.558
 30
0.0
 11
302.657
 21
108.558
 31
0.0
  0
LINE
  8
0
 62
     0
 10
302.657
 20
108.558
 30
0.0
 11
302.657
 21
107.559
 31
0.0
  0
LINE
  8
0
 62
     0
 10
302.657
 20
107.559
 30
0.0
 11
316.657
 21
107.559
 31
0.0
  0
LINE
  8
0
 62
     0
 10
316.657
 20
107.559
 30
0.0
 11
316.657
 21
108.558
 31
0.0
  0
LINE
  8
0
 62
     0
 10
316.657
 20
108.558
 30
0.0
 11
317.456
 21
108.558
 31
0.0
  0
LINE
  8
0
 62
     0
 10
317.456
 20
108.558
 30
0.0
 11
317.456
 21
111.658
 31
0.0
  0
LINE
  8
0
 62
     0
 10
317.456
 20
111.658
 30
0.0
 11
316.657
 21
111.658
 31
0.0
  0
LINE
  8
0
 62
     0
 10
316.657
 20
111.658
 30
0.0
 11
316.657
 21
117.458
 31
0.0
  0
LINE
  8
0
 62
     0
 10
316.657
 20
117.458
 30
0.0
 11
317.456
 21
117.458
 31
0.0
  0
LINE
  8
0
 62
     0
 10
317.456
 20
117.458
 30
0.0
 11
317.456
 21
120.558
 31
0.0
  0
LINE
  8
0
 62
     0
 10
317.456
 20
120.558
 30
0.0
 11
316.657
 21
120.558
 31
0.0
  0
LINE
  8
0
 62
     0
 10
316.657
 20
120.558
 30
0.0
 11
316.657
 21
121.558
 31
0.0
  0
LINE
  8
0
 62
     0
 10
316.657
 20
121.558
 30
0.0
 11
302.657
 21
121.558
 31
0.0
  0
LINE
  8
0
 62
     0
 10
283.607
 20
121.558
 30
0.0
 11
283.607
 21
120.558
 31
0.0
  0
LINE
  8
0
 62
     0
 10
283.607
 20
120.558
 30
0.0
 11
282.806
 21
120.558
 31
0.0
  0
LINE
  8
0
 62
     0
 10
282.806
 20
120.558
 30
0.0
 11
282.806
 21
117.458
 31
0.0
  0
LINE
  8
0
 62
     0
 10
282.806
 20
117.458
 30
0.0
 11
283.607
 21
117.458
 31
0.0
  0
LINE
  8
0
 62
     0
 10
283.607
 20
117.458
 30
0.0
 11
283.607
 21
111.658
 31
0.0
  0
LINE
  8
0
 62
     0
 10
283.607
 20
111.658
 30
0.0
 11
282.806
 21
111.658
 31
0.0
  0
LINE
  8
0
 62
     0
 10
282.806
 20
111.658
 30
0.0
 11
282.806
 21
108.558
 31
0.0
  0
LINE
  8
0
 62
     0
 10
282.806
 20
108.558
 30
0.0
 11
283.607
 21
108.558
 31
0.0
  0
LINE
  8
0
 62
     0
 10
283.607
 20
108.558
 30
0.0
 11
283.607
 21
107.559
 31
0.0
  0
LINE
  8
0
 62
     0
 10
283.607
 20
107.559
 30
0.0
 11
297.607
 21
107.559
 31
0.0
  0
LINE
  8
0
 62
     0
 10
297.607
 20
107.559
 30
0.0
 11
297.607
 21
108.558
 31
0.0
  0
LINE
  8
0
 62
     0
 10
297.607
 20
108.558
 30
0.0
 11
298.406
 21
108.558
 31
0.0
  0
LINE
  8
0
 62
     0
 10
298.406
 20
108.558
 30
0.0
 11
298.406
 21
111.658
 31
0.0
  0
LINE
  8
0
 62
     0
 10
298.406
 20
111.658
 30
0.0
 11
297.607
 21
111.658
 31
0.0
  0
LINE
  8
0
 62
     0
 10
297.607
 20
111.658
 30
0.0
 11
297.607
 21
117.458
 31
0.0
  0
LINE
  8
0
 62
     0
 10
297.607
 20
117.458
 30
0.0
 11
298.406
 21
117.458
 31
0.0
  0
LINE
  8
0
 62
     0
 10
298.406
 20
117.458
 30
0.0
 11
298.406
 21
120.558
 31
0.0
  0
LINE
  8
0
 62
     0
 10
298.406
 20
120.558
 30
0.0
 11
297.607
 21
120.558
 31
0.0
  0
LINE
  8
0
 62
     0
 10
297.607
 20
120.558
 30
0.0
 11
297.607
 21
121.558
 31
0.0
  0
LINE
  8
0
 62
     0
 10
297.607
 20
121.558
 30
0.0
 11
283.607
 21
121.558
 31
0.0
  0
LINE
  8
0
 62
     0
 10
264.557
 20
121.558
 30
0.0
 11
264.557
 21
120.558
 31
0.0
  0
LINE
  8
0
 62
     0
 10
264.557
 20
120.558
 30
0.0
 11
263.756
 21
120.558
 31
0.0
  0
LINE
  8
0
 62
     0
 10
263.756
 20
120.558
 30
0.0
 11
263.756
 21
117.458
 31
0.0
  0
LINE
  8
0
 62
     0
 10
263.756
 20
117.458
 30
0.0
 11
264.557
 21
117.458
 31
0.0
  0
LINE
  8
0
 62
     0
 10
264.557
 20
117.458
 30
0.0
 11
264.557
 21
111.658
 31
0.0
  0
LINE
  8
0
 62
     0
 10
264.557
 20
111.658
 30
0.0
 11
263.756
 21
111.658
 31
0.0
  0
LINE
  8
0
 62
     0
 10
263.756
 20
111.658
 30
0.0
 11
263.756
 21
108.558
 31
0.0
  0
LINE
  8
0
 62
     0
 10
263.756
 20
108.558
 30
0.0
 11
264.557
 21
108.558
 31
0.0
  0
LINE
  8
0
 62
     0
 10
264.557
 20
108.558
 30
0.0
 11
264.557
 21
107.559
 31
0.0
  0
LINE
  8
0
 62
     0
 10
264.557
 20
107.559
 30
0.0
 11
278.557
 21
107.559
 31
0.0
  0
LINE
  8
0
 62
     0
 10
278.557
 20
107.559
 30
0.0
 11
278.557
 21
108.558
 31
0.0
  0
LINE
  8
0
 62
     0
 10
278.557
 20
108.558
 30
0.0
 11
279.356
 21
108.558
 31
0.0
  0
LINE
  8
0
 62
     0
 10
279.356
 20
108.558
 30
0.0
 11
279.356
 21
111.658
 31
0.0
  0
LINE
  8
0
 62
     0
 10
279.356
 20
111.658
 30
0.0
 11
278.557
 21
111.658
 31
0.0
  0
LINE
  8
0
 62
     0
 10
278.557
 20
111.658
 30
0.0
 11
278.557
 21
117.458
 31
0.0
  0
LINE
  8
0
 62
     0
 10
278.557
 20
117.458
 30
0.0
 11
279.356
 21
117.458
 31
0.0
  0
LINE
  8
0
 62
     0
 10
279.356
 20
117.458
 30
0.0
 11
279.356
 21
120.558
 31
0.0
  0
LINE
  8
0
 62
     0
 10
279.356
 20
120.558
 30
0.0
 11
278.557
 21
120.558
 31
0.0
  0
LINE
  8
0
 62
     0
 10
278.557
 20
120.558
 30
0.0
 11
278.557
 21
121.558
 31
0.0
  0
LINE
  8
0
 62
     0
 10
278.557
 20
121.558
 30
0.0
 11
264.557
 21
121.558
 31
0.0
  0
LINE
  8
0
 62
     0
 10
245.507
 20
121.558
 30
0.0
 11
245.507
 21
120.558
 31
0.0
  0
LINE
  8
0
 62
     0
 10
245.507
 20
120.558
 30
0.0
 11
244.706
 21
120.558
 31
0.0
  0
LINE
  8
0
 62
     0
 10
244.706
 20
120.558
 30
0.0
 11
244.706
 21
117.458
 31
0.0
  0
LINE
  8
0
 62
     0
 10
244.706
 20
117.458
 30
0.0
 11
245.507
 21
117.458
 31
0.0
  0
LINE
  8
0
 62
     0
 10
245.507
 20
117.458
 30
0.0
 11
245.507
 21
111.658
 31
0.0
  0
LINE
  8
0
 62
     0
 10
245.507
 20
111.658
 30
0.0
 11
244.706
 21
111.658
 31
0.0
  0
LINE
  8
0
 62
     0
 10
244.706
 20
111.658
 30
0.0
 11
244.706
 21
108.558
 31
0.0
  0
LINE
  8
0
 62
     0
 10
244.706
 20
108.558
 30
0.0
 11
245.507
 21
108.558
 31
0.0
  0
LINE
  8
0
 62
     0
 10
245.507
 20
108.558
 30
0.0
 11
245.507
 21
107.559
 31
0.0
  0
LINE
  8
0
 62
     0
 10
245.507
 20
107.559
 30
0.0
 11
259.507
 21
107.559
 31
0.0
  0
LINE
  8
0
 62
     0
 10
259.507
 20
107.559
 30
0.0
 11
259.507
 21
108.558
 31
0.0
  0
LINE
  8
0
 62
     0
 10
259.507
 20
108.558
 30
0.0
 11
260.306
 21
108.558
 31
0.0
  0
LINE
  8
0
 62
     0
 10
260.306
 20
108.558
 30
0.0
 11
260.306
 21
111.658
 31
0.0
  0
LINE
  8
0
 62
     0
 10
260.306
 20
111.658
 30
0.0
 11
259.507
 21
111.658
 31
0.0
  0
LINE
  8
0
 62
     0
 10
259.507
 20
111.658
 30
0.0
 11
259.507
 21
117.458
 31
0.0
  0
LINE
  8
0
 62
     0
 10
259.507
 20
117.458
 30
0.0
 11
260.306
 21
117.458
 31
0.0
  0
LINE
  8
0
 62
     0
 10
260.306
 20
117.458
 30
0.0
 11
260.306
 21
120.558
 31
0.0
  0
LINE
  8
0
 62
     0
 10
260.306
 20
120.558
 30
0.0
 11
259.507
 21
120.558
 31
0.0
  0
LINE
  8
0
 62
     0
 10
259.507
 20
120.558
 30
0.0
 11
259.507
 21
121.558
 31
0.0
  0
LINE
  8
0
 62
     0
 10
259.507
 20
121.558
 30
0.0
 11
245.507
 21
121.558
 31
0.0
  0
LINE
  8
0
 62
     0
 10
226.457
 20
121.558
 30
0.0
 11
226.457
 21
120.558
 31
0.0
  0
LINE
  8
0
 62
     0
 10
226.457
 20
120.558
 30
0.0
 11
225.656
 21
120.558
 31
0.0
  0
LINE
  8
0
 62
     0
 10
225.656
 20
120.558
 30
0.0
 11
225.656
 21
117.458
 31
0.0
  0
LINE
  8
0
 62
     0
 10
225.656
 20
117.458
 30
0.0
 11
226.457
 21
117.458
 31
0.0
  0
LINE
  8
0
 62
     0
 10
226.457
 20
117.458
 30
0.0
 11
226.457
 21
111.658
 31
0.0
  0
LINE
  8
0
 62
     0
 10
226.457
 20
111.658
 30
0.0
 11
225.656
 21
111.658
 31
0.0
  0
LINE
  8
0
 62
     0
 10
225.656
 20
111.658
 30
0.0
 11
225.656
 21
108.558
 31
0.0
  0
LINE
  8
0
 62
     0
 10
225.656
 20
108.558
 30
0.0
 11
226.457
 21
108.558
 31
0.0
  0
LINE
  8
0
 62
     0
 10
226.457
 20
108.558
 30
0.0
 11
226.457
 21
107.559
 31
0.0
  0
LINE
  8
0
 62
     0
 10
226.457
 20
107.559
 30
0.0
 11
240.457
 21
107.559
 31
0.0
  0
LINE
  8
0
 62
     0
 10
240.457
 20
107.559
 30
0.0
 11
240.457
 21
108.558
 31
0.0
  0
LINE
  8
0
 62
     0
 10
240.457
 20
108.558
 30
0.0
 11
241.256
 21
108.558
 31
0.0
  0
LINE
  8
0
 62
     0
 10
241.256
 20
108.558
 30
0.0
 11
241.256
 21
111.658
 31
0.0
  0
LINE
  8
0
 62
     0
 10
241.256
 20
111.658
 30
0.0
 11
240.457
 21
111.658
 31
0.0
  0
LINE
  8
0
 62
     0
 10
240.457
 20
111.658
 30
0.0
 11
240.457
 21
117.458
 31
0.0
  0
LINE
  8
0
 62
     0
 10
240.457
 20
117.458
 30
0.0
 11
241.256
 21
117.458
 31
0.0
  0
LINE
  8
0
 62
     0
 10
241.256
 20
117.458
 30
0.0
 11
241.256
 21
120.558
 31
0.0
  0
LINE
  8
0
 62
     0
 10
241.256
 20
120.558
 30
0.0
 11
240.457
 21
120.558
 31
0.0
  0
LINE
  8
0
 62
     0
 10
240.457
 20
120.558
 30
0.0
 11
240.457
 21
121.558
 31
0.0
  0
LINE
  8
0
 62
     0
 10
240.457
 20
121.558
 30
0.0
 11
226.457
 21
121.558
 31
0.0
  0
LINE
  8
0
 62
     0
 10
202.645
 20
121.558
 30
0.0
 11
202.645
 21
120.558
 31
0.0
  0
LINE
  8
0
 62
     0
 10
202.645
 20
120.558
 30
0.0
 11
201.844
 21
120.558
 31
0.0
  0
LINE
  8
0
 62
     0
 10
201.844
 20
120.558
 30
0.0
 11
201.844
 21
117.458
 31
0.0
  0
LINE
  8
0
 62
     0
 10
201.844
 20
117.458
 30
0.0
 11
202.645
 21
117.458
 31
0.0
  0
LINE
  8
0
 62
     0
 10
202.645
 20
117.458
 30
0.0
 11
202.645
 21
111.658
 31
0.0
  0
LINE
  8
0
 62
     0
 10
202.645
 20
111.658
 30
0.0
 11
201.844
 21
111.658
 31
0.0
  0
LINE
  8
0
 62
     0
 10
201.844
 20
111.658
 30
0.0
 11
201.844
 21
108.558
 31
0.0
  0
LINE
  8
0
 62
     0
 10
201.844
 20
108.558
 30
0.0
 11
202.645
 21
108.558
 31
0.0
  0
LINE
  8
0
 62
     0
 10
202.645
 20
108.558
 30
0.0
 11
202.645
 21
107.559
 31
0.0
  0
LINE
  8
0
 62
     0
 10
202.645
 20
107.559
 30
0.0
 11
216.644
 21
107.559
 31
0.0
  0
LINE
  8
0
 62
     0
 10
216.644
 20
107.559
 30
0.0
 11
216.644
 21
108.558
 31
0.0
  0
LINE
  8
0
 62
     0
 10
216.644
 20
108.558
 30
0.0
 11
217.445
 21
108.558
 31
0.0
  0
LINE
  8
0
 62
     0
 10
217.445
 20
108.558
 30
0.0
 11
217.445
 21
111.658
 31
0.0
  0
LINE
  8
0
 62
     0
 10
217.445
 20
111.658
 30
0.0
 11
216.644
 21
111.658
 31
0.0
  0
LINE
  8
0
 62
     0
 10
216.644
 20
111.658
 30
0.0
 11
216.644
 21
117.458
 31
0.0
  0
LINE
  8
0
 62
     0
 10
216.644
 20
117.458
 30
0.0
 11
217.445
 21
117.458
 31
0.0
  0
LINE
  8
0
 62
     0
 10
217.445
 20
117.458
 30
0.0
 11
217.445
 21
120.558
 31
0.0
  0
LINE
  8
0
 62
     0
 10
217.445
 20
120.558
 30
0.0
 11
216.644
 21
120.558
 31
0.0
  0
LINE
  8
0
 62
     0
 10
216.644
 20
120.558
 30
0.0
 11
216.644
 21
121.558
 31
0.0
  0
LINE
  8
0
 62
     0
 10
216.644
 20
121.558
 30
0.0
 11
202.645
 21
121.558
 31
0.0
  0
LINE
  8
0
 62
     0
 10
183.595
 20
121.558
 30
0.0
 11
183.595
 21
120.558
 31
0.0
  0
LINE
  8
0
 62
     0
 10
183.595
 20
120.558
 30
0.0
 11
182.794
 21
120.558
 31
0.0
  0
LINE
  8
0
 62
     0
 10
182.794
 20
120.558
 30
0.0
 11
182.794
 21
117.458
 31
0.0
  0
LINE
  8
0
 62
     0
 10
182.794
 20
117.458
 30
0.0
 11
183.595
 21
117.458
 31
0.0
  0
LINE
  8
0
 62
     0
 10
183.595
 20
117.458
 30
0.0
 11
183.595
 21
111.658
 31
0.0
  0
LINE
  8
0
 62
     0
 10
183.595
 20
111.658
 30
0.0
 11
182.794
 21
111.658
 31
0.0
  0
LINE
  8
0
 62
     0
 10
182.794
 20
111.658
 30
0.0
 11
182.794
 21
108.558
 31
0.0
  0
LINE
  8
0
 62
     0
 10
182.794
 20
108.558
 30
0.0
 11
183.595
 21
108.558
 31
0.0
  0
LINE
  8
0
 62
     0
 10
183.595
 20
108.558
 30
0.0
 11
183.595
 21
107.559
 31
0.0
  0
LINE
  8
0
 62
     0
 10
183.595
 20
107.559
 30
0.0
 11
197.594
 21
107.559
 31
0.0
  0
LINE
  8
0
 62
     0
 10
197.594
 20
107.559
 30
0.0
 11
197.594
 21
108.558
 31
0.0
  0
LINE
  8
0
 62
     0
 10
197.594
 20
108.558
 30
0.0
 11
198.395
 21
108.558
 31
0.0
  0
LINE
  8
0
 62
     0
 10
198.395
 20
108.558
 30
0.0
 11
198.395
 21
111.658
 31
0.0
  0
LINE
  8
0
 62
     0
 10
198.395
 20
111.658
 30
0.0
 11
197.594
 21
111.658
 31
0.0
  0
LINE
  8
0
 62
     0
 10
197.594
 20
111.658
 30
0.0
 11
197.594
 21
117.458
 31
0.0
  0
LINE
  8
0
 62
     0
 10
197.594
 20
117.458
 30
0.0
 11
198.395
 21
117.458
 31
0.0
  0
LINE
  8
0
 62
     0
 10
198.395
 20
117.458
 30
0.0
 11
198.395
 21
120.558
 31
0.0
  0
LINE
  8
0
 62
     0
 10
198.395
 20
120.558
 30
0.0
 11
197.594
 21
120.558
 31
0.0
  0
LINE
  8
0
 62
     0
 10
197.594
 20
120.558
 30
0.0
 11
197.594
 21
121.558
 31
0.0
  0
LINE
  8
0
 62
     0
 10
197.594
 20
121.558
 30
0.0
 11
183.595
 21
121.558
 31
0.0
  0
LINE
  8
0
 62
     0
 10
164.545
 20
121.558
 30
0.0
 11
164.545
 21
120.558
 31
0.0
  0
LINE
  8
0
 62
     0
 10
164.545
 20
120.558
 30
0.0
 11
163.744
 21
120.558
 31
0.0
  0
LINE
  8
0
 62
     0
 10
163.744
 20
120.558
 30
0.0
 11
163.744
 21
117.458
 31
0.0
  0
LINE
  8
0
 62
     0
 10
163.744
 20
117.458
 30
0.0
 11
164.545
 21
117.458
 31
0.0
  0
LINE
  8
0
 62
     0
 10
164.545
 20
117.458
 30
0.0
 11
164.545
 21
111.658
 31
0.0
  0
LINE
  8
0
 62
     0
 10
164.545
 20
111.658
 30
0.0
 11
163.744
 21
111.658
 31
0.0
  0
LINE
  8
0
 62
     0
 10
163.744
 20
111.658
 30
0.0
 11
163.744
 21
108.558
 31
0.0
  0
LINE
  8
0
 62
     0
 10
163.744
 20
108.558
 30
0.0
 11
164.545
 21
108.558
 31
0.0
  0
LINE
  8
0
 62
     0
 10
164.545
 20
108.558
 30
0.0
 11
164.545
 21
107.559
 31
0.0
  0
LINE
  8
0
 62
     0
 10
164.545
 20
107.559
 30
0.0
 11
178.544
 21
107.559
 31
0.0
  0
LINE
  8
0
 62
     0
 10
178.544
 20
107.559
 30
0.0
 11
178.544
 21
108.558
 31
0.0
  0
LINE
  8
0
 62
     0
 10
178.544
 20
108.558
 30
0.0
 11
179.345
 21
108.558
 31
0.0
  0
LINE
  8
0
 62
     0
 10
179.345
 20
108.558
 30
0.0
 11
179.345
 21
111.658
 31
0.0
  0
LINE
  8
0
 62
     0
 10
179.345
 20
111.658
 30
0.0
 11
178.544
 21
111.658
 31
0.0
  0
LINE
  8
0
 62
     0
 10
178.544
 20
111.658
 30
0.0
 11
178.544
 21
117.458
 31
0.0
  0
LINE
  8
0
 62
     0
 10
178.544
 20
117.458
 30
0.0
 11
179.345
 21
117.458
 31
0.0
  0
LINE
  8
0
 62
     0
 10
179.345
 20
117.458
 30
0.0
 11
179.345
 21
120.558
 31
0.0
  0
LINE
  8
0
 62
     0
 10
179.345
 20
120.558
 30
0.0
 11
178.544
 21
120.558
 31
0.0
  0
LINE
  8
0
 62
     0
 10
178.544
 20
120.558
 30
0.0
 11
178.544
 21
121.558
 31
0.0
  0
LINE
  8
0
 62
     0
 10
178.544
 20
121.558
 30
0.0
 11
164.545
 21
121.558
 31
0.0
  0
LINE
  8
0
 62
     0
 10
145.495
 20
121.558
 30
0.0
 11
145.495
 21
120.558
 31
0.0
  0
LINE
  8
0
 62
     0
 10
145.495
 20
120.558
 30
0.0
 11
144.694
 21
120.558
 31
0.0
  0
LINE
  8
0
 62
     0
 10
144.694
 20
120.558
 30
0.0
 11
144.694
 21
117.458
 31
0.0
  0
LINE
  8
0
 62
     0
 10
144.694
 20
117.458
 30
0.0
 11
145.495
 21
117.458
 31
0.0
  0
LINE
  8
0
 62
     0
 10
145.495
 20
117.458
 30
0.0
 11
145.495
 21
111.658
 31
0.0
  0
LINE
  8
0
 62
     0
 10
145.495
 20
111.658
 30
0.0
 11
144.694
 21
111.658
 31
0.0
  0
LINE
  8
0
 62
     0
 10
144.694
 20
111.658
 30
0.0
 11
144.694
 21
108.558
 31
0.0
  0
LINE
  8
0
 62
     0
 10
144.694
 20
108.558
 30
0.0
 11
145.495
 21
108.558
 31
0.0
  0
LINE
  8
0
 62
     0
 10
145.495
 20
108.558
 30
0.0
 11
145.495
 21
107.559
 31
0.0
  0
LINE
  8
0
 62
     0
 10
145.495
 20
107.559
 30
0.0
 11
159.494
 21
107.559
 31
0.0
  0
LINE
  8
0
 62
     0
 10
159.494
 20
107.559
 30
0.0
 11
159.494
 21
108.558
 31
0.0
  0
LINE
  8
0
 62
     0
 10
159.494
 20
108.558
 30
0.0
 11
160.295
 21
108.558
 31
0.0
  0
LINE
  8
0
 62
     0
 10
160.295
 20
108.558
 30
0.0
 11
160.295
 21
111.658
 31
0.0
  0
LINE
  8
0
 62
     0
 10
160.295
 20
111.658
 30
0.0
 11
159.494
 21
111.658
 31
0.0
  0
LINE
  8
0
 62
     0
 10
159.494
 20
111.658
 30
0.0
 11
159.494
 21
117.458
 31
0.0
  0
LINE
  8
0
 62
     0
 10
159.494
 20
117.458
 30
0.0
 11
160.295
 21
117.458
 31
0.0
  0
LINE
  8
0
 62
     0
 10
160.295
 20
117.458
 30
0.0
 11
160.295
 21
120.558
 31
0.0
  0
LINE
  8
0
 62
     0
 10
160.295
 20
120.558
 30
0.0
 11
159.494
 21
120.558
 31
0.0
  0
LINE
  8
0
 62
     0
 10
159.494
 20
120.558
 30
0.0
 11
159.494
 21
121.558
 31
0.0
  0
LINE
  8
0
 62
     0
 10
159.494
 20
121.558
 30
0.0
 11
145.495
 21
121.558
 31
0.0
  0
LINE
  8
0
 62
     0
 10
121.682
 20
121.558
 30
0.0
 11
121.682
 21
120.558
 31
0.0
  0
LINE
  8
0
 62
     0
 10
121.682
 20
120.558
 30
0.0
 11
120.881
 21
120.558
 31
0.0
  0
LINE
  8
0
 62
     0
 10
120.881
 20
120.558
 30
0.0
 11
120.881
 21
117.458
 31
0.0
  0
LINE
  8
0
 62
     0
 10
120.881
 20
117.458
 30
0.0
 11
121.682
 21
117.458
 31
0.0
  0
LINE
  8
0
 62
     0
 10
121.682
 20
117.458
 30
0.0
 11
121.682
 21
111.658
 31
0.0
  0
LINE
  8
0
 62
     0
 10
121.682
 20
111.658
 30
0.0
 11
120.881
 21
111.658
 31
0.0
  0
LINE
  8
0
 62
     0
 10
120.881
 20
111.658
 30
0.0
 11
120.881
 21
108.558
 31
0.0
  0
LINE
  8
0
 62
     0
 10
120.881
 20
108.558
 30
0.0
 11
121.682
 21
108.558
 31
0.0
  0
LINE
  8
0
 62
     0
 10
121.682
 20
108.558
 30
0.0
 11
121.682
 21
107.559
 31
0.0
  0
LINE
  8
0
 62
     0
 10
121.682
 20
107.559
 30
0.0
 11
135.682
 21
107.559
 31
0.0
  0
LINE
  8
0
 62
     0
 10
135.682
 20
107.559
 30
0.0
 11
135.682
 21
108.558
 31
0.0
  0
LINE
  8
0
 62
     0
 10
135.682
 20
108.558
 30
0.0
 11
136.481
 21
108.558
 31
0.0
  0
LINE
  8
0
 62
     0
 10
136.481
 20
108.558
 30
0.0
 11
136.481
 21
111.658
 31
0.0
  0
LINE
  8
0
 62
     0
 10
136.481
 20
111.658
 30
0.0
 11
135.682
 21
111.658
 31
0.0
  0
LINE
  8
0
 62
     0
 10
135.682
 20
111.658
 30
0.0
 11
135.682
 21
117.458
 31
0.0
  0
LINE
  8
0
 62
     0
 10
135.682
 20
117.458
 30
0.0
 11
136.481
 21
117.458
 31
0.0
  0
LINE
  8
0
 62
     0
 10
136.481
 20
117.458
 30
0.0
 11
136.481
 21
120.558
 31
0.0
  0
LINE
  8
0
 62
     0
 10
136.481
 20
120.558
 30
0.0
 11
135.682
 21
120.558
 31
0.0
  0
LINE
  8
0
 62
     0
 10
135.682
 20
120.558
 30
0.0
 11
135.682
 21
121.558
 31
0.0
  0
LINE
  8
0
 62
     0
 10
135.682
 20
121.558
 30
0.0
 11
121.682
 21
121.558
 31
0.0
  0
LINE
  8
0
 62
     0
 10
102.632
 20
121.558
 30
0.0
 11
102.632
 21
120.558
 31
0.0
  0
LINE
  8
0
 62
     0
 10
102.632
 20
120.558
 30
0.0
 11
101.831
 21
120.558
 31
0.0
  0
LINE
  8
0
 62
     0
 10
101.831
 20
120.558
 30
0.0
 11
101.831
 21
117.458
 31
0.0
  0
LINE
  8
0
 62
     0
 10
101.831
 20
117.458
 30
0.0
 11
102.632
 21
117.458
 31
0.0
  0
LINE
  8
0
 62
     0
 10
102.632
 20
117.458
 30
0.0
 11
102.632
 21
111.658
 31
0.0
  0
LINE
  8
0
 62
     0
 10
102.632
 20
111.658
 30
0.0
 11
101.831
 21
111.658
 31
0.0
  0
LINE
  8
0
 62
     0
 10
101.831
 20
111.658
 30
0.0
 11
101.831
 21
108.558
 31
0.0
  0
LINE
  8
0
 62
     0
 10
101.831
 20
108.558
 30
0.0
 11
102.632
 21
108.558
 31
0.0
  0
LINE
  8
0
 62
     0
 10
102.632
 20
108.558
 30
0.0
 11
102.632
 21
107.559
 31
0.0
  0
LINE
  8
0
 62
     0
 10
102.632
 20
107.559
 30
0.0
 11
116.632
 21
107.559
 31
0.0
  0
LINE
  8
0
 62
     0
 10
116.632
 20
107.559
 30
0.0
 11
116.632
 21
108.558
 31
0.0
  0
LINE
  8
0
 62
     0
 10
116.632
 20
108.558
 30
0.0
 11
117.431
 21
108.558
 31
0.0
  0
LINE
  8
0
 62
     0
 10
117.431
 20
108.558
 30
0.0
 11
117.431
 21
111.658
 31
0.0
  0
LINE
  8
0
 62
     0
 10
117.431
 20
111.658
 30
0.0
 11
116.632
 21
111.658
 31
0.0
  0
LINE
  8
0
 62
     0
 10
116.632
 20
111.658
 30
0.0
 11
116.632
 21
117.458
 31
0.0
  0
LINE
  8
0
 62
     0
 10
116.632
 20
117.458
 30
0.0
 11
117.431
 21
117.458
 31
0.0
  0
LINE
  8
0
 62
     0
 10
117.431
 20
117.458
 30
0.0
 11
117.431
 21
120.558
 31
0.0
  0
LINE
  8
0
 62
     0
 10
117.431
 20
120.558
 30
0.0
 11
116.632
 21
120.558
 31
0.0
  0
LINE
  8
0
 62
     0
 10
116.632
 20
120.558
 30
0.0
 11
116.632
 21
121.558
 31
0.0
  0
LINE
  8
0
 62
     0
 10
116.632
 20
121.558
 30
0.0
 11
102.632
 21
121.558
 31
0.0
  0
LINE
  8
0
 62
     0
 10
83.5822
 20
121.558
 30
0.0
 11
83.5822
 21
120.558
 31
0.0
  0
LINE
  8
0
 62
     0
 10
83.5822
 20
120.558
 30
0.0
 11
82.7814
 21
120.558
 31
0.0
  0
LINE
  8
0
 62
     0
 10
82.7814
 20
120.558
 30
0.0
 11
82.7814
 21
117.458
 31
0.0
  0
LINE
  8
0
 62
     0
 10
82.7814
 20
117.458
 30
0.0
 11
83.5822
 21
117.458
 31
0.0
  0
LINE
  8
0
 62
     0
 10
83.5822
 20
117.458
 30
0.0
 11
83.5822
 21
111.658
 31
0.0
  0
LINE
  8
0
 62
     0
 10
83.5822
 20
111.658
 30
0.0
 11
82.7814
 21
111.658
 31
0.0
  0
LINE
  8
0
 62
     0
 10
82.7814
 20
111.658
 30
0.0
 11
82.7814
 21
108.558
 31
0.0
  0
LINE
  8
0
 62
     0
 10
82.7814
 20
108.558
 30
0.0
 11
83.5822
 21
108.558
 31
0.0
  0
LINE
  8
0
 62
     0
 10
83.5822
 20
108.558
 30
0.0
 11
83.5822
 21
107.559
 31
0.0
  0
LINE
  8
0
 62
     0
 10
83.5822
 20
107.559
 30
0.0
 11
97.5815
 21
107.559
 31
0.0
  0
LINE
  8
0
 62
     0
 10
97.5815
 20
107.559
 30
0.0
 11
97.5815
 21
108.558
 31
0.0
  0
LINE
  8
0
 62
     0
 10
97.5815
 20
108.558
 30
0.0
 11
98.3809
 21
108.558
 31
0.0
  0
LINE
  8
0
 62
     0
 10
98.3809
 20
108.558
 30
0.0
 11
98.3809
 21
111.658
 31
0.0
  0
LINE
  8
0
 62
     0
 10
98.3809
 20
111.658
 30
0.0
 11
97.5815
 21
111.658
 31
0.0
  0
LINE
  8
0
 62
     0
 10
97.5815
 20
111.658
 30
0.0
 11
97.5815
 21
117.458
 31
0.0
  0
LINE
  8
0
 62
     0
 10
97.5815
 20
117.458
 30
0.0
 11
98.3809
 21
117.458
 31
0.0
  0
LINE
  8
0
 62
     0
 10
98.3809
 20
117.458
 30
0.0
 11
98.3809
 21
120.558
 31
0.0
  0
LINE
  8
0
 62
     0
 10
98.3809
 20
120.558
 30
0.0
 11
97.5815
 21
120.558
 31
0.0
  0
LINE
  8
0
 62
     0
 10
97.5815
 20
120.558
 30
0.0
 11
97.5815
 21
121.558
 31
0.0
  0
LINE
  8
0
 62
     0
 10
97.5815
 20
121.558
 30
0.0
 11
83.5822
 21
121.558
 31
0.0
  0
LINE
  8
0
 62
     0
 10
64.5322
 20
121.558
 30
0.0
 11
64.5322
 21
120.558
 31
0.0
  0
LINE
  8
0
 62
     0
 10
64.5322
 20
120.558
 30
0.0
 11
63.7314
 21
120.558
 31
0.0
  0
LINE
  8
0
 62
     0
 10
63.7314
 20
120.558
 30
0.0
 11
63.7314
 21
117.458
 31
0.0
  0
LINE
  8
0
 62
     0
 10
63.7314
 20
117.458
 30
0.0
 11
64.5322
 21
117.458
 31
0.0
  0
LINE
  8
0
 62
     0
 10
64.5322
 20
117.458
 30
0.0
 11
64.5322
 21
111.658
 31
0.0
  0
LINE
  8
0
 62
     0
 10
64.5322
 20
111.658
 30
0.0
 11
63.7314
 21
111.658
 31
0.0
  0
LINE
  8
0
 62
     0
 10
63.7314
 20
111.658
 30
0.0
 11
63.7314
 21
108.558
 31
0.0
  0
LINE
  8
0
 62
     0
 10
63.7314
 20
108.558
 30
0.0
 11
64.5322
 21
108.558
 31
0.0
  0
LINE
  8
0
 62
     0
 10
64.5322
 20
108.558
 30
0.0
 11
64.5322
 21
107.559
 31
0.0
  0
LINE
  8
0
 62
     0
 10
64.5322
 20
107.559
 30
0.0
 11
78.5315
 21
107.559
 31
0.0
  0
LINE
  8
0
 62
     0
 10
78.5315
 20
107.559
 30
0.0
 11
78.5315
 21
108.558
 31
0.0
  0
LINE
  8
0
 62
     0
 10
78.5315
 20
108.558
 30
0.0
 11
79.3309
 21
108.558
 31
0.0
  0
LINE
  8
0
 62
     0
 10
79.3309
 20
108.558
 30
0.0
 11
79.3309
 21
111.658
 31
0.0
  0
LINE
  8
0
 62
     0
 10
79.3309
 20
111.658
 30
0.0
 11
78.5315
 21
111.658
 31
0.0
  0
LINE
  8
0
 62
     0
 10
78.5315
 20
111.658
 30
0.0
 11
78.5315
 21
117.458
 31
0.0
  0
LINE
  8
0
 62
     0
 10
78.5315
 20
117.458
 30
0.0
 11
79.3309
 21
117.458
 31
0.0
  0
LINE
  8
0
 62
     0
 10
79.3309
 20
117.458
 30
0.0
 11
79.3309
 21
120.558
 31
0.0
  0
LINE
  8
0
 62
     0
 10
79.3309
 20
120.558
 30
0.0
 11
78.5315
 21
120.558
 31
0.0
  0
LINE
  8
0
 62
     0
 10
78.5315
 20
120.558
 30
0.0
 11
78.5315
 21
121.558
 31
0.0
  0
LINE
  8
0
 62
     0
 10
78.5315
 20
121.558
 30
0.0
 11
64.5322
 21
121.558
 31
0.0
  0
LINE
  8
0
 62
     0
 10
35.9572
 20
121.558
 30
0.0
 11
35.9572
 21
120.558
 31
0.0
  0
LINE
  8
0
 62
     0
 10
35.9572
 20
120.558
 30
0.0
 11
35.1565
 21
120.558
 31
0.0
  0
LINE
  8
0
 62
     0
 10
35.1565
 20
120.558
 30
0.0
 11
35.1565
 21
117.458
 31
0.0
  0
LINE
  8
0
 62
     0
 10
35.1565
 20
117.458
 30
0.0
 11
35.9572
 21
117.458
 31
0.0
  0
LINE
  8
0
 62
     0
 10
35.9572
 20
117.458
 30
0.0
 11
35.9572
 21
111.658
 31
0.0
  0
LINE
  8
0
 62
     0
 10
35.9572
 20
111.658
 30
0.0
 11
35.1565
 21
111.658
 31
0.0
  0
LINE
  8
0
 62
     0
 10
35.1565
 20
111.658
 30
0.0
 11
35.1565
 21
108.558
 31
0.0
  0
LINE
  8
0
 62
     0
 10
35.1565
 20
108.558
 30
0.0
 11
35.9572
 21
108.558
 31
0.0
  0
LINE
  8
0
 62
     0
 10
35.9572
 20
108.558
 30
0.0
 11
35.9572
 21
107.559
 31
0.0
  0
LINE
  8
0
 62
     0
 10
35.9572
 20
107.559
 30
0.0
 11
49.9565
 21
107.559
 31
0.0
  0
LINE
  8
0
 62
     0
 10
49.9565
 20
107.559
 30
0.0
 11
49.9565
 21
108.558
 31
0.0
  0
LINE
  8
0
 62
     0
 10
49.9565
 20
108.558
 30
0.0
 11
50.7559
 21
108.558
 31
0.0
  0
LINE
  8
0
 62
     0
 10
50.7559
 20
108.558
 30
0.0
 11
50.7559
 21
111.658
 31
0.0
  0
LINE
  8
0
 62
     0
 10
50.7559
 20
111.658
 30
0.0
 11
49.9565
 21
111.658
 31
0.0
  0
LINE
  8
0
 62
     0
 10
49.9565
 20
111.658
 30
0.0
 11
49.9565
 21
117.458
 31
0.0
  0
LINE
  8
0
 62
     0
 10
49.9565
 20
117.458
 30
0.0
 11
50.7559
 21
117.458
 31
0.0
  0
LINE
  8
0
 62
     0
 10
50.7559
 20
117.458
 30
0.0
 11
50.7559
 21
120.558
 31
0.0
  0
LINE
  8
0
 62
     0
 10
50.7559
 20
120.558
 30
0.0
 11
49.9565
 21
120.558
 31
0.0
  0
LINE
  8
0
 62
     0
 10
49.9565
 20
120.558
 30
0.0
 11
49.9565
 21
121.558
 31
0.0
  0
LINE
  8
0
 62
     0
 10
49.9565
 20
121.558
 30
0.0
 11
35.9572
 21
121.558
 31
0.0
  0
ENDSEC
  0
EOF
