M48
; DRILL file {KiCad (5.1.6)-1} date 09/15/20 03:22:47
; FORMAT={-:-/ absolute / inch / decimal}
; #@! TF.CreationDate,2020-09-15T03:22:47-07:00
; #@! TF.GenerationSoftware,Kicad,Pcbnew,(5.1.6)-1
FMAT,2
INCH
T1C0.0157
T2C0.0236
T3C0.0315
T4C0.0500
T5C0.0709
T6C0.0689
T7C0.1181
T8C0.1200
T9C0.1570
%
G90
G05
T1
X-0.1173Y-0.188
X-0.1171Y-0.2402
X-0.0839Y-0.188
X-0.0837Y-0.2402
X-0.0504Y-0.188
X-0.0502Y-0.2402
X-0.0169Y-0.188
X-0.0167Y-0.2402
X0.0165Y-0.188
X0.0167Y-0.2402
X0.05Y-0.188
X0.0502Y-0.2402
X0.0835Y-0.188
X0.0837Y-0.2402
X0.1171Y-0.188
X0.1171Y-0.2402
T3
X-0.8661Y-0.9252
X-0.8661Y-1.2252
X-0.7666Y-0.5282
X-0.4666Y-0.5282
T4
X-0.478Y-1.4051
X-0.478Y-1.976
X-0.3796Y-1.976
X-0.2812Y-1.4051
X-0.2812Y-1.976
X-0.478Y-2.5301
X-0.478Y-3.101
X-0.3796Y-3.101
X-0.2812Y-2.5301
X-0.2812Y-3.101
T6
X0.6071Y-0.748
X1.0071Y-0.748
X12.4196Y-3.1836
X12.8196Y-3.1836
X9.2321Y-2.4336
X9.6321Y-2.4336
X10.6383Y-3.1836
X11.0383Y-3.1836
X2.6696Y-3.1836
X3.0696Y-3.1836
X2.2946Y-3.9336
X2.6946Y-3.9336
X8.1071Y-0.748
X8.5071Y-0.748
X10.7321Y-4.8711
X11.1321Y-4.8711
X9.6071Y-0.748
X10.0071Y-0.748
X4.9196Y-3.1836
X5.3196Y-3.1836
X4.9196Y-0.748
X5.3196Y-0.748
X5.8571Y-1.6836
X6.2571Y-1.6836
X9.9821Y-2.4336
X10.3821Y-2.4336
X0.6071Y-1.6836
X1.0071Y-1.6836
X12.4196Y-1.6836
X12.8196Y-1.6836
X9.4196Y-3.1836
X9.8196Y-3.1836
X0.7946Y-2.4336
X1.1946Y-2.4336
X10.1672Y-3.9336
X10.5672Y-3.9336
X3.4196Y-3.1836
X3.8196Y-3.1836
X3.0446Y-3.9336
X3.4446Y-3.9336
X7.1696Y-3.1836
X7.5696Y-3.1836
X8.2946Y-3.9336
X8.6946Y-3.9336
X7.5446Y-3.9336
X7.9446Y-3.9336
X4.7321Y-2.4336
X5.1321Y-2.4336
X5.1071Y-1.6836
X5.5071Y-1.6836
X5.2946Y-3.9336
X5.6946Y-3.9336
X12.2321Y-4.8711
X12.6321Y-4.8711
X1.7321Y-0.748
X2.1321Y-0.748
X9.6071Y-1.6836
X10.0071Y-1.6836
X4.0758Y-4.6836
X4.4758Y-4.6836
X8.2008Y-4.6836
X8.6008Y-4.6836
X2.4821Y-0.748
X2.8821Y-0.748
X7.3571Y-1.6836
X7.7571Y-1.6836
X8.4821Y-2.4336
X8.8821Y-2.4336
X6.2321Y-2.4336
X6.6321Y-2.4336
X4.3571Y-1.6836
X4.7571Y-1.6836
X8.9508Y-4.6836
X9.3508Y-4.6836
X10.3571Y-0.748
X10.7571Y-0.748
X3.6071Y-1.6836
X4.0071Y-1.6836
X2.8571Y-1.6836
X3.2571Y-1.6836
X2.1071Y-1.6836
X2.5071Y-1.6836
X7.7321Y-2.4336
X8.1321Y-2.4336
X8.6696Y-3.1836
X9.0696Y-3.1836
X6.4196Y-3.1836
X6.8196Y-3.1836
X6.0446Y-3.9336
X6.4446Y-3.9336
X6.4196Y-0.748
X6.8196Y-0.748
X12.4196Y-3.9336
X12.8196Y-3.9336
X12.4196Y-2.4336
X12.8196Y-2.4336
X1.6383Y-4.6836
X2.0383Y-4.6836
X6.7946Y-4.6836
X7.1946Y-4.6836
X3.9821Y-2.4336
X4.3821Y-2.4336
X1.3571Y-1.6836
X1.7571Y-1.6836
X3.2321Y-0.748
X3.6321Y-0.748
X7.9196Y-3.1836
X8.3196Y-3.1836
X11.4821Y-4.8711
X11.8821Y-4.8711
X6.7946Y-3.9336
X7.1946Y-3.9336
X5.4821Y-2.4336
X5.8821Y-2.4336
X11.4821Y-4.1211
X11.8821Y-4.1211
X5.4352Y-4.6836
X5.8352Y-4.6836
X9.7008Y-4.6836
X10.1008Y-4.6836
X2.5758Y-4.6836
X2.9758Y-4.6836
X1.0758Y-3.9336
X1.4758Y-3.9336
X3.7946Y-3.9336
X4.1946Y-3.9336
X0.8883Y-3.1836
X1.2883Y-3.1836
X1.7321Y-2.4336
X2.1321Y-2.4336
X3.2321Y-2.4336
X3.6321Y-2.4336
X7.1696Y-0.748
X7.5696Y-0.748
X8.1071Y-1.6836
X8.5071Y-1.6836
X8.8571Y-0.748
X9.2571Y-0.748
X4.1696Y-3.1836
X4.5696Y-3.1836
X5.6696Y-3.1836
X6.0696Y-3.1836
X11.1071Y-0.748
X11.5071Y-0.748
X8.8571Y-1.6836
X9.2571Y-1.6836
X0.7008Y-4.6836
X1.1008Y-4.6836
X10.9196Y-2.4336
X11.3196Y-2.4336
X1.9196Y-3.1836
X2.3196Y-3.1836
X10.7321Y-1.6836
X11.1321Y-1.6836
X2.4821Y-2.4336
X2.8821Y-2.4336
X3.9821Y-0.748
X4.3821Y-0.748
X6.6071Y-1.6836
X7.0071Y-1.6836
X9.0446Y-3.9336
X9.4446Y-3.9336
X6.9821Y-2.4336
X7.3821Y-2.4336
X4.5446Y-3.9336
X4.9446Y-3.9336
X5.6696Y-0.748
X6.0696Y-0.748
T7
X3.6571Y-1.5836
X3.9071Y-1.4836
X2.9071Y-1.5836
X3.1571Y-1.4836
X2.1571Y-1.5836
X2.4071Y-1.4836
X7.7821Y-2.3336
X8.0321Y-2.2336
X8.7196Y-3.0836
X8.9696Y-2.9836
X6.4696Y-3.0836
X6.7196Y-2.9836
X6.0946Y-3.8336
X6.3446Y-3.7336
X6.4696Y-0.648
X6.7196Y-0.548
X12.4696Y-3.8336
X12.7196Y-3.7336
X12.4696Y-2.3336
X12.7196Y-2.2336
X1.6883Y-4.5836
X1.9383Y-4.4836
X6.8446Y-4.5836
X7.0946Y-4.4836
X4.0321Y-2.3336
X4.2821Y-2.2336
X1.4071Y-1.5836
X1.6571Y-1.4836
X3.2821Y-0.648
X3.5321Y-0.548
X7.9696Y-3.0836
X8.2196Y-2.9836
X11.5321Y-4.7711
X11.7821Y-4.6711
X6.8446Y-3.8336
X7.0946Y-3.7336
X5.5321Y-2.3336
X5.7821Y-2.2336
X11.5321Y-4.0211
X11.7821Y-3.9211
X5.4852Y-4.5836
X5.7352Y-4.4836
X9.7508Y-4.5836
X10.0008Y-4.4836
X2.6258Y-4.5836
X2.8758Y-4.4836
X1.1258Y-3.8336
X1.3758Y-3.7336
X3.8446Y-3.8336
X4.0946Y-3.7336
X0.9383Y-3.0836
X1.1883Y-2.9836
X1.7821Y-2.3336
X2.0321Y-2.2336
X3.2821Y-2.3336
X3.5321Y-2.2336
X7.2196Y-0.648
X7.4696Y-0.548
X8.1571Y-1.5836
X8.4071Y-1.4836
X8.9071Y-0.648
X9.1571Y-0.548
X4.2196Y-3.0836
X4.4696Y-2.9836
X5.7196Y-3.0836
X5.9696Y-2.9836
X11.1571Y-0.648
X11.4071Y-0.548
X8.9071Y-1.5836
X9.1571Y-1.4836
X0.7508Y-4.5836
X1.0008Y-4.4836
X10.9696Y-2.3336
X11.2196Y-2.2336
X1.9696Y-3.0836
X2.2196Y-2.9836
X10.7821Y-1.5836
X11.0321Y-1.4836
X2.5321Y-2.3336
X2.7821Y-2.2336
X4.0321Y-0.648
X4.2821Y-0.548
X6.6571Y-1.5836
X6.9071Y-1.4836
X9.0946Y-3.8336
X9.3446Y-3.7336
X7.0321Y-2.3336
X7.2821Y-2.2336
X4.5946Y-3.8336
X4.8446Y-3.7336
X5.7196Y-0.648
X5.9696Y-0.548
X0.6571Y-0.648
X0.9071Y-0.548
X12.4696Y-3.0836
X12.7196Y-2.9836
X9.2821Y-2.3336
X9.5321Y-2.2336
X10.6883Y-3.0836
X10.9383Y-2.9836
X2.7196Y-3.0836
X2.9696Y-2.9836
X2.3446Y-3.8336
X2.5946Y-3.7336
X8.1571Y-0.648
X8.4071Y-0.548
X10.7821Y-4.7711
X11.0321Y-4.6711
X9.6571Y-0.648
X9.9071Y-0.548
X4.9696Y-3.0836
X5.2196Y-2.9836
X4.9696Y-0.648
X5.2196Y-0.548
X5.9071Y-1.5836
X6.1571Y-1.4836
X10.0321Y-2.3336
X10.2821Y-2.2336
X0.6571Y-1.5836
X0.9071Y-1.4836
X12.4696Y-1.5836
X12.7196Y-1.4836
X9.4696Y-3.0836
X9.7196Y-2.9836
X0.8446Y-2.3336
X1.0946Y-2.2336
X10.2172Y-3.8336
X10.4672Y-3.7336
X3.4696Y-3.0836
X3.7196Y-2.9836
X3.0946Y-3.8336
X3.3446Y-3.7336
X7.2196Y-3.0836
X7.4696Y-2.9836
X8.3446Y-3.8336
X8.5946Y-3.7336
X7.5946Y-3.8336
X7.8446Y-3.7336
X4.7821Y-2.3336
X5.0321Y-2.2336
X5.1571Y-1.5836
X5.4071Y-1.4836
X5.3446Y-3.8336
X5.5946Y-3.7336
X12.2821Y-4.7711
X12.5321Y-4.6711
X1.7821Y-0.648
X2.0321Y-0.548
X9.6571Y-1.5836
X9.9071Y-1.4836
X4.1258Y-4.5836
X4.3758Y-4.4836
X8.2508Y-4.5836
X8.5008Y-4.4836
X2.5321Y-0.648
X2.7821Y-0.548
X7.4071Y-1.5836
X7.6571Y-1.4836
X8.5321Y-2.3336
X8.7821Y-2.2336
X6.2821Y-2.3336
X6.5321Y-2.2336
X4.4071Y-1.5836
X4.6571Y-1.4836
X9.0008Y-4.5836
X9.2508Y-4.4836
X10.4071Y-0.648
X10.6571Y-0.548
T8
X6.5246Y-4.4086
X7.4646Y-4.4086
X3.6667Y-4.4086
X7.6037Y-4.4086
X0.8058Y-3.6586
X1.7458Y-3.6586
X10.4621Y-1.4086
X11.4021Y-1.4086
X10.3683Y-2.9086
X11.3083Y-2.9086
X9.8972Y-3.6586
X10.8372Y-3.6586
X3.8058Y-4.4086
X4.7458Y-4.4086
T9
X0.8071Y-0.748
X12.6196Y-3.1836
X9.4321Y-2.4336
X10.3683Y-3.5086
X10.8383Y-3.1836
X11.3083Y-3.5086
X2.8696Y-3.1836
X2.4946Y-3.9336
X8.3071Y-0.748
X10.9321Y-4.8711
X9.8071Y-0.748
X5.1196Y-3.1836
X5.1196Y-0.748
X6.0571Y-1.6836
X10.1821Y-2.4336
X0.8071Y-1.6836
X12.6196Y-1.6836
X9.6196Y-3.1836
X0.9946Y-2.4336
X9.8972Y-4.2586
X10.3672Y-3.9336
X10.8372Y-4.2586
X3.6196Y-3.1836
X3.2446Y-3.9336
X7.3696Y-3.1836
X8.4946Y-3.9336
X7.7446Y-3.9336
X4.9321Y-2.4336
X5.3071Y-1.6836
X5.4946Y-3.9336
X12.4321Y-4.8711
X1.9321Y-0.748
X9.8071Y-1.6836
X3.8058Y-5.0086
X4.2758Y-4.6836
X4.7458Y-5.0086
X8.4008Y-4.6836
X2.6821Y-0.748
X7.5571Y-1.6836
X8.6821Y-2.4336
X6.4321Y-2.4336
X4.5571Y-1.6836
X9.1508Y-4.6836
X10.5571Y-0.748
X3.8071Y-1.6836
X3.0571Y-1.6836
X2.3071Y-1.6836
X7.9321Y-2.4336
X8.8696Y-3.1836
X6.6196Y-3.1836
X6.2446Y-3.9336
X6.6196Y-0.748
X12.6196Y-3.9336
X12.6196Y-2.4336
X1.8383Y-4.6836
X6.5246Y-5.0086
X6.9946Y-4.6836
X7.4646Y-5.0086
X4.1821Y-2.4336
X1.5571Y-1.6836
X3.4321Y-0.748
X8.1196Y-3.1836
X11.6821Y-4.8711
X6.9946Y-3.9336
X5.6821Y-2.4336
X11.6821Y-4.1211
X3.6667Y-5.0086
X5.6352Y-4.6836
X7.6037Y-5.0086
X9.9008Y-4.6836
X2.7758Y-4.6836
X0.8058Y-4.2586
X1.2758Y-3.9336
X1.7458Y-4.2586
X3.9946Y-3.9336
X1.0883Y-3.1836
X1.9321Y-2.4336
X3.4321Y-2.4336
X7.3696Y-0.748
X8.3071Y-1.6836
X9.0571Y-0.748
X4.3696Y-3.1836
X5.8696Y-3.1836
X11.3071Y-0.748
X9.0571Y-1.6836
X0.9008Y-4.6836
X11.1196Y-2.4336
X2.1196Y-3.1836
X10.4621Y-2.0086
X10.9321Y-1.6836
X11.4021Y-2.0086
X2.6821Y-2.4336
X4.1821Y-0.748
X6.8071Y-1.6836
X9.2446Y-3.9336
X7.1821Y-2.4336
X4.7446Y-3.9336
X5.8696Y-0.748
T2
G00X-0.1703Y-0.0843
M15
G01X-0.1703Y-0.0528
M16
G05
G00X-0.1703Y-0.2311
M15
G01X-0.1703Y-0.172
M16
G05
G00X0.1703Y-0.0843
M15
G01X0.1703Y-0.0528
M16
G05
G00X0.1703Y-0.2311
M15
G01X0.1703Y-0.172
M16
G05
T5
G00X-0.6257Y-1.6591
M15
G01X-0.6257Y-1.7024
M16
G05
G00X-0.1335Y-1.6591
M15
G01X-0.1335Y-1.7024
M16
G05
G00X-0.6257Y-2.7841
M15
G01X-0.6257Y-2.8274
M16
G05
G00X-0.1335Y-2.7841
M15
G01X-0.1335Y-2.8274
M16
G05
T0
M30
