<?xml version="1.0" encoding="UTF-8" standalone="no"?><!DOCTYPE svg PUBLIC "-//W3C//DTD SVG 1.1//EN" "http://www.w3.org/Graphics/SVG/1.1/DTD/svg11.dtd"><svg width="100%" height="100%" viewBox="0 0 591 591" version="1.1" xmlns="http://www.w3.org/2000/svg" xmlns:xlink="http://www.w3.org/1999/xlink" xml:space="preserve" xmlns:serif="http://www.serif.com/" style="fill-rule:evenodd;clip-rule:evenodd;stroke-linejoin:round;stroke-miterlimit:2;"><path d="M0.577,254.519c0.1,-0.399 3.315,-0.598 9.644,-0.598c6.28,-0 9.619,0.075 10.018,0.224c0.448,0.15 0.673,0.324 0.673,0.523c-0,0.449 -1.097,1.047 -3.29,1.795c-2.342,0.747 -3.663,1.32 -3.962,1.719c-0.349,0.349 -0.523,3.289 -0.523,8.822l-0,6.803l0.075,14.877l3.887,0.149c1.744,0.05 2.816,0.112 3.215,0.187c0.398,0.075 0.598,0.287 0.598,0.635c-0,0.549 -3.29,0.823 -9.868,0.823c-6.529,-0 -9.794,-0.274 -9.794,-0.823c0,-0.348 0.112,-0.56 0.337,-0.635c0.224,-0.075 0.76,-0.112 1.607,-0.112c1.246,-0 1.919,-0.175 2.018,-0.523c0.1,-0.15 0.2,-5.657 0.299,-16.522l0.075,-15.998l-2.317,-0c-1.844,-0 -2.766,-0.299 -2.766,-0.898c-0,-0.199 0.025,-0.348 0.074,-0.448Z" style="fill-rule:nonzero;"/><path d="M28.612,290.328l-0,-27.212l6.878,0c1.844,1.794 4.635,4.523 8.373,8.186c3.738,3.663 6.529,6.417 8.373,8.261c-0,-1.794 0.024,-4.535 0.074,-8.223c0.05,-3.689 0.075,-6.43 0.075,-8.224l2.542,0c1.146,0 1.906,0.062 2.28,0.187c0.374,0.125 0.86,0.486 1.458,1.084l1.271,1.271l-0,24.67l-7.551,0l0,-4.111l-5.083,-4.86c-3.689,-3.389 -5.857,-5.283 -6.504,-5.681c-0.848,-0.549 -1.72,-0.823 -2.617,-0.823c-0.748,0 -1.321,0.2 -1.719,0.598c-0.3,0.249 -0.486,0.81 -0.561,1.682c-0.075,0.873 -0.112,2.903 -0.112,6.093l-0,7.102l-7.177,0Z" style="fill-rule:nonzero;"/><path d="M81.092,262.593c3.788,-0.2 5.707,-0.299 5.757,-0.299l0.149,-0c0.549,-0 1.956,0.374 4.224,1.121c2.268,0.748 3.825,1.346 4.673,1.794c0.448,0.25 0.71,0.574 0.785,0.972c0.074,0.399 -0.088,0.673 -0.486,0.823c-0.399,0.199 -0.947,0.124 -1.645,-0.225c-2.343,-0.897 -5.009,-1.345 -7.999,-1.345l-1.869,-0c-3.24,0.049 -5.358,0.299 -6.355,0.747c-1.545,0.748 -2.317,1.77 -2.317,3.065c-0,1.196 2.492,2.168 7.476,2.916c4.186,0.648 7.077,1.171 8.672,1.57c1.594,0.399 3.015,0.997 4.261,1.794c0.797,0.498 1.557,1.358 2.28,2.579c0.723,1.221 1.084,2.255 1.084,3.103c0,1.246 -0.573,2.517 -1.719,3.812c-1.147,1.296 -2.667,2.393 -4.561,3.29c-2.442,1.196 -5.058,1.794 -7.849,1.794c-2.143,-0 -4.336,-0.324 -6.579,-0.972c-2.542,-0.698 -4.635,-1.545 -6.28,-2.542c-0.797,-0.448 -1.37,-0.673 -1.719,-0.673c-0.399,0 -1.059,-0.498 -1.981,-1.495c-0.922,-0.996 -1.383,-1.694 -1.383,-2.093c-0,-0.199 0.025,-0.361 0.074,-0.486c0.05,-0.124 0.125,-0.162 0.225,-0.112l3.289,1.645c3.389,1.694 7.401,2.541 12.036,2.541c3.24,0 5.856,-0.647 7.85,-1.943c1.545,-1.047 2.317,-1.794 2.317,-2.243c0,-0.299 -0.374,-0.773 -1.121,-1.42c-0.947,-0.848 -1.695,-1.271 -2.243,-1.271c-0.498,-0 -0.947,-0.125 -1.346,-0.374c-1.594,-0.798 -3.737,-1.196 -6.429,-1.196c-3.439,-0 -6.753,-0.773 -9.943,-2.318c-2.691,-1.296 -4.037,-3.115 -4.037,-5.457c0,-0.249 0.05,-0.673 0.15,-1.271c0.199,-0.748 0.922,-1.682 2.168,-2.803c1.246,-1.122 2.367,-1.882 3.364,-2.281c0.847,-0.299 3.19,-0.548 7.027,-0.747Z" style="fill-rule:nonzero;"/><path d="M108.08,263.49c0.1,-0.349 5.308,-0.523 15.625,-0.523c10.267,-0 15.599,0.074 15.998,0.224c0.399,0.149 0.598,1.42 0.598,3.813c0,2.342 -0.149,3.613 -0.448,3.812c-0.299,0.15 -0.499,0.075 -0.598,-0.224c-0.2,-0.449 -0.723,-1.121 -1.57,-2.018l-1.496,-1.421l-4.111,0c-1.994,0 -3.227,0.05 -3.701,0.15c-0.473,0.099 -0.959,0.398 -1.458,0.897c-0.897,0.996 -1.433,2.068 -1.607,3.214c-0.174,1.147 -0.262,4.311 -0.262,9.495l0,9.943l-6.13,-0l0,-23.624l-5.382,-0.15l-5.458,-0.074l-0.075,-1.496c-0.099,-1.046 -0.074,-1.719 0.075,-2.018Z" style="fill-rule:nonzero;"/><path d="M170.578,263.34c0.25,-0.448 0.573,-0.672 0.972,-0.672c0.349,-0 4.062,4.012 11.139,12.036c8.373,9.619 12.56,14.652 12.56,15.101c-0,0.299 -1.421,0.473 -4.262,0.523l-4.261,0.15l-1.345,-1.421c-0.748,-0.747 -3.39,-3.812 -7.925,-9.195c-4.336,-5.133 -6.604,-7.75 -6.803,-7.85c-0.1,0 -1.159,1.072 -3.177,3.215c-2.019,2.143 -3.028,3.389 -3.028,3.738c0,0.249 0.947,0.374 2.841,0.374l2.99,-0l0,2.018c0,0.947 -0.037,1.52 -0.112,1.72c-0.075,0.199 -0.311,0.299 -0.71,0.299l-2.43,0.224c-0.673,0.05 -1.258,0.1 -1.757,0.149c-2.192,0.25 -3.85,0.648 -4.971,1.197c-1.121,0.548 -2.28,1.57 -3.476,3.065l-1.869,2.392l-3.215,-0c-2.292,-0 -3.439,-0.1 -3.439,-0.299c0,-0.15 1.059,-1.545 3.178,-4.187c2.118,-2.641 4.659,-5.706 7.625,-9.195c2.965,-3.489 5.445,-6.354 7.438,-8.597c1.795,-2.093 3.14,-3.688 4.037,-4.785Z" style="fill-rule:nonzero;"/><path d="M203.024,290.104l-0,-28.259l7.999,0l-0,10.99c-0,7.326 0.149,11.139 0.448,11.438c0.299,0.299 3.364,0.448 9.196,0.448l8.746,0c1.296,-1.146 2.542,-2.317 3.738,-3.513l0,8.896l-30.127,-0Z" style="fill-rule:nonzero;"/><path d="M240.851,290.104l0,-28.259l8,0l-0,10.99c-0,7.326 0.149,11.139 0.448,11.438c0.299,0.299 3.364,0.448 9.195,0.448l8.747,0c1.296,-1.146 2.542,-2.317 3.738,-3.513l0,8.896l-30.128,-0Z" style="fill-rule:nonzero;"/><path d="M301.256,263.34c0.249,-0.448 0.573,-0.672 0.972,-0.672c0.349,-0 4.062,4.012 11.139,12.036c8.373,9.619 12.56,14.652 12.56,15.101c-0,0.299 -1.421,0.473 -4.262,0.523l-4.261,0.15l-1.346,-1.421c-0.747,-0.747 -3.389,-3.812 -7.924,-9.195c-4.336,-5.133 -6.604,-7.75 -6.803,-7.85c-0.1,0 -1.159,1.072 -3.177,3.215c-2.019,2.143 -3.028,3.389 -3.028,3.738c0,0.249 0.947,0.374 2.841,0.374l2.99,-0l0,2.018c0,0.947 -0.037,1.52 -0.112,1.72c-0.075,0.199 -0.311,0.299 -0.71,0.299l-2.43,0.224c-0.673,0.05 -1.258,0.1 -1.757,0.149c-2.192,0.25 -3.85,0.648 -4.971,1.197c-1.121,0.548 -2.28,1.57 -3.476,3.065l-1.869,2.392l-3.215,-0c-2.292,-0 -3.439,-0.1 -3.439,-0.299c0,-0.15 1.059,-1.545 3.177,-4.187c2.119,-2.641 4.66,-5.706 7.626,-9.195c2.965,-3.489 5.445,-6.354 7.438,-8.597c1.795,-2.093 3.14,-3.688 4.037,-4.785Z" style="fill-rule:nonzero;"/><path d="M334.225,263.49c0.099,-0.349 5.308,-0.523 15.624,-0.523c10.267,-0 15.6,0.074 15.999,0.224c0.398,0.149 0.598,1.42 0.598,3.813c-0,2.342 -0.15,3.613 -0.449,3.812c-0.299,0.15 -0.498,0.075 -0.598,-0.224c-0.199,-0.449 -0.723,-1.121 -1.57,-2.018l-1.495,-1.421l-4.112,0c-1.993,0 -3.227,0.05 -3.7,0.15c-0.474,0.099 -0.96,0.398 -1.458,0.897c-0.897,0.996 -1.433,2.068 -1.607,3.214c-0.175,1.147 -0.262,4.311 -0.262,9.495l-0,9.943l-6.13,-0l-0,-23.624l-5.383,-0.15l-5.457,-0.074l-0.075,-1.496c-0.1,-1.046 -0.075,-1.719 0.075,-2.018Z" style="fill-rule:nonzero;"/><path d="M374.445,263.266c-0,-0.349 0.336,-0.561 1.009,-0.636c0.673,-0.075 2.828,-0.112 6.467,-0.112c4.984,0 7.476,0.075 7.476,0.224c-0,0.698 -0.798,1.246 -2.393,1.645c-1.395,0.399 -2.292,0.797 -2.691,1.196c-0.449,0.349 -0.71,1.034 -0.785,2.056c-0.075,1.022 -0.112,4.373 -0.112,10.055l-0,11.363l2.392,0c2.093,0 3.14,0.25 3.14,0.748c0,0.149 -0.025,0.249 -0.075,0.299c-0.149,0.299 -2.467,0.449 -6.952,0.449c-4.486,-0 -6.729,-0.175 -6.729,-0.524c0,-0.648 0.698,-0.972 2.094,-0.972l0.897,0l-0,-25.044l-1.869,0c-0.798,0 -1.308,-0.05 -1.533,-0.149c-0.224,-0.1 -0.336,-0.299 -0.336,-0.598Z" style="fill-rule:nonzero;"/><path d="M412.572,274.704c0.598,-0.299 1.395,-0.449 2.392,-0.449c1.196,0 2.168,0.224 2.916,0.673c0.797,0.498 1.196,1.022 1.196,1.57c-0,0.498 -0.324,0.934 -0.972,1.308c-0.648,0.374 -1.52,0.586 -2.617,0.636l-0.747,-0c-1.695,-0 -2.841,-0.474 -3.439,-1.421c-0.1,-0.149 -0.15,-0.349 -0.15,-0.598c0,-0.648 0.474,-1.221 1.421,-1.719Zm-2.467,-10.99c1.196,-0.199 3.189,-0.299 5.98,-0.299c3.439,0 5.981,0.15 7.626,0.449c3.588,0.648 6.778,1.819 9.569,3.513c2.791,1.695 4.685,3.614 5.682,5.757c0.498,1.196 0.971,1.794 1.42,1.794c0.05,-0 0.399,0.012 1.047,0.037c0.647,0.025 1.221,0.038 1.719,0.038l2.168,0.074l-0,2.916l-2.617,0.15l-2.616,0.074l-1.196,2.168c-1.446,2.692 -3.913,4.86 -7.401,6.504c-3.838,1.894 -8.323,2.941 -13.457,3.14l-4.784,0.224l-0,-2.541l3.812,-0.374c4.137,-0.449 7.588,-1.533 10.354,-3.252c2.766,-1.72 4.374,-3.75 4.822,-6.093c0.05,-0.199 0.075,-0.523 0.075,-0.972c-0,-2.043 -1.047,-3.987 -3.14,-5.831c-2.093,-1.844 -4.784,-3.215 -8.074,-4.112c-1.196,-0.299 -3.239,-0.448 -6.13,-0.448c-3.489,-0 -6.031,0.174 -7.625,0.523c-2.692,0.598 -5.109,1.57 -7.252,2.916c-0.448,0.299 -0.76,0.448 -0.934,0.448c-0.175,0 -0.461,-0.199 -0.86,-0.598l-0.822,-0.822l0.897,-0.748c1.096,-0.897 2.878,-1.831 5.345,-2.803c2.467,-0.972 4.598,-1.583 6.392,-1.832Z" style="fill-rule:nonzero;"/><path d="M453.091,290.328l-0,-27.212l6.878,0c1.844,1.794 4.635,4.523 8.373,8.186c3.738,3.663 6.529,6.417 8.373,8.261c-0,-1.794 0.024,-4.535 0.074,-8.223c0.05,-3.689 0.075,-6.43 0.075,-8.224l2.542,0c1.146,0 1.906,0.062 2.28,0.187c0.374,0.125 0.86,0.486 1.458,1.084l1.271,1.271l-0,24.67l-7.551,0l0,-4.111l-5.083,-4.86c-3.689,-3.389 -5.857,-5.283 -6.504,-5.681c-0.848,-0.549 -1.72,-0.823 -2.617,-0.823c-0.748,0 -1.321,0.2 -1.719,0.598c-0.3,0.249 -0.486,0.81 -0.561,1.682c-0.075,0.873 -0.112,2.903 -0.112,6.093l-0,7.102l-7.177,0Z" style="fill-rule:nonzero;"/><path d="M550.127,262.742c-1.246,-0.398 -3.663,-0.598 -7.251,-0.598c-3.19,0 -5.308,0.075 -6.355,0.225c-0.647,0.099 -2.018,0.672 -4.111,1.719c-6.131,2.94 -9.196,6.18 -9.196,9.719c0,0.996 0.25,1.968 0.748,2.915c0.498,1.047 1.994,2.505 4.485,4.374c2.492,1.869 4.162,2.803 5.009,2.803l0.225,0c0.249,-0.1 3.326,-3.426 9.232,-9.98c5.906,-6.554 8.909,-10.005 9.009,-10.354c-0,-0.2 -0.598,-0.474 -1.795,-0.823Zm-12.335,-6.354c0.997,-0.1 2.318,-0.15 3.963,-0.15c2.79,0 5.382,0.399 7.774,1.196c2.791,0.947 5.508,2.231 8.149,3.851c2.642,1.619 3.962,2.828 3.962,3.625c0,0.299 -0.274,0.823 -0.822,1.57l-0.822,0.972l-1.57,-1.046c-1.296,-0.848 -2.143,-1.271 -2.542,-1.271c-0.748,-0 -1.657,0.548 -2.729,1.644c-1.071,1.097 -3.451,3.738 -7.139,7.925c-5.632,6.379 -8.523,9.693 -8.672,9.943c-0.05,0.149 0.212,0.311 0.785,0.486c0.573,0.174 1.345,0.323 2.317,0.448c0.972,0.125 1.956,0.187 2.953,0.187c3.29,-0 6.629,-0.648 10.018,-1.944c3.389,-1.296 5.706,-2.816 6.952,-4.56c0.449,-0.598 1.246,-0.897 2.393,-0.897c0.847,-0 1.271,0.224 1.271,0.673c-0,0.498 -0.76,1.595 -2.281,3.289c-1.52,1.695 -2.977,3.115 -4.373,4.261c-1.495,1.147 -2.891,1.994 -4.186,2.542c-0.947,0.299 -1.695,0.648 -2.243,1.047c-0.399,0.299 -3.165,0.448 -8.298,0.448l-7.701,0l-3.962,-1.42c-2.542,-0.947 -4.884,-2.193 -7.027,-3.738c-2.492,-1.794 -4.336,-3.439 -5.532,-4.934c-1.196,-1.495 -1.944,-3.09 -2.243,-4.785l-0.224,-1.271l-2.467,-0.149c-1.147,-0.05 -1.832,-0.125 -2.056,-0.224c-0.224,-0.1 -0.336,-0.349 -0.336,-0.748c-0,-0.399 0.062,-0.635 0.186,-0.71c0.125,-0.075 0.511,-0.112 1.159,-0.112l0.748,-0c1.296,-0 2.093,-0.1 2.392,-0.299c0.299,-0.2 0.573,-0.773 0.822,-1.72c0.549,-2.043 1.819,-4.087 3.813,-6.13c1.994,-2.043 4.336,-3.713 7.027,-5.009c3.639,-1.744 7.152,-2.741 10.541,-2.99Z" style="fill-rule:nonzero;"/><path d="M576.181,254.93c0.274,-0.125 0.461,-0.411 0.561,-0.86c0.099,-0.448 0.249,-0.735 0.448,-0.859c0.199,-0.125 0.673,-0.187 1.42,-0.187c0.1,-0 0.362,0.012 0.785,0.037c0.424,0.025 0.785,0.037 1.084,0.037c1.695,0.05 2.692,0.138 2.991,0.262c0.299,0.125 0.473,0.461 0.523,1.009c0.05,0.798 0.399,1.221 1.047,1.271l0.972,0.15l0.448,31.772l1.645,0.224c0.747,0.05 1.221,0.162 1.42,0.337c0.2,0.174 0.349,0.536 0.449,1.084l0.075,1.121l-17.793,0l-0,-1.271c-0,-0.598 0.087,-0.959 0.262,-1.084c0.174,-0.124 0.71,-0.187 1.607,-0.187l1.944,0l0.074,-8.373c0.05,-2.691 0.075,-5.881 0.075,-9.569c0,-2.791 -0.075,-4.747 -0.224,-5.868c-0.15,-1.122 -0.361,-1.807 -0.636,-2.056c-0.274,-0.249 -0.784,-0.374 -1.532,-0.374l-1.645,0l0.15,-3.14l0.075,-3.065l2.018,-0.075c0.897,-0.099 1.483,-0.211 1.757,-0.336Z" style="fill-rule:nonzero;"/></svg>